AcariSans-Italic.ufo
<glyph name="dollar" format="2">
  <advance width="1114"/>
  <unicode hex="0024"/>
  <outline>
    <contour>
      <point x="441" y="-246" type="line"/>
      <point x="333" y="-246" type="line"/>
      <point x="393" y="-12" type="line"/>
      <point x="297" y="-1"/>
      <point x="145" y="87"/>
      <point x="56" y="236"/>
      <point x="56" y="340" type="qcurve"/>
      <point x="57" y="374" type="line"/>
      <point x="215" y="402" type="line"/>
      <point x="212" y="380"/>
      <point x="212" y="359" type="qcurve" smooth="yes"/>
      <point x="212" y="246"/>
      <point x="361" y="132"/>
      <point x="480" y="132" type="qcurve" smooth="yes"/>
      <point x="608" y="132"/>
      <point x="802" y="261"/>
      <point x="837" y="396" type="qcurve"/>
      <point x="843" y="425"/>
      <point x="843" y="448" type="qcurve" smooth="yes"/>
      <point x="843" y="557"/>
      <point x="728" y="626" type="qcurve" smooth="yes"/>
      <point x="674" y="658"/>
      <point x="595" y="697" type="qcurve" smooth="yes"/>
      <point x="507" y="740"/>
      <point x="442" y="780" type="qcurve" smooth="yes"/>
      <point x="305" y="866"/>
      <point x="305" y="1007" type="qcurve" smooth="yes"/>
      <point x="305" y="1133"/>
      <point x="395" y="1254" type="qcurve"/>
      <point x="456" y="1330"/>
      <point x="622" y="1418"/>
      <point x="714" y="1430" type="qcurve"/>
      <point x="774" y="1659" type="line"/>
      <point x="881" y="1659" type="line"/>
      <point x="822" y="1431" type="line"/>
      <point x="929" y="1422"/>
      <point x="1083" y="1311"/>
      <point x="1118" y="1203" type="qcurve"/>
      <point x="983" y="1135" type="line"/>
      <point x="957" y="1218"/>
      <point x="836" y="1293"/>
      <point x="759" y="1293" type="qcurve" smooth="yes"/>
      <point x="663" y="1293"/>
      <point x="497" y="1174"/>
      <point x="471" y="1074" type="qcurve" smooth="yes"/>
      <point x="465" y="1049"/>
      <point x="465" y="1026" type="qcurve" smooth="yes"/>
      <point x="465" y="925"/>
      <point x="575" y="861" type="qcurve" smooth="yes"/>
      <point x="621" y="835"/>
      <point x="694" y="798" type="qcurve" smooth="yes"/>
      <point x="789" y="751"/>
      <point x="860" y="709" type="qcurve"/>
      <point x="1001" y="620"/>
      <point x="1001" y="468" type="qcurve" smooth="yes"/>
      <point x="1001" y="390"/>
      <point x="940" y="235"/>
      <point x="893" y="178" type="qcurve" smooth="yes"/>
      <point x="817" y="87"/>
      <point x="614" y="-10"/>
      <point x="500" y="-15" type="qcurve"/>
    </contour>
  </outline>
</glyph>
<glyph name="ampersand" format="2">
  <advance width="1368"/>
  <unicode hex="0026"/>
  <outline>
    <contour>
      <point x="1050" y="-54" type="line"/>
      <point x="908" y="175" type="line"/>
      <point x="695" y="-21"/>
      <point x="426" y="-21" type="qcurve" smooth="yes"/>
      <point x="328" y="-21"/>
      <point x="170" y="36"/>
      <point x="78" y="150"/>
      <point x="78" y="238" type="qcurve" smooth="yes"/>
      <point x="78" y="300"/>
      <point x="128" y="438"/>
      <point x="178" y="500" type="qcurve" smooth="yes"/>
      <point x="240" y="576"/>
      <point x="414" y="703"/>
      <point x="542" y="773" type="qcurve"/>
      <point x="492" y="855"/>
      <point x="431" y="1003"/>
      <point x="431" y="1077" type="qcurve" smooth="yes"/>
      <point x="431" y="1149"/>
      <point x="494" y="1274"/>
      <point x="598" y="1368"/>
      <point x="663" y="1395" type="qcurve" smooth="yes"/>
      <point x="746" y="1430"/>
      <point x="834" y="1430" type="qcurve" smooth="yes"/>
      <point x="957" y="1430"/>
      <point x="1098" y="1289"/>
      <point x="1098" y="1184" type="qcurve" smooth="yes"/>
      <point x="1098" y="1131"/>
      <point x="1079" y="1073" type="qcurve" smooth="yes"/>
      <point x="1020" y="896"/>
      <point x="724" y="732" type="qcurve"/>
      <point x="935" y="396" type="line"/>
      <point x="1022" y="522"/>
      <point x="1081" y="698" type="qcurve"/>
      <point x="1208" y="670" type="line"/>
      <point x="1137" y="445"/>
      <point x="1007" y="282" type="qcurve"/>
      <point x="1164" y="32" type="line"/>
    </contour>
    <contour>
      <point x="649" y="832" type="qcurve"/>
      <point x="793" y="911"/>
      <point x="954" y="1051"/>
      <point x="974" y="1136" type="qcurve" smooth="yes"/>
      <point x="979" y="1158"/>
      <point x="979" y="1174" type="qcurve" smooth="yes"/>
      <point x="979" y="1235"/>
      <point x="894" y="1306"/>
      <point x="831" y="1306" type="qcurve" smooth="yes"/>
      <point x="747" y="1306"/>
      <point x="587" y="1203"/>
      <point x="560" y="1106" type="qcurve"/>
      <point x="557" y="1090"/>
      <point x="557" y="1072" type="qcurve" smooth="yes"/>
      <point x="557" y="981"/>
    </contour>
    <contour>
      <point x="435" y="112" type="qcurve" smooth="yes"/>
      <point x="668" y="112"/>
      <point x="841" y="282" type="qcurve"/>
      <point x="603" y="664" type="line"/>
      <point x="379" y="544"/>
      <point x="286" y="433" type="qcurve"/>
      <point x="248" y="386"/>
      <point x="208" y="287"/>
      <point x="208" y="251" type="qcurve" smooth="yes"/>
      <point x="208" y="179"/>
      <point x="336" y="112"/>
    </contour>
  </outline>
</glyph>
<glyph name="parenleft" format="2">
  <advance width="567"/>
  <unicode hex="0028"/>
  <outline>
    <contour>
      <point x="369" y="-36" type="qcurve"/>
      <point x="253" y="-27" type="line"/>
      <point x="200" y="55"/>
      <point x="150" y="297"/>
      <point x="150" y="428" type="qcurve" smooth="yes"/>
      <point x="150" y="584"/>
      <point x="181" y="719" type="qcurve" smooth="yes"/>
      <point x="225" y="911"/>
      <point x="427" y="1298"/>
      <point x="582" y="1447" type="qcurve"/>
      <point x="718" y="1437" type="line"/>
      <point x="494" y="1209"/>
      <point x="264" y="666"/>
      <point x="264" y="408" type="qcurve" smooth="yes"/>
      <point x="264" y="158"/>
    </contour>
  </outline>
</glyph>
<glyph name="parenright" format="2">
  <advance width="569"/>
  <unicode hex="0029"/>
  <outline>
    <contour>
      <point x="78" y="-36" type="qcurve"/>
      <point x="-51" y="-27" type="line"/>
      <point x="110" y="139"/>
      <point x="215" y="332" type="qcurve" smooth="yes"/>
      <point x="396" y="663"/>
      <point x="396" y="989" type="qcurve" smooth="yes"/>
      <point x="396" y="1239"/>
      <point x="294" y="1447" type="qcurve"/>
      <point x="411" y="1437" type="line"/>
      <point x="518" y="1264"/>
      <point x="518" y="1001" type="qcurve" smooth="yes"/>
      <point x="518" y="867"/>
      <point x="462" y="592"/>
      <point x="394" y="435" type="qcurve" smooth="yes"/>
      <point x="335" y="298"/>
      <point x="172" y="47"/>
    </contour>
  </outline>
</glyph>
<glyph name="asterisk" format="2">
  <advance width="878"/>
  <unicode hex="002A"/>
  <outline>
    <contour>
      <point x="646" y="850" type="line"/>
      <point x="576" y="1082" type="line"/>
      <point x="401" y="850" type="line"/>
      <point x="319" y="918" type="line"/>
      <point x="536" y="1115" type="line"/>
      <point x="297" y="1156" type="line"/>
      <point x="358" y="1268" type="line"/>
      <point x="566" y="1168" type="line"/>
      <point x="593" y="1413" type="line"/>
      <point x="706" y="1413" type="line"/>
      <point x="618" y="1168" type="line"/>
      <point x="870" y="1268" type="line"/>
      <point x="881" y="1156" type="line"/>
      <point x="621" y="1115" type="line"/>
      <point x="750" y="918" type="line"/>
    </contour>
  </outline>
</glyph>
<glyph name="plus" format="2">
  <advance width="1275"/>
  <unicode hex="002B"/>
  <outline>
    <contour>
      <point x="694" y="106" type="line"/>
      <point x="580" y="106" type="line"/>
      <point x="580" y="569" type="line"/>
      <point x="124" y="569" type="line"/>
      <point x="124" y="682" type="line"/>
      <point x="580" y="682" type="line"/>
      <point x="580" y="1143" type="line"/>
      <point x="694" y="1143" type="line"/>
      <point x="694" y="682" type="line"/>
      <point x="1151" y="682" type="line"/>
      <point x="1151" y="569" type="line"/>
      <point x="694" y="569" type="line"/>
    </contour>
  </outline>
</glyph>
<glyph name="comma" format="2">
  <advance width="630"/>
  <unicode hex="002C"/>
  <outline>
    <contour>
      <point x="115" y="-225" type="line"/>
      <point x="20" y="-225" type="line"/>
      <point x="235" y="264" type="line"/>
      <point x="431" y="264" type="line"/>
    </contour>
  </outline>
</glyph>
<glyph name="hyphen" format="2">
  <advance width="838"/>
  <unicode hex="002D"/>
  <outline>
    <contour>
      <point x="704" y="621" type="line"/>
      <point x="190" y="621" type="line"/>
      <point x="217" y="735" type="line"/>
      <point x="730" y="735" type="line"/>
    </contour>
  </outline>
</glyph>
<glyph name="slash" format="2">
  <advance width="937"/>
  <unicode hex="002F"/>
  <outline>
    <contour>
      <point x="-44" y="-430" type="line"/>
      <point x="-202" y="-430" type="line"/>
      <point x="1003" y="1516" type="line"/>
      <point x="1158" y="1516" type="line"/>
    </contour>
  </outline>
</glyph>
<glyph name="two" format="2">
  <advance width="1200"/>
  <unicode hex="0032"/>
  <outline>
    <contour>
      <point x="971" y="0" type="line"/>
      <point x="-5" y="0" type="line"/>
      <point x="23" y="146" type="line"/>
      <point x="365" y="336"/>
      <point x="583" y="532" type="qcurve"/>
      <point x="758" y="674"/>
      <point x="948" y="915"/>
      <point x="975" y="1038" type="qcurve" smooth="yes"/>
      <point x="985" y="1081"/>
      <point x="985" y="1120" type="qcurve" smooth="yes"/>
      <point x="985" y="1208"/>
      <point x="883" y="1291"/>
      <point x="801" y="1291" type="qcurve" smooth="yes"/>
      <point x="707" y="1291"/>
      <point x="558" y="1201"/>
      <point x="453" y="1044"/>
      <point x="425" y="943" type="qcurve"/>
      <point x="273" y="972" type="line"/>
      <point x="328" y="1196"/>
      <point x="612" y="1432"/>
      <point x="805" y="1432" type="qcurve" smooth="yes"/>
      <point x="973" y="1432"/>
      <point x="1149" y="1264"/>
      <point x="1149" y="1127" type="qcurve" smooth="yes"/>
      <point x="1149" y="1040"/>
      <point x="1072" y="832"/>
      <point x="988" y="726" type="qcurve" smooth="yes"/>
      <point x="875" y="586"/>
      <point x="669" y="413" type="qcurve"/>
      <point x="534" y="306"/>
      <point x="345" y="182"/>
      <point x="247" y="130" type="qcurve"/>
      <point x="1001" y="134" type="line"/>
    </contour>
  </outline>
</glyph>
<glyph name="six" format="2">
  <advance width="1200"/>
  <unicode hex="0036"/>
  <outline>
    <contour>
      <point x="494" y="-20" type="qcurve" smooth="yes"/>
      <point x="375" y="-20"/>
      <point x="205" y="80"/>
      <point x="114" y="250"/>
      <point x="114" y="354" type="qcurve" smooth="yes"/>
      <point x="114" y="536"/>
      <point x="246" y="701" type="qcurve"/>
      <point x="824" y="1413" type="line"/>
      <point x="1002" y="1413" type="line"/>
      <point x="562" y="889" type="line"/>
      <point x="624" y="901"/>
      <point x="682" y="901" type="qcurve" smooth="yes"/>
      <point x="800" y="901"/>
      <point x="973" y="808"/>
      <point x="1068" y="646"/>
      <point x="1068" y="543" type="qcurve" smooth="yes"/>
      <point x="1068" y="404"/>
      <point x="895" y="128"/>
      <point x="742" y="43" type="qcurve"/>
      <point x="624" y="-20"/>
    </contour>
    <contour>
      <point x="504" y="122" type="qcurve" smooth="yes"/>
      <point x="599" y="122"/>
      <point x="769" y="219"/>
      <point x="888" y="374"/>
      <point x="910" y="464" type="qcurve"/>
      <point x="918" y="503"/>
      <point x="918" y="538" type="qcurve" smooth="yes"/>
      <point x="918" y="645"/>
      <point x="784" y="778"/>
      <point x="678" y="778" type="qcurve" smooth="yes"/>
      <point x="583" y="778"/>
      <point x="413" y="681"/>
      <point x="294" y="527"/>
      <point x="272" y="436" type="qcurve" smooth="yes"/>
      <point x="264" y="403"/>
      <point x="264" y="364" type="qcurve" smooth="yes"/>
      <point x="264" y="258"/>
      <point x="397" y="122"/>
    </contour>
  </outline>
</glyph>
<glyph name="seven" format="2">
  <advance width="1200"/>
  <unicode hex="0037"/>
  <outline>
    <contour>
      <point x="346" y="0" type="line"/>
      <point x="168" y="0" type="line"/>
      <point x="1062" y="1275" type="line"/>
      <point x="308" y="1275" type="line"/>
      <point x="340" y="1413" type="line"/>
      <point x="1278" y="1413" type="line"/>
      <point x="1262" y="1335" type="line"/>
    </contour>
  </outline>
</glyph>
<glyph name="nine" format="2">
  <advance width="1200"/>
  <unicode hex="0039"/>
  <outline>
    <contour>
      <point x="472" y="0" type="line"/>
      <point x="298" y="0" type="line"/>
      <point x="734" y="524" type="line"/>
      <point x="674" y="512"/>
      <point x="612" y="512" type="qcurve" smooth="yes"/>
      <point x="492" y="512"/>
      <point x="320" y="606"/>
      <point x="228" y="767"/>
      <point x="228" y="868" type="qcurve" smooth="yes"/>
      <point x="228" y="922"/>
      <point x="242" y="975" type="qcurve"/>
      <point x="270" y="1096"/>
      <point x="432" y="1304"/>
      <point x="555" y="1371" type="qcurve"/>
      <point x="674" y="1434"/>
      <point x="804" y="1434" type="qcurve" smooth="yes"/>
      <point x="921" y="1434"/>
      <point x="1091" y="1334"/>
      <point x="1182" y="1166"/>
      <point x="1182" y="1062" type="qcurve" smooth="yes"/>
      <point x="1182" y="974"/>
      <point x="1114" y="788"/>
      <point x="1054" y="712" type="qcurve"/>
    </contour>
    <contour>
      <point x="618" y="635" type="qcurve" smooth="yes"/>
      <point x="713" y="635"/>
      <point x="883" y="732"/>
      <point x="1002" y="886"/>
      <point x="1024" y="977" type="qcurve"/>
      <point x="1032" y="1016"/>
      <point x="1032" y="1052" type="qcurve" smooth="yes"/>
      <point x="1032" y="1158"/>
      <point x="898" y="1291"/>
      <point x="792" y="1291" type="qcurve" smooth="yes"/>
      <point x="697" y="1291"/>
      <point x="526" y="1193"/>
      <point x="406" y="1038"/>
      <point x="386" y="949" type="qcurve" smooth="yes"/>
      <point x="378" y="916"/>
      <point x="378" y="876" type="qcurve" smooth="yes"/>
      <point x="378" y="768"/>
      <point x="512" y="635"/>
    </contour>
  </outline>
</glyph>
<glyph name="colon" format="2">
  <advance width="677"/>
  <unicode hex="003A"/>
  <outline>
    <contour>
      <point x="496" y="761" type="line"/>
      <point x="300" y="761" type="line"/>
      <point x="345" y="954" type="line"/>
      <point x="541" y="954" type="line"/>
    </contour>
    <contour>
      <point x="322" y="0" type="line"/>
      <point x="126" y="0" type="line"/>
      <point x="171" y="194" type="line"/>
      <point x="367" y="194" type="line"/>
    </contour>
  </outline>
</glyph>
<glyph name="semicolon" format="2">
  <advance width="658"/>
  <unicode hex="003B"/>
  <outline>
    <contour>
      <point x="534" y="761" type="line"/>
      <point x="338" y="761" type="line"/>
      <point x="383" y="954" type="line"/>
      <point x="579" y="954" type="line"/>
    </contour>
    <contour>
      <point x="128" y="-225" type="line"/>
      <point x="33" y="-225" type="line"/>
      <point x="247" y="264" type="line"/>
      <point x="444" y="264" type="line"/>
    </contour>
  </outline>
</glyph>
<glyph name="A" format="2">
  <advance width="1306"/>
  <unicode hex="0041"/>
  <outline>
    <contour>
      <point x="1126" y="0" type="line"/>
      <point x="959" y="0" type="line"/>
      <point x="922" y="307" type="line"/>
      <point x="301" y="307" type="line"/>
      <point x="122" y="0" type="line"/>
      <point x="-54" y="0" type="line"/>
      <point x="803" y="1413" type="line"/>
      <point x="924" y="1413" type="line"/>
    </contour>
    <contour>
      <point x="902" y="452" type="line"/>
      <point x="816" y="1180" type="line"/>
      <point x="387" y="452" type="line"/>
    </contour>
  </outline>
</glyph>
<glyph name="C" format="2">
  <advance width="1430"/>
  <unicode hex="0043"/>
  <outline>
    <contour>
      <point x="656" y="-20" type="qcurve" smooth="yes"/>
      <point x="483" y="-20"/>
      <point x="260" y="110"/>
      <point x="152" y="338"/>
      <point x="152" y="486" type="qcurve" smooth="yes"/>
      <point x="152" y="626"/>
      <point x="243" y="944"/>
      <point x="332" y="1083" type="qcurve" smooth="yes"/>
      <point x="437" y="1245"/>
      <point x="760" y="1436"/>
      <point x="967" y="1436" type="qcurve" smooth="yes"/>
      <point x="1095" y="1436"/>
      <point x="1310" y="1355"/>
      <point x="1448" y="1185"/>
      <point x="1464" y="1053" type="qcurve"/>
      <point x="1312" y="1007" type="line"/>
      <point x="1285" y="1293"/>
      <point x="954" y="1293" type="qcurve" smooth="yes"/>
      <point x="790" y="1293"/>
      <point x="663" y="1213" type="qcurve"/>
      <point x="531" y="1126"/>
      <point x="369" y="859"/>
      <point x="333" y="702" type="qcurve" smooth="yes"/>
      <point x="308" y="591"/>
      <point x="308" y="499" type="qcurve" smooth="yes"/>
      <point x="308" y="328"/>
      <point x="483" y="126"/>
      <point x="667" y="126" type="qcurve" smooth="yes"/>
      <point x="993" y="126"/>
      <point x="1174" y="428" type="qcurve"/>
      <point x="1307" y="351" type="line"/>
      <point x="1179" y="163"/>
      <point x="842" y="-20"/>
    </contour>
  </outline>
</glyph>
<glyph name="F" format="2">
  <advance width="1202"/>
  <unicode hex="0046"/>
  <outline>
    <contour>
      <point x="259" y="0" type="line"/>
      <point x="100" y="0" type="line"/>
      <point x="426" y="1413" type="line"/>
      <point x="1332" y="1413" type="line"/>
      <point x="1300" y="1276" type="line"/>
      <point x="553" y="1276" type="line"/>
      <point x="438" y="774" type="line"/>
      <point x="1097" y="774" type="line"/>
      <point x="1065" y="641" type="line"/>
      <point x="406" y="641" type="line"/>
    </contour>
  </outline>
</glyph>
<glyph name="I" format="2">
  <advance width="589"/>
  <unicode hex="0049"/>
  <outline>
    <contour>
      <point x="259" y="0" type="line"/>
      <point x="100" y="0" type="line"/>
      <point x="426" y="1413" type="line"/>
      <point x="585" y="1413" type="line"/>
    </contour>
  </outline>
</glyph>
<glyph name="K" format="2">
  <advance width="1460"/>
  <unicode hex="004B"/>
  <outline>
    <contour>
      <point x="1275" y="0" type="line"/>
      <point x="1096" y="0" type="line"/>
      <point x="789" y="757" type="line"/>
      <point x="350" y="390" type="line"/>
      <point x="259" y="0" type="line"/>
      <point x="100" y="0" type="line"/>
      <point x="426" y="1413" type="line"/>
      <point x="585" y="1413" type="line"/>
      <point x="392" y="584" type="line"/>
      <point x="1364" y="1413" type="line"/>
      <point x="1572" y="1413" type="line"/>
      <point x="908" y="856" type="line"/>
    </contour>
  </outline>
</glyph>
<glyph name="M" format="2">
  <advance width="1769"/>
  <unicode hex="004D"/>
  <outline>
    <contour>
      <point x="1439" y="0" type="line"/>
      <point x="1282" y="0" type="line"/>
      <point x="1579" y="1276" type="line"/>
      <point x="885" y="123" type="line"/>
      <point x="711" y="123" type="line"/>
      <point x="555" y="1276" type="line"/>
      <point x="259" y="0" type="line"/>
      <point x="100" y="0" type="line"/>
      <point x="426" y="1413" type="line"/>
      <point x="682" y="1413" type="line"/>
      <point x="827" y="278" type="line"/>
      <point x="1504" y="1413" type="line"/>
      <point x="1765" y="1413" type="line"/>
    </contour>
  </outline>
</glyph>
<glyph name="Q" format="2">
  <advance width="1555"/>
  <unicode hex="0051"/>
  <outline>
    <contour>
      <point x="1206" y="-97" type="line"/>
      <point x="1059" y="97" type="line"/>
      <point x="889" y="-20"/>
      <point x="652" y="-20" type="qcurve" smooth="yes"/>
      <point x="481" y="-20"/>
      <point x="259" y="111"/>
      <point x="151" y="342"/>
      <point x="151" y="491" type="qcurve" smooth="yes"/>
      <point x="151" y="634"/>
      <point x="243" y="946"/>
      <point x="331" y="1081" type="qcurve" smooth="yes"/>
      <point x="437" y="1243"/>
      <point x="761" y="1434"/>
      <point x="965" y="1434" type="qcurve" smooth="yes"/>
      <point x="1138" y="1434"/>
      <point x="1361" y="1303"/>
      <point x="1469" y="1072"/>
      <point x="1469" y="923" type="qcurve" smooth="yes"/>
      <point x="1469" y="741"/>
      <point x="1319" y="337"/>
      <point x="1171" y="191" type="qcurve"/>
      <point x="1321" y="-1" type="line"/>
    </contour>
    <contour>
      <point x="663" y="124" type="qcurve" smooth="yes"/>
      <point x="832" y="124"/>
      <point x="969" y="210" type="qcurve"/>
      <point x="818" y="410" type="line"/>
      <point x="929" y="507" type="line"/>
      <point x="1085" y="309" type="line"/>
      <point x="1191" y="428"/>
      <point x="1313" y="763"/>
      <point x="1313" y="917" type="qcurve" smooth="yes"/>
      <point x="1313" y="1086"/>
      <point x="1139" y="1289"/>
      <point x="954" y="1289" type="qcurve" smooth="yes"/>
      <point x="789" y="1289"/>
      <point x="662" y="1207" type="qcurve"/>
      <point x="529" y="1119"/>
      <point x="367" y="850"/>
      <point x="331" y="692" type="qcurve" smooth="yes"/>
      <point x="307" y="585"/>
      <point x="307" y="497" type="qcurve" smooth="yes"/>
      <point x="307" y="327"/>
      <point x="479" y="124"/>
    </contour>
  </outline>
</glyph>
<glyph name="R" format="2">
  <advance width="1227"/>
  <unicode hex="0052"/>
  <outline>
    <contour>
      <point x="1026" y="-2" type="line"/>
      <point x="855" y="-2" type="line"/>
      <point x="650" y="632" type="line"/>
      <point x="405" y="632" type="line"/>
      <point x="257" y="-2" type="line"/>
      <point x="98" y="-2" type="line"/>
      <point x="426" y="1411" type="line"/>
      <point x="824" y="1411" type="line" smooth="yes"/>
      <point x="927" y="1411"/>
      <point x="1093" y="1340"/>
      <point x="1191" y="1201"/>
      <point x="1191" y="1101" type="qcurve" smooth="yes"/>
      <point x="1191" y="910"/>
      <point x="1047" y="774" type="qcurve" smooth="yes"/>
      <point x="945" y="679"/>
      <point x="801" y="651" type="qcurve"/>
    </contour>
    <contour>
      <point x="704" y="778" type="line"/>
      <point x="822" y="784"/>
      <point x="1002" y="914"/>
      <point x="1031" y="1034" type="qcurve" smooth="yes"/>
      <point x="1038" y="1063"/>
      <point x="1038" y="1094" type="qcurve" smooth="yes"/>
      <point x="1038" y="1183"/>
      <point x="909" y="1271"/>
      <point x="805" y="1271" type="qcurve" smooth="yes"/>
      <point x="553" y="1271" type="line"/>
      <point x="440" y="778" type="line"/>
    </contour>
  </outline>
</glyph>
<glyph name="U" format="2">
  <advance width="1356"/>
  <unicode hex="0055"/>
  <outline>
    <contour>
      <point x="569" y="-20" type="qcurve" smooth="yes"/>
      <point x="366" y="-20"/>
      <point x="172" y="188"/>
      <point x="172" y="359" type="qcurve" smooth="yes"/>
      <point x="172" y="437"/>
      <point x="192" y="525" type="qcurve" smooth="yes"/>
      <point x="396" y="1413" type="line"/>
      <point x="555" y="1413" type="line"/>
      <point x="358" y="556" type="line"/>
      <point x="333" y="451"/>
      <point x="333" y="372" type="qcurve" smooth="yes"/>
      <point x="333" y="254"/>
      <point x="451" y="130"/>
      <point x="580" y="130" type="qcurve" smooth="yes"/>
      <point x="765" y="130"/>
      <point x="982" y="369"/>
      <point x="1029" y="570" type="qcurve" smooth="yes"/>
      <point x="1224" y="1413" type="line"/>
      <point x="1383" y="1413" type="line"/>
      <point x="1178" y="521" type="line" smooth="yes"/>
      <point x="1142" y="364"/>
      <point x="982" y="121"/>
      <point x="735" y="-20"/>
    </contour>
  </outline>
</glyph>
<glyph name="W" format="2">
  <advance width="1973"/>
  <unicode hex="0057"/>
  <outline>
    <contour>
      <point x="1339" y="0" type="line"/>
      <point x="1165" y="0" type="line"/>
      <point x="1094" y="1158" type="line"/>
      <point x="482" y="0" type="line"/>
      <point x="308" y="0" type="line"/>
      <point x="237" y="1413" type="line"/>
      <point x="399" y="1413" type="line"/>
      <point x="454" y="194" type="line"/>
      <point x="1086" y="1413" type="line"/>
      <point x="1214" y="1413" type="line"/>
      <point x="1285" y="194" type="line"/>
      <point x="1900" y="1413" type="line"/>
      <point x="2063" y="1413" type="line"/>
    </contour>
  </outline>
</glyph>
<glyph name="Y" format="2">
  <advance width="1341"/>
  <unicode hex="0059"/>
  <outline>
    <contour>
      <point x="634" y="0" type="line"/>
      <point x="480" y="0" type="line"/>
      <point x="609" y="553" type="line"/>
      <point x="270" y="1413" type="line"/>
      <point x="450" y="1413" type="line"/>
      <point x="715" y="711" type="line"/>
      <point x="1310" y="1413" type="line"/>
      <point x="1497" y="1413" type="line"/>
      <point x="763" y="553" type="line"/>
    </contour>
  </outline>
</glyph>
<glyph name="backslash" format="2">
  <advance width="937"/>
  <unicode hex="005C"/>
  <outline>
    <contour>
      <point x="705" y="-430" type="line"/>
      <point x="557" y="-430" type="line"/>
      <point x="251" y="1516" type="line"/>
      <point x="402" y="1516" type="line"/>
    </contour>
  </outline>
</glyph>
<glyph name="bracketright" format="2">
  <advance width="641"/>
  <unicode hex="005D"/>
  <outline>
    <contour>
      <point x="297" y="-93" type="line"/>
      <point x="-65" y="-93" type="line"/>
      <point x="-43" y="0" type="line"/>
      <point x="193" y="0" type="line"/>
      <point x="519" y="1413" type="line"/>
      <point x="283" y="1413" type="line"/>
      <point x="304" y="1504" type="line"/>
      <point x="665" y="1504" type="line"/>
    </contour>
  </outline>
</glyph>
<glyph name="c" format="2">
  <advance width="981"/>
  <unicode hex="0063"/>
  <outline>
    <contour>
      <point x="421" y="-20" type="qcurve" smooth="yes"/>
      <point x="305" y="-20"/>
      <point x="153" y="77"/>
      <point x="78" y="246"/>
      <point x="78" y="353" type="qcurve" smooth="yes"/>
      <point x="78" y="448"/>
      <point x="140" y="662"/>
      <point x="204" y="762" type="qcurve" smooth="yes"/>
      <point x="251" y="836"/>
      <point x="379" y="950"/>
      <point x="540" y="1016"/>
      <point x="635" y="1016" type="qcurve" smooth="yes"/>
      <point x="729" y="1016"/>
      <point x="868" y="947"/>
      <point x="955" y="827"/>
      <point x="972" y="748" type="qcurve"/>
      <point x="823" y="701" type="line"/>
      <point x="820" y="794"/>
      <point x="711" y="888"/>
      <point x="628" y="888" type="qcurve" smooth="yes"/>
      <point x="525" y="888"/>
      <point x="370" y="769"/>
      <point x="267" y="586"/>
      <point x="243" y="483" type="qcurve"/>
      <point x="226" y="403"/>
      <point x="226" y="342" type="qcurve" smooth="yes"/>
      <point x="226" y="237"/>
      <point x="319" y="107"/>
      <point x="424" y="107" type="qcurve" smooth="yes"/>
      <point x="522" y="107"/>
      <point x="687" y="220"/>
      <point x="729" y="308" type="qcurve"/>
      <point x="847" y="238" type="line"/>
      <point x="773" y="115"/>
      <point x="554" y="-20"/>
    </contour>
  </outline>
</glyph>
<glyph name="f" format="2">
  <advance width="686"/>
  <unicode hex="0066"/>
  <outline>
    <contour>
      <point x="251" y="0" type="line"/>
      <point x="103" y="0" type="line"/>
      <point x="305" y="877" type="line"/>
      <point x="122" y="877" type="line"/>
      <point x="150" y="997" type="line"/>
      <point x="333" y="997" type="line"/>
      <point x="377" y="1190" type="line"/>
      <point x="408" y="1314"/>
      <point x="581" y="1434"/>
      <point x="693" y="1434" type="qcurve" smooth="yes"/>
      <point x="779" y="1434"/>
      <point x="854" y="1393" type="qcurve"/>
      <point x="796" y="1284" type="line"/>
      <point x="743" y="1310"/>
      <point x="689" y="1310" type="qcurve" smooth="yes"/>
      <point x="630" y="1310"/>
      <point x="538" y="1243"/>
      <point x="521" y="1172" type="qcurve" smooth="yes"/>
      <point x="481" y="999" type="line"/>
      <point x="768" y="999" type="line"/>
      <point x="741" y="877" type="line"/>
      <point x="453" y="877" type="line"/>
    </contour>
  </outline>
</glyph>
<glyph name="j" format="2">
  <advance width="497"/>
  <unicode hex="006A"/>
  <outline>
    <contour>
      <point x="502" y="1225" type="line"/>
      <point x="328" y="1225" type="line"/>
      <point x="374" y="1418" type="line"/>
      <point x="548" y="1418" type="line"/>
    </contour>
    <contour>
      <point x="-136" y="-438" type="qcurve" smooth="yes"/>
      <point x="-208" y="-438"/>
      <point x="-287" y="-405" type="qcurve"/>
      <point x="-240" y="-297" type="line"/>
      <point x="-219" y="-304"/>
      <point x="-158" y="-312"/>
      <point x="-134" y="-312" type="qcurve" smooth="yes"/>
      <point x="-70" y="-312"/>
      <point x="5" y="-228"/>
      <point x="18" y="-170" type="qcurve" smooth="yes"/>
      <point x="287" y="999" type="line"/>
      <point x="440" y="999" type="line"/>
      <point x="172" y="-162" type="line"/>
      <point x="144" y="-289"/>
      <point x="-6" y="-438"/>
    </contour>
  </outline>
</glyph>
<glyph name="l" format="2">
  <advance width="524"/>
  <unicode hex="006C"/>
  <outline>
    <contour>
      <point x="223" y="-20" type="qcurve" smooth="yes"/>
      <point x="150" y="-20"/>
      <point x="85" y="41"/>
      <point x="85" y="99" type="qcurve" smooth="yes"/>
      <point x="85" y="140"/>
      <point x="101" y="209" type="qcurve" smooth="yes"/>
      <point x="380" y="1413" type="line"/>
      <point x="530" y="1413" type="line"/>
      <point x="242" y="169" type="line" smooth="yes"/>
      <point x="239" y="156"/>
      <point x="239" y="145" type="qcurve" smooth="yes"/>
      <point x="239" y="105"/>
      <point x="285" y="105" type="qcurve" smooth="yes"/>
      <point x="308" y="105"/>
      <point x="372" y="122" type="qcurve"/>
      <point x="355" y="-2" type="line"/>
      <point x="328" y="-10"/>
      <point x="255" y="-20"/>
    </contour>
  </outline>
</glyph>
<glyph name="n" format="2">
  <advance width="1125"/>
  <unicode hex="006E"/>
  <outline>
    <contour>
      <point x="862" y="0" type="line"/>
      <point x="713" y="0" type="line"/>
      <point x="851" y="599" type="line" smooth="yes"/>
      <point x="866" y="666"/>
      <point x="866" y="716" type="qcurve" smooth="yes"/>
      <point x="866" y="874"/>
      <point x="713" y="874" type="qcurve" smooth="yes"/>
      <point x="626" y="874"/>
      <point x="465" y="782"/>
      <point x="353" y="640"/>
      <point x="334" y="561" type="qcurve"/>
      <point x="205" y="0" type="line"/>
      <point x="55" y="0" type="line"/>
      <point x="285" y="999" type="line"/>
      <point x="434" y="999" type="line"/>
      <point x="397" y="848" type="line"/>
      <point x="466" y="928"/>
      <point x="649" y="1016"/>
      <point x="741" y="1016" type="qcurve" smooth="yes"/>
      <point x="883" y="1016"/>
      <point x="1018" y="865"/>
      <point x="1018" y="738" type="qcurve" smooth="yes"/>
      <point x="1018" y="674"/>
      <point x="1001" y="600" type="qcurve" smooth="yes"/>
    </contour>
  </outline>
</glyph>
<glyph name="p" format="2">
  <advance width="1134"/>
  <unicode hex="0070"/>
  <outline>
    <contour>
      <point x="104" y="-438" type="line"/>
      <point x="-45" y="-438" type="line"/>
      <point x="287" y="999" type="line"/>
      <point x="435" y="999" type="line"/>
      <point x="403" y="870" type="line"/>
      <point x="543" y="1020"/>
      <point x="740" y="1020" type="qcurve" smooth="yes"/>
      <point x="844" y="1020"/>
      <point x="983" y="928"/>
      <point x="1053" y="765"/>
      <point x="1053" y="660" type="qcurve" smooth="yes"/>
      <point x="1053" y="556"/>
      <point x="989" y="329"/>
      <point x="927" y="229" type="qcurve" smooth="yes"/>
      <point x="858" y="117"/>
      <point x="653" y="-20"/>
      <point x="524" y="-20" type="qcurve" smooth="yes"/>
      <point x="414" y="-20"/>
      <point x="275" y="69"/>
      <point x="242" y="143" type="qcurve"/>
    </contour>
    <contour>
      <point x="490" y="111" type="qcurve" smooth="yes"/>
      <point x="593" y="111"/>
      <point x="755" y="222"/>
      <point x="863" y="403"/>
      <point x="887" y="514" type="qcurve"/>
      <point x="904" y="587"/>
      <point x="904" y="650" type="qcurve" smooth="yes"/>
      <point x="904" y="719"/>
      <point x="861" y="826"/>
      <point x="768" y="888"/>
      <point x="693" y="888" type="qcurve" smooth="yes"/>
      <point x="594" y="888"/>
      <point x="436" y="776"/>
      <point x="329" y="594"/>
      <point x="305" y="485" type="qcurve"/>
      <point x="287" y="413"/>
      <point x="287" y="346" type="qcurve" smooth="yes"/>
      <point x="287" y="278"/>
      <point x="328" y="172"/>
      <point x="418" y="111"/>
    </contour>
  </outline>
</glyph>
<glyph name="q" format="2">
  <advance width="1133"/>
  <unicode hex="0071"/>
  <outline>
    <contour>
      <point x="744" y="-438" type="line"/>
      <point x="594" y="-438" type="line"/>
      <point x="729" y="131" type="line"/>
      <point x="656" y="55"/>
      <point x="490" y="-20"/>
      <point x="391" y="-20" type="qcurve" smooth="yes"/>
      <point x="286" y="-20"/>
      <point x="148" y="74"/>
      <point x="79" y="238"/>
      <point x="79" y="342" type="qcurve" smooth="yes"/>
      <point x="79" y="445"/>
      <point x="144" y="672"/>
      <point x="206" y="771" type="qcurve" smooth="yes"/>
      <point x="275" y="882"/>
      <point x="480" y="1020"/>
      <point x="608" y="1020" type="qcurve" smooth="yes"/>
      <point x="817" y="1020"/>
      <point x="890" y="858" type="qcurve"/>
      <point x="927" y="999" type="line"/>
      <point x="1076" y="999" type="line"/>
    </contour>
    <contour>
      <point x="435" y="111" type="qcurve" smooth="yes"/>
      <point x="538" y="111"/>
      <point x="695" y="221"/>
      <point x="800" y="403"/>
      <point x="825" y="514" type="qcurve" smooth="yes"/>
      <point x="843" y="594"/>
      <point x="843" y="655" type="qcurve" smooth="yes"/>
      <point x="843" y="723"/>
      <point x="802" y="827"/>
      <point x="712" y="887"/>
      <point x="639" y="887" type="qcurve" smooth="yes"/>
      <point x="538" y="887"/>
      <point x="379" y="776"/>
      <point x="272" y="594"/>
      <point x="248" y="485" type="qcurve" smooth="yes"/>
      <point x="231" y="411"/>
      <point x="231" y="346" type="qcurve" smooth="yes"/>
      <point x="231" y="278"/>
      <point x="272" y="172"/>
      <point x="362" y="111"/>
    </contour>
  </outline>
</glyph>
<glyph name="r" format="2">
  <advance width="802"/>
  <unicode hex="0072"/>
  <outline>
    <contour>
      <point x="206" y="0" type="line"/>
      <point x="55" y="0" type="line"/>
      <point x="285" y="999" type="line"/>
      <point x="436" y="999" type="line"/>
      <point x="394" y="812" type="line"/>
      <point x="445" y="911"/>
      <point x="630" y="1014"/>
      <point x="714" y="1014" type="qcurve" smooth="yes"/>
      <point x="756" y="1014"/>
      <point x="849" y="987"/>
      <point x="878" y="963" type="qcurve"/>
      <point x="808" y="846" type="line"/>
      <point x="763" y="887"/>
      <point x="692" y="887" type="qcurve" smooth="yes"/>
      <point x="599" y="887"/>
      <point x="444" y="762"/>
      <point x="332" y="550"/>
      <point x="302" y="418" type="qcurve" smooth="yes"/>
    </contour>
  </outline>
</glyph>
<glyph name="s" format="2">
  <advance width="876"/>
  <unicode hex="0073"/>
  <outline>
    <contour>
      <point x="363" y="-20" type="qcurve" smooth="yes"/>
      <point x="264" y="-20"/>
      <point x="115" y="54"/>
      <point x="26" y="169"/>
      <point x="18" y="234" type="qcurve"/>
      <point x="154" y="285" type="line"/>
      <point x="162" y="206"/>
      <point x="288" y="113"/>
      <point x="375" y="113" type="qcurve" smooth="yes"/>
      <point x="445" y="113"/>
      <point x="548" y="169"/>
      <point x="604" y="258"/>
      <point x="604" y="307" type="qcurve" smooth="yes"/>
      <point x="604" y="394"/>
      <point x="515" y="430" type="qcurve" smooth="yes"/>
      <point x="479" y="445"/>
      <point x="422" y="462" type="qcurve" smooth="yes"/>
      <point x="341" y="487"/>
      <point x="280" y="514" type="qcurve"/>
      <point x="159" y="572"/>
      <point x="159" y="716" type="qcurve" smooth="yes"/>
      <point x="159" y="813"/>
      <point x="254" y="946"/>
      <point x="411" y="1014"/>
      <point x="504" y="1014" type="qcurve" smooth="yes"/>
      <point x="590" y="1014"/>
      <point x="721" y="958"/>
      <point x="808" y="868"/>
      <point x="827" y="814" type="qcurve"/>
      <point x="701" y="760" type="line"/>
      <point x="683" y="818"/>
      <point x="582" y="888"/>
      <point x="497" y="888" type="qcurve" smooth="yes"/>
      <point x="441" y="888"/>
      <point x="351" y="853"/>
      <point x="298" y="781"/>
      <point x="298" y="725" type="qcurve" smooth="yes"/>
      <point x="298" y="679"/>
      <point x="349" y="621"/>
      <point x="425" y="590"/>
      <point x="491" y="570" type="qcurve" smooth="yes"/>
      <point x="576" y="545"/>
      <point x="681" y="491"/>
      <point x="715" y="445" type="qcurve" smooth="yes"/>
      <point x="752" y="395"/>
      <point x="752" y="312" type="qcurve" smooth="yes"/>
      <point x="752" y="225"/>
      <point x="648" y="73"/>
      <point x="471" y="-20"/>
    </contour>
  </outline>
</glyph>
<glyph name="w" format="2">
  <advance width="1427"/>
  <unicode hex="0077"/>
  <outline>
    <contour>
      <point x="363" y="-1" type="line"/>
      <point x="217" y="-1" type="line"/>
      <point x="170" y="999" type="line"/>
      <point x="326" y="999" type="line"/>
      <point x="344" y="197" type="line"/>
      <point x="759" y="999" type="line"/>
      <point x="897" y="999" type="line"/>
      <point x="939" y="199" type="line"/>
      <point x="1329" y="999" type="line"/>
      <point x="1490" y="999" type="line"/>
      <point x="979" y="0" type="line"/>
      <point x="833" y="0" type="line"/>
      <point x="790" y="811" type="line"/>
    </contour>
  </outline>
</glyph>
<glyph name="x" format="2">
  <advance width="927"/>
  <unicode hex="0078"/>
  <outline>
    <contour>
      <point x="760" y="0" type="line"/>
      <point x="587" y="0" type="line"/>
      <point x="442" y="378" type="line"/>
      <point x="119" y="0" type="line"/>
      <point x="-68" y="0" type="line"/>
      <point x="387" y="504" type="line"/>
      <point x="167" y="999" type="line"/>
      <point x="344" y="999" type="line"/>
      <point x="490" y="629" type="line"/>
      <point x="812" y="999" type="line"/>
      <point x="995" y="999" type="line"/>
      <point x="545" y="504" type="line"/>
    </contour>
  </outline>
</glyph>
<glyph name="y" format="2">
  <advance width="985"/>
  <unicode hex="0079"/>
  <outline>
    <contour>
      <point x="197" y="-430" type="line"/>
      <point x="36" y="-430" type="line"/>
      <point x="311" y="5" type="line"/>
      <point x="156" y="999" type="line"/>
      <point x="319" y="999" type="line"/>
      <point x="421" y="182" type="line"/>
      <point x="896" y="999" type="line"/>
      <point x="1062" y="999" type="line"/>
    </contour>
  </outline>
</glyph>
<glyph name="braceleft" format="2">
  <advance width="604"/>
  <unicode hex="007B"/>
  <outline>
    <contour>
      <point x="342" y="-120" type="line"/>
      <point x="270" y="-120" type="line" smooth="yes"/>
      <point x="171" y="-120"/>
      <point x="137" y="-26" type="qcurve"/>
      <point x="120" y="-8"/>
      <point x="120" y="35" type="qcurve" smooth="yes"/>
      <point x="120" y="70"/>
      <point x="130" y="113" type="qcurve" smooth="yes"/>
      <point x="217" y="493"/>
      <point x="217" y="500" type="qcurve" smooth="yes"/>
      <point x="217" y="534"/>
      <point x="162" y="579"/>
      <point x="116" y="596" type="qcurve"/>
      <point x="131" y="712" type="line"/>
      <point x="276" y="749"/>
      <point x="305" y="869" type="qcurve"/>
      <point x="403" y="1297" type="line" smooth="yes"/>
      <point x="427" y="1405"/>
      <point x="546" y="1504"/>
      <point x="654" y="1504" type="qcurve" smooth="yes"/>
      <point x="730" y="1504"/>
      <point x="754" y="1503" type="qcurve"/>
      <point x="746" y="1415" type="line"/>
      <point x="725" y="1419"/>
      <point x="689" y="1419" type="qcurve" smooth="yes"/>
      <point x="631" y="1419"/>
      <point x="559" y="1381"/>
      <point x="551" y="1349" type="qcurve"/>
      <point x="435" y="843" type="line"/>
      <point x="408" y="706"/>
      <point x="208" y="639" type="qcurve"/>
      <point x="278" y="613"/>
      <point x="352" y="546"/>
      <point x="352" y="499" type="qcurve" smooth="yes"/>
      <point x="352" y="490"/>
      <point x="348" y="470" type="qcurve"/>
      <point x="264" y="106" type="line" smooth="yes"/>
      <point x="257" y="77"/>
      <point x="257" y="50" type="qcurve" smooth="yes"/>
      <point x="257" y="-36"/>
      <point x="349" y="-36" type="qcurve" smooth="yes"/>
      <point x="373" y="-36"/>
      <point x="402" y="-27" type="qcurve"/>
      <point x="392" y="-119" type="line"/>
    </contour>
  </outline>
</glyph>
<glyph name="bar" format="2">
  <advance width="628"/>
  <unicode hex="007C"/>
  <outline>
    <contour>
      <point x="135" y="-512" type="line"/>
      <point x="25" y="-512" type="line"/>
      <point x="498" y="1534" type="line"/>
      <point x="608" y="1534" type="line"/>
    </contour>
  </outline>
</glyph>
<glyph name="braceright" format="2">
  <advance width="604"/>
  <unicode hex="007D"/>
  <outline>
    <contour>
      <point x="61" y="-120" type="qcurve" smooth="yes"/>
      <point x="-11" y="-120" type="line"/>
      <point x="-62" y="-119" type="line"/>
      <point x="-54" y="-31" type="line"/>
      <point x="-35" y="-36"/>
      <point x="-20" y="-36" type="qcurve" smooth="yes"/>
      <point x="123" y="-36"/>
      <point x="162" y="120" type="qcurve"/>
      <point x="245" y="484" type="line"/>
      <point x="265" y="591"/>
      <point x="462" y="650" type="qcurve"/>
      <point x="325" y="707"/>
      <point x="325" y="809" type="qcurve" smooth="yes"/>
      <point x="325" y="831"/>
      <point x="331" y="856" type="qcurve" smooth="yes"/>
      <point x="448" y="1363"/>
      <point x="450" y="1378" type="qcurve"/>
      <point x="450" y="1419"/>
      <point x="377" y="1419" type="qcurve" smooth="yes"/>
      <point x="330" y="1419"/>
      <point x="292" y="1412" type="qcurve"/>
      <point x="300" y="1503" type="line"/>
      <point x="328" y="1504"/>
      <point x="401" y="1504" type="qcurve" smooth="yes"/>
      <point x="576" y="1504"/>
      <point x="576" y="1359" type="qcurve" smooth="yes"/>
      <point x="576" y="1328"/>
      <point x="566" y="1283" type="qcurve" smooth="yes"/>
      <point x="467" y="855" type="line" smooth="yes"/>
      <point x="461" y="831"/>
      <point x="461" y="811" type="qcurve" smooth="yes"/>
      <point x="461" y="733"/>
      <point x="557" y="707" type="qcurve"/>
      <point x="543" y="591" type="line"/>
      <point x="484" y="573"/>
      <point x="389" y="511"/>
      <point x="377" y="466" type="qcurve"/>
      <point x="292" y="99" type="line" smooth="yes"/>
      <point x="268" y="-7"/>
      <point x="233" y="-52" type="qcurve"/>
      <point x="191" y="-87"/>
      <point x="112" y="-120"/>
    </contour>
  </outline>
</glyph>
<glyph name="exclamdown" format="2">
  <advance width="635"/>
  <unicode hex="00A1"/>
  <outline>
    <contour>
      <point x="485" y="806" type="line"/>
      <point x="289" y="806" type="line"/>
      <point x="333" y="999" type="line"/>
      <point x="529" y="999" type="line"/>
    </contour>
    <contour>
      <point x="186" y="-436" type="line"/>
      <point x="14" y="-436" type="line"/>
      <point x="288" y="619" type="line"/>
      <point x="401" y="619" type="line"/>
    </contour>
  </outline>
</glyph>
<glyph name="currency" format="2">
  <advance width="1131"/>
  <unicode hex="00A4"/>
  <outline>
    <contour>
      <point x="863" y="167" type="line"/>
      <point x="783" y="267" type="line"/>
      <point x="650" y="181"/>
      <point x="508" y="181" type="qcurve" smooth="yes"/>
      <point x="360" y="181"/>
      <point x="254" y="276" type="qcurve"/>
      <point x="122" y="167" type="line"/>
      <point x="48" y="264" type="line"/>
      <point x="181" y="372" type="line"/>
      <point x="140" y="451"/>
      <point x="140" y="544" type="qcurve" smooth="yes"/>
      <point x="140" y="633"/>
      <point x="218" y="820"/>
      <point x="298" y="899" type="qcurve"/>
      <point x="220" y="995" type="line"/>
      <point x="331" y="1094" type="line"/>
      <point x="410" y="992" type="line"/>
      <point x="478" y="1036"/>
      <point x="621" y="1079"/>
      <point x="688" y="1079" type="qcurve" smooth="yes"/>
      <point x="759" y="1079"/>
      <point x="888" y="1032"/>
      <point x="938" y="985" type="qcurve"/>
      <point x="1068" y="1092" type="line"/>
      <point x="1143" y="999" type="line"/>
      <point x="1015" y="892" type="line"/>
      <point x="1055" y="816"/>
      <point x="1055" y="722" type="qcurve" smooth="yes"/>
      <point x="1055" y="629"/>
      <point x="975" y="440"/>
      <point x="896" y="360" type="qcurve"/>
      <point x="975" y="264" type="line"/>
    </contour>
    <contour>
      <point x="507" y="314" type="qcurve" smooth="yes"/>
      <point x="570" y="314"/>
      <point x="707" y="367"/>
      <point x="769" y="418" type="qcurve" smooth="yes"/>
      <point x="846" y="480"/>
      <point x="927" y="639"/>
      <point x="927" y="716" type="qcurve" smooth="yes"/>
      <point x="927" y="791"/>
      <point x="862" y="893"/>
      <point x="753" y="946"/>
      <point x="688" y="946" type="qcurve" smooth="yes"/>
      <point x="625" y="946"/>
      <point x="490" y="895"/>
      <point x="426" y="842" type="qcurve"/>
      <point x="348" y="780"/>
      <point x="268" y="618"/>
      <point x="268" y="541" type="qcurve" smooth="yes"/>
      <point x="268" y="458"/>
      <point x="312" y="399" type="qcurve"/>
      <point x="350" y="356"/>
      <point x="451" y="314"/>
    </contour>
  </outline>
</glyph>
<glyph name="brokenbar" format="2">
  <advance width="625"/>
  <unicode hex="00A6"/>
  <outline>
    <contour>
      <point x="419" y="731" type="line"/>
      <point x="312" y="731" type="line"/>
      <point x="484" y="1475" type="line"/>
      <point x="591" y="1475" type="line"/>
    </contour>
    <contour>
      <point x="180" y="-307" type="line"/>
      <point x="72" y="-307" type="line"/>
      <point x="240" y="420" type="line"/>
      <point x="348" y="420" type="line"/>
    </contour>
  </outline>
</glyph>
<glyph name="dieresis" format="2">
  <advance width="835"/>
  <unicode hex="00A8"/>
  <outline>
    <contour>
      <point x="511" y="1221" type="line"/>
      <point x="343" y="1221" type="line"/>
      <point x="387" y="1413" type="line"/>
      <point x="556" y="1413" type="line"/>
    </contour>
    <contour>
      <point x="848" y="1221" type="line"/>
      <point x="679" y="1221" type="line"/>
      <point x="723" y="1413" type="line"/>
      <point x="892" y="1413" type="line"/>
    </contour>
  </outline>
</glyph>
<glyph name="copyright" format="2">
  <advance width="1801"/>
  <unicode hex="00A9"/>
  <outline>
    <contour>
      <point x="948" y="-51" type="qcurve" smooth="yes"/>
      <point x="805" y="-51"/>
      <point x="556" y="46"/>
      <point x="361" y="215"/>
      <point x="296" y="327" type="qcurve" smooth="yes"/>
      <point x="195" y="501"/>
      <point x="195" y="707" type="qcurve" smooth="yes"/>
      <point x="195" y="850"/>
      <point x="291" y="1100"/>
      <point x="459" y="1296"/>
      <point x="570" y="1362" type="qcurve" smooth="yes"/>
      <point x="743" y="1464"/>
      <point x="948" y="1464" type="qcurve" smooth="yes"/>
      <point x="1090" y="1464"/>
      <point x="1338" y="1367"/>
      <point x="1533" y="1198"/>
      <point x="1599" y="1086" type="qcurve" smooth="yes"/>
      <point x="1700" y="912"/>
      <point x="1700" y="707" type="qcurve" smooth="yes"/>
      <point x="1700" y="563"/>
      <point x="1604" y="313"/>
      <point x="1435" y="117"/>
      <point x="1325" y="51" type="qcurve" smooth="yes"/>
      <point x="1152" y="-51"/>
    </contour>
    <contour>
      <point x="948" y="69" type="qcurve" smooth="yes"/>
      <point x="1065" y="69"/>
      <point x="1273" y="152"/>
      <point x="1438" y="296"/>
      <point x="1494" y="391" type="qcurve" smooth="yes"/>
      <point x="1580" y="537"/>
      <point x="1580" y="707" type="qcurve" smooth="yes"/>
      <point x="1580" y="825"/>
      <point x="1498" y="1034"/>
      <point x="1355" y="1200"/>
      <point x="1262" y="1257" type="qcurve"/>
      <point x="1116" y="1344"/>
      <point x="948" y="1344" type="qcurve" smooth="yes"/>
      <point x="830" y="1344"/>
      <point x="622" y="1261"/>
      <point x="456" y="1117"/>
      <point x="401" y="1023" type="qcurve" smooth="yes"/>
      <point x="314" y="876"/>
      <point x="314" y="707" type="qcurve" smooth="yes"/>
      <point x="314" y="588"/>
      <point x="396" y="379"/>
      <point x="539" y="213"/>
      <point x="633" y="157" type="qcurve" smooth="yes"/>
      <point x="779" y="69"/>
    </contour>
    <contour>
      <point x="964" y="300" type="qcurve" smooth="yes"/>
      <point x="848" y="300"/>
      <point x="690" y="409"/>
      <point x="611" y="592"/>
      <point x="611" y="705" type="qcurve" smooth="yes"/>
      <point x="611" y="814"/>
      <point x="688" y="998"/>
      <point x="844" y="1109"/>
      <point x="964" y="1109" type="qcurve" smooth="yes"/>
      <point x="1062" y="1109"/>
      <point x="1226" y="1014"/>
      <point x="1271" y="919" type="qcurve"/>
      <point x="1162" y="873" type="line"/>
      <point x="1132" y="932"/>
      <point x="1028" y="990"/>
      <point x="964" y="990" type="qcurve" smooth="yes"/>
      <point x="883" y="990"/>
      <point x="778" y="912"/>
      <point x="727" y="782"/>
      <point x="727" y="705" type="qcurve" smooth="yes"/>
      <point x="727" y="630"/>
      <point x="776" y="500"/>
      <point x="880" y="421"/>
      <point x="962" y="421" type="qcurve" smooth="yes"/>
      <point x="1026" y="421"/>
      <point x="1131" y="480"/>
      <point x="1160" y="539" type="qcurve"/>
      <point x="1271" y="492" type="line"/>
      <point x="1225" y="396"/>
      <point x="1064" y="300"/>
    </contour>
  </outline>
</glyph>
<glyph name="guillemotleft" format="2">
  <advance width="972"/>
  <unicode hex="00AB"/>
  <outline>
    <contour>
      <point x="368" y="185" type="line"/>
      <point x="72" y="512" type="line"/>
      <point x="515" y="837" type="line"/>
      <point x="481" y="675" type="line"/>
      <point x="248" y="512" type="line"/>
      <point x="402" y="347" type="line"/>
    </contour>
    <contour>
      <point x="732" y="185" type="line"/>
      <point x="435" y="512" type="line"/>
      <point x="879" y="837" type="line"/>
      <point x="845" y="675" type="line"/>
      <point x="611" y="512" type="line"/>
      <point x="766" y="347" type="line"/>
    </contour>
  </outline>
</glyph>
<glyph name="logicalnot" format="2">
  <advance width="1292"/>
  <unicode hex="00AC"/>
  <outline>
    <contour>
      <point x="1036" y="291" type="line"/>
      <point x="896" y="291" type="line"/>
      <point x="896" y="663" type="line"/>
      <point x="158" y="663" type="line"/>
      <point x="158" y="797" type="line"/>
      <point x="1036" y="797" type="line"/>
    </contour>
  </outline>
</glyph>
<glyph name="sfthyphen" format="2">
  <advance width="982"/>
  <unicode hex="00AD"/>
  <outline>
    <contour>
      <point x="838" y="578" type="line"/>
      <point x="181" y="578" type="line"/>
      <point x="208" y="692" type="line"/>
      <point x="864" y="692" type="line"/>
    </contour>
  </outline>
</glyph>
<glyph name="plusminus" format="2">
  <advance width="1326"/>
  <unicode hex="00B1"/>
  <outline>
    <contour>
      <point x="720" y="106" type="line"/>
      <point x="606" y="106" type="line"/>
      <point x="606" y="569" type="line"/>
      <point x="150" y="569" type="line"/>
      <point x="150" y="682" type="line"/>
      <point x="606" y="682" type="line"/>
      <point x="606" y="1143" type="line"/>
      <point x="720" y="1143" type="line"/>
      <point x="720" y="682" type="line"/>
      <point x="1177" y="682" type="line"/>
      <point x="1177" y="569" type="line"/>
      <point x="720" y="569" type="line"/>
    </contour>
    <contour>
      <point x="1176" y="-114" type="line"/>
      <point x="150" y="-114" type="line"/>
      <point x="150" y="0" type="line"/>
      <point x="1176" y="0" type="line"/>
    </contour>
  </outline>
</glyph>
<glyph name="twosuperior" format="2">
  <advance width="805"/>
  <unicode hex="00B2"/>
  <outline>
    <contour>
      <point x="643" y="486" type="line"/>
      <point x="-8" y="486" type="line"/>
      <point x="11" y="594" type="line"/>
      <point x="231" y="712"/>
      <point x="383" y="844" type="qcurve"/>
      <point x="496" y="933"/>
      <point x="626" y="1086"/>
      <point x="645" y="1171" type="qcurve"/>
      <point x="651" y="1194"/>
      <point x="651" y="1215" type="qcurve" smooth="yes"/>
      <point x="651" y="1224" type="line" smooth="yes"/>
      <point x="651" y="1278"/>
      <point x="588" y="1335"/>
      <point x="529" y="1335" type="qcurve" smooth="yes"/>
      <point x="441" y="1335"/>
      <point x="308" y="1212"/>
      <point x="278" y="1110" type="qcurve"/>
      <point x="178" y="1129" type="line"/>
      <point x="201" y="1227"/>
      <point x="304" y="1368"/>
      <point x="453" y="1441"/>
      <point x="541" y="1441" type="qcurve" smooth="yes"/>
      <point x="615" y="1441"/>
      <point x="720" y="1392"/>
      <point x="775" y="1302"/>
      <point x="775" y="1240" type="qcurve" smooth="yes"/>
      <point x="775" y="1206"/>
      <point x="766" y="1166" type="qcurve"/>
      <point x="742" y="1069"/>
      <point x="588" y="884"/>
      <point x="448" y="770" type="qcurve"/>
      <point x="355" y="700"/>
      <point x="240" y="627"/>
      <point x="176" y="593" type="qcurve" smooth="yes"/>
      <point x="160" y="584" type="line"/>
      <point x="664" y="587" type="line"/>
    </contour>
  </outline>
</glyph>
<glyph name="threesuperior" format="2">
  <advance width="823"/>
  <unicode hex="00B3"/>
  <outline>
    <contour>
      <point x="326" y="466" type="qcurve" smooth="yes"/>
      <point x="247" y="466"/>
      <point x="120" y="514"/>
      <point x="47" y="611"/>
      <point x="47" y="684" type="qcurve" smooth="yes"/>
      <point x="47" y="719"/>
      <point x="57" y="756" type="qcurve"/>
      <point x="166" y="756" type="line"/>
      <point x="160" y="735"/>
      <point x="160" y="711" type="qcurve" smooth="yes"/>
      <point x="160" y="641"/>
      <point x="261" y="570"/>
      <point x="335" y="570" type="qcurve" smooth="yes"/>
      <point x="425" y="570"/>
      <point x="583" y="671"/>
      <point x="609" y="764" type="qcurve"/>
      <point x="614" y="785"/>
      <point x="614" y="808" type="qcurve" smooth="yes"/>
      <point x="614" y="873"/>
      <point x="518" y="933"/>
      <point x="445" y="933" type="qcurve" smooth="yes"/>
      <point x="377" y="933" type="line"/>
      <point x="399" y="1039" type="line"/>
      <point x="460" y="1039" type="line" smooth="yes"/>
      <point x="532" y="1039"/>
      <point x="642" y="1121"/>
      <point x="662" y="1195" type="qcurve" smooth="yes"/>
      <point x="667" y="1213"/>
      <point x="667" y="1232" type="qcurve" smooth="yes"/>
      <point x="667" y="1286"/>
      <point x="590" y="1341"/>
      <point x="533" y="1341" type="qcurve" smooth="yes"/>
      <point x="453" y="1341"/>
      <point x="327" y="1251"/>
      <point x="306" y="1179" type="qcurve"/>
      <point x="217" y="1199" type="line"/>
      <point x="248" y="1320"/>
      <point x="431" y="1448"/>
      <point x="546" y="1448" type="qcurve" smooth="yes"/>
      <point x="649" y="1448"/>
      <point x="778" y="1343"/>
      <point x="778" y="1254" type="qcurve" smooth="yes"/>
      <point x="778" y="1172"/>
      <point x="682" y="1032"/>
      <point x="596" y="991" type="qcurve"/>
      <point x="661" y="968"/>
      <point x="720" y="873"/>
      <point x="720" y="812" type="qcurve" smooth="yes"/>
      <point x="720" y="757"/>
      <point x="677" y="639"/>
      <point x="634" y="591" type="qcurve"/>
      <point x="573" y="526"/>
      <point x="413" y="466"/>
    </contour>
  </outline>
</glyph>
<glyph name="acute" format="2">
  <advance width="537"/>
  <unicode hex="00B4"/>
  <outline>
    <contour>
      <point x="355" y="1124" type="line"/>
      <point x="216" y="1124" type="line"/>
      <point x="501" y="1413" type="line"/>
      <point x="698" y="1413" type="line"/>
    </contour>
  </outline>
</glyph>
<glyph name="mu" format="2">
  <advance width="1304"/>
  <unicode hex="00B5"/>
  <outline>
    <contour>
      <point x="218" y="-266" type="line"/>
      <point x="82" y="-266" type="line"/>
      <point x="373" y="999" type="line"/>
      <point x="530" y="999" type="line"/>
      <point x="392" y="396" type="line" smooth="yes"/>
      <point x="375" y="323"/>
      <point x="375" y="272" type="qcurve" smooth="yes"/>
      <point x="375" y="118"/>
      <point x="521" y="118" type="qcurve" smooth="yes"/>
      <point x="609" y="118"/>
      <point x="770" y="212"/>
      <point x="884" y="357"/>
      <point x="903" y="435" type="qcurve"/>
      <point x="1033" y="999" type="line"/>
      <point x="1189" y="999" type="line"/>
      <point x="960" y="0" type="line"/>
      <point x="803" y="0" type="line"/>
      <point x="843" y="162" type="line"/>
      <point x="810" y="115"/>
      <point x="702" y="31"/>
      <point x="567" y="-23"/>
      <point x="496" y="-23" type="qcurve" smooth="yes"/>
      <point x="392" y="-23"/>
      <point x="313" y="32" type="qcurve"/>
    </contour>
  </outline>
</glyph>
<glyph name="paragraph" format="2">
  <advance width="1358"/>
  <unicode hex="00B6"/>
  <outline>
    <contour>
      <point x="541" y="-246" type="line"/>
      <point x="405" y="-246" type="line"/>
      <point x="612" y="623" type="line"/>
      <point x="512" y="623"/>
      <point x="341" y="697"/>
      <point x="237" y="838"/>
      <point x="237" y="940" type="qcurve" smooth="yes"/>
      <point x="237" y="1024"/>
      <point x="302" y="1178"/>
      <point x="356" y="1236" type="qcurve"/>
      <point x="443" y="1326"/>
      <point x="668" y="1413"/>
      <point x="782" y="1413" type="qcurve" smooth="yes"/>
      <point x="924" y="1413" type="line"/>
    </contour>
    <contour>
      <point x="909" y="-246" type="line"/>
      <point x="773" y="-246" type="line"/>
      <point x="1156" y="1413" type="line"/>
      <point x="1292" y="1413" type="line"/>
    </contour>
  </outline>
</glyph>
<glyph name="periodcentered" format="2">
  <advance width="651"/>
  <unicode hex="00B7"/>
  <outline>
    <contour>
      <point x="382" y="699" type="qcurve" smooth="yes"/>
      <point x="334" y="699"/>
      <point x="275" y="761"/>
      <point x="275" y="806" type="qcurve" smooth="yes"/>
      <point x="275" y="869"/>
      <point x="364" y="948"/>
      <point x="417" y="948" type="qcurve" smooth="yes"/>
      <point x="466" y="948"/>
      <point x="526" y="889"/>
      <point x="526" y="841" type="qcurve" smooth="yes"/>
      <point x="526" y="831"/>
      <point x="522" y="809" type="qcurve"/>
      <point x="510" y="762"/>
      <point x="431" y="699"/>
    </contour>
  </outline>
</glyph>
<glyph name="ordmasculine" format="2">
  <advance width="950"/>
  <unicode hex="00BA"/>
  <outline>
    <contour>
      <point x="536" y="711" type="qcurve" smooth="yes"/>
      <point x="448" y="711"/>
      <point x="325" y="785"/>
      <point x="260" y="912"/>
      <point x="260" y="992" type="qcurve" smooth="yes"/>
      <point x="260" y="1055"/>
      <point x="304" y="1196"/>
      <point x="354" y="1262" type="qcurve" smooth="yes"/>
      <point x="412" y="1339"/>
      <point x="580" y="1434"/>
      <point x="680" y="1434" type="qcurve" smooth="yes"/>
      <point x="768" y="1434"/>
      <point x="890" y="1360"/>
      <point x="954" y="1233"/>
      <point x="954" y="1154" type="qcurve" smooth="yes"/>
      <point x="954" y="1029"/>
      <point x="822" y="816"/>
      <point x="716" y="758" type="qcurve" smooth="yes"/>
      <point x="631" y="711"/>
    </contour>
    <contour>
      <point x="539" y="820" type="qcurve" smooth="yes"/>
      <point x="648" y="820"/>
      <point x="792" y="972"/>
      <point x="818" y="1087" type="qcurve" smooth="yes"/>
      <point x="829" y="1134"/>
      <point x="829" y="1173" type="qcurve" smooth="yes"/>
      <point x="829" y="1241"/>
      <point x="759" y="1326"/>
      <point x="679" y="1326" type="qcurve" smooth="yes"/>
      <point x="499" y="1326"/>
      <point x="416" y="1126" type="qcurve" smooth="yes"/>
      <point x="386" y="1053"/>
      <point x="386" y="974" type="qcurve" smooth="yes"/>
      <point x="386" y="905"/>
      <point x="457" y="820"/>
    </contour>
  </outline>
</glyph>
<glyph name="Aring" format="2">
  <advance width="1316"/>
  <unicode hex="00C5"/>
  <outline>
    <contour>
      <point x="1131" y="0" type="line"/>
      <point x="975" y="0" type="line"/>
      <point x="938" y="307" type="line"/>
      <point x="306" y="307" type="line"/>
      <point x="127" y="0" type="line"/>
      <point x="-49" y="0" type="line"/>
      <point x="767" y="1339" type="line"/>
      <point x="732" y="1359"/>
      <point x="689" y="1434"/>
      <point x="689" y="1484" type="qcurve" smooth="yes"/>
      <point x="689" y="1578"/>
      <point x="833" y="1724"/>
      <point x="928" y="1724" type="qcurve" smooth="yes"/>
      <point x="1003" y="1724"/>
      <point x="1101" y="1628"/>
      <point x="1101" y="1556" type="qcurve" smooth="yes"/>
      <point x="1101" y="1491"/>
      <point x="1020" y="1369"/>
      <point x="946" y="1337" type="qcurve"/>
    </contour>
    <contour>
      <point x="868" y="1418" type="qcurve"/>
      <point x="919" y="1418"/>
      <point x="998" y="1495"/>
      <point x="998" y="1547" type="qcurve" smooth="yes"/>
      <point x="998" y="1581"/>
      <point x="955" y="1621"/>
      <point x="916" y="1621" type="qcurve" smooth="yes"/>
      <point x="877" y="1621"/>
      <point x="820" y="1582"/>
      <point x="789" y="1524"/>
      <point x="789" y="1494" type="qcurve" smooth="yes"/>
      <point x="789" y="1425"/>
    </contour>
    <contour>
      <point x="918" y="452" type="line"/>
      <point x="830" y="1196" type="line"/>
      <point x="392" y="452" type="line"/>
    </contour>
  </outline>
</glyph>
<glyph name="AE" format="2">
  <advance width="1825"/>
  <unicode hex="00C6"/>
  <outline>
    <contour>
      <point x="1597" y="0" type="line"/>
      <point x="694" y="0" type="line"/>
      <point x="764" y="307" type="line"/>
      <point x="300" y="307" type="line"/>
      <point x="118" y="0" type="line"/>
      <point x="-49" y="0" type="line"/>
      <point x="803" y="1413" type="line"/>
      <point x="1922" y="1413" type="line"/>
      <point x="1893" y="1284" type="line"/>
      <point x="1145" y="1284" type="line"/>
      <point x="1027" y="774" type="line"/>
      <point x="1687" y="774" type="line"/>
      <point x="1656" y="639" type="line"/>
      <point x="996" y="639" type="line"/>
      <point x="880" y="136" type="line"/>
      <point x="1628" y="136" type="line"/>
    </contour>
    <contour>
      <point x="797" y="448" type="line"/>
      <point x="990" y="1284" type="line"/>
      <point x="880" y="1284" type="line"/>
      <point x="381" y="448" type="line"/>
    </contour>
  </outline>
</glyph>
<glyph name="multiply" format="2">
  <advance width="1112"/>
  <unicode hex="00D7"/>
  <outline>
    <contour>
      <point x="884" y="217" type="line"/>
      <point x="558" y="544" type="line"/>
      <point x="234" y="221" type="line"/>
      <point x="153" y="301" type="line"/>
      <point x="476" y="625" type="line"/>
      <point x="150" y="950" type="line"/>
      <point x="231" y="1032" type="line"/>
      <point x="558" y="705" type="line"/>
      <point x="880" y="1028" type="line"/>
      <point x="961" y="948" type="line"/>
      <point x="638" y="625" type="line"/>
      <point x="964" y="299" type="line"/>
    </contour>
  </outline>
</glyph>
<glyph name="Oslash" format="2">
  <advance width="1525"/>
  <unicode hex="00D8"/>
  <outline>
    <contour>
      <point x="652" y="-20" type="qcurve" smooth="yes"/>
      <point x="474" y="-20"/>
      <point x="355" y="55" type="qcurve"/>
      <point x="311" y="0" type="line"/>
      <point x="178" y="0" type="line"/>
      <point x="275" y="122" type="line"/>
      <point x="211" y="192"/>
      <point x="151" y="381"/>
      <point x="151" y="491" type="qcurve" smooth="yes"/>
      <point x="151" y="634"/>
      <point x="243" y="946"/>
      <point x="331" y="1081" type="qcurve" smooth="yes"/>
      <point x="437" y="1243"/>
      <point x="761" y="1434"/>
      <point x="965" y="1434" type="qcurve" smooth="yes"/>
      <point x="1144" y="1434"/>
      <point x="1263" y="1359" type="qcurve"/>
      <point x="1306" y="1413" type="line"/>
      <point x="1438" y="1413" type="line"/>
      <point x="1343" y="1294" type="line"/>
      <point x="1469" y="1157"/>
      <point x="1469" y="922" type="qcurve" smooth="yes"/>
      <point x="1469" y="780"/>
      <point x="1377" y="468"/>
      <point x="1289" y="333" type="qcurve" smooth="yes"/>
      <point x="1183" y="171"/>
      <point x="857" y="-20"/>
    </contour>
    <contour>
      <point x="376" y="248" type="qcurve"/>
      <point x="1165" y="1237" type="line"/>
      <point x="1081" y="1287"/>
      <point x="953" y="1287" type="qcurve" smooth="yes"/>
      <point x="789" y="1287"/>
      <point x="661" y="1206" type="qcurve"/>
      <point x="526" y="1118"/>
      <point x="363" y="848"/>
      <point x="328" y="692" type="qcurve" smooth="yes"/>
      <point x="305" y="591"/>
      <point x="305" y="501" type="qcurve" smooth="yes"/>
      <point x="305" y="342"/>
    </contour>
    <contour>
      <point x="662" y="126" type="qcurve" smooth="yes"/>
      <point x="830" y="126"/>
      <point x="960" y="208" type="qcurve" smooth="yes"/>
      <point x="1095" y="294"/>
      <point x="1259" y="563"/>
      <point x="1295" y="721" type="qcurve" smooth="yes"/>
      <point x="1318" y="822"/>
      <point x="1318" y="912" type="qcurve" smooth="yes"/>
      <point x="1318" y="1073"/>
      <point x="1243" y="1168" type="qcurve"/>
      <point x="453" y="177" type="line"/>
      <point x="537" y="126"/>
    </contour>
  </outline>
</glyph>
<glyph name="Thorn" format="2">
  <advance width="1157"/>
  <unicode hex="00DE"/>
  <outline>
    <contour>
      <point x="260" y="0" type="line"/>
      <point x="100" y="0" type="line"/>
      <point x="426" y="1413" type="line"/>
      <point x="585" y="1413" type="line"/>
      <point x="539" y="1214" type="line"/>
      <point x="784" y="1214" type="line" smooth="yes"/>
      <point x="950" y="1214"/>
      <point x="1149" y="1058"/>
      <point x="1149" y="911" type="qcurve" smooth="yes"/>
      <point x="1149" y="867"/>
      <point x="1136" y="805" type="qcurve"/>
      <point x="1090" y="623"/>
      <point x="804" y="432"/>
      <point x="603" y="432" type="qcurve" smooth="yes"/>
      <point x="358" y="432" type="line"/>
    </contour>
    <contour>
      <point x="625" y="579" type="line" smooth="yes"/>
      <point x="760" y="579"/>
      <point x="950" y="703"/>
      <point x="981" y="830" type="qcurve" smooth="yes"/>
      <point x="989" y="865"/>
      <point x="989" y="893" type="qcurve" smooth="yes"/>
      <point x="989" y="971"/>
      <point x="870" y="1059"/>
      <point x="748" y="1059" type="qcurve" smooth="yes"/>
      <point x="503" y="1059" type="line"/>
      <point x="392" y="579" type="line"/>
    </contour>
  </outline>
</glyph>
<glyph name="germandbls" format="2">
  <advance width="1183"/>
  <unicode hex="00DF"/>
  <outline>
    <contour>
      <point x="613" y="-18" type="qcurve" smooth="yes"/>
      <point x="546" y="-18"/>
      <point x="425" y="16"/>
      <point x="356" y="50" type="qcurve"/>
      <point x="439" y="185" type="line"/>
      <point x="484" y="157"/>
      <point x="580" y="131"/>
      <point x="623" y="131" type="qcurve" smooth="yes"/>
      <point x="699" y="131"/>
      <point x="845" y="232"/>
      <point x="864" y="308" type="qcurve"/>
      <point x="869" y="333"/>
      <point x="869" y="350" type="qcurve" smooth="yes"/>
      <point x="869" y="397"/>
      <point x="818" y="477"/>
      <point x="764" y="530" type="qcurve" smooth="yes"/>
      <point x="709" y="583"/>
      <point x="651" y="674"/>
      <point x="651" y="733" type="qcurve" smooth="yes"/>
      <point x="651" y="764"/>
      <point x="669" y="828"/>
      <point x="708" y="880"/>
      <point x="764" y="921"/>
      <point x="808" y="947" type="qcurve" smooth="yes"/>
      <point x="875" y="986"/>
      <point x="953" y="1062"/>
      <point x="966" y="1120" type="qcurve" smooth="yes"/>
      <point x="971" y="1142"/>
      <point x="971" y="1158" type="qcurve" smooth="yes"/>
      <point x="971" y="1217"/>
      <point x="874" y="1297"/>
      <point x="778" y="1297" type="qcurve" smooth="yes"/>
      <point x="651" y="1297"/>
      <point x="460" y="1107"/>
      <point x="412" y="900" type="qcurve" smooth="yes"/>
      <point x="206" y="0" type="line"/>
      <point x="57" y="0" type="line"/>
      <point x="269" y="915" type="line" smooth="yes"/>
      <point x="332" y="1189"/>
      <point x="603" y="1434"/>
      <point x="783" y="1434" type="qcurve" smooth="yes"/>
      <point x="871" y="1434"/>
      <point x="1024" y="1365"/>
      <point x="1118" y="1238"/>
      <point x="1118" y="1151" type="qcurve" smooth="yes"/>
      <point x="1118" y="1074"/>
      <point x="1059" y="968"/>
      <point x="1016" y="938" type="qcurve" smooth="yes"/>
      <point x="988" y="918"/>
      <point x="950" y="896" type="qcurve" smooth="yes"/>
      <point x="887" y="859"/>
      <point x="846" y="825" type="qcurve"/>
      <point x="815" y="797"/>
      <point x="804" y="754" type="qcurve" smooth="yes"/>
      <point x="802" y="747"/>
      <point x="802" y="734" type="qcurve" smooth="yes"/>
      <point x="802" y="702"/>
      <point x="844" y="645"/>
      <point x="889" y="604" type="qcurve" smooth="yes"/>
      <point x="953" y="547"/>
      <point x="1023" y="441"/>
      <point x="1023" y="365" type="qcurve" smooth="yes"/>
      <point x="1023" y="252"/>
      <point x="890" y="69"/>
      <point x="790" y="22" type="qcurve" smooth="yes"/>
      <point x="705" y="-18"/>
    </contour>
  </outline>
</glyph>
<glyph name="ae" format="2">
  <advance width="1676"/>
  <unicode hex="00E6"/>
  <outline>
    <contour>
      <point x="291" y="-20" type="qcurve" smooth="yes"/>
      <point x="173" y="-20"/>
      <point x="22" y="110"/>
      <point x="22" y="218" type="qcurve" smooth="yes"/>
      <point x="22" y="255"/>
      <point x="30" y="288" type="qcurve" smooth="yes"/>
      <point x="95" y="571"/>
      <point x="456" y="571" type="qcurve" smooth="yes"/>
      <point x="772" y="571" type="line"/>
      <point x="790" y="656"/>
      <point x="790" y="710" type="qcurve" smooth="yes"/>
      <point x="790" y="805"/>
      <point x="695" y="896"/>
      <point x="601" y="896" type="qcurve" smooth="yes"/>
      <point x="508" y="896"/>
      <point x="349" y="806"/>
      <point x="296" y="742" type="qcurve"/>
      <point x="193" y="830" type="line"/>
      <point x="372" y="1016"/>
      <point x="614" y="1016" type="qcurve" smooth="yes"/>
      <point x="744" y="1016"/>
      <point x="886" y="912"/>
      <point x="904" y="826" type="qcurve"/>
      <point x="1044" y="1012"/>
      <point x="1267" y="1012" type="qcurve" smooth="yes"/>
      <point x="1445" y="1012"/>
      <point x="1605" y="828"/>
      <point x="1605" y="673" type="qcurve" smooth="yes"/>
      <point x="1605" y="585"/>
      <point x="1579" y="473" type="qcurve"/>
      <point x="1570" y="449" type="line"/>
      <point x="874" y="449" type="line"/>
      <point x="861" y="394"/>
      <point x="861" y="341" type="qcurve" smooth="yes"/>
      <point x="861" y="277"/>
      <point x="906" y="177"/>
      <point x="1002" y="120"/>
      <point x="1077" y="120" type="qcurve" smooth="yes"/>
      <point x="1178" y="120"/>
      <point x="1326" y="172"/>
      <point x="1395" y="229" type="qcurve"/>
      <point x="1482" y="137" type="line"/>
      <point x="1389" y="60"/>
      <point x="1193" y="-12"/>
      <point x="1072" y="-12" type="qcurve" smooth="yes"/>
      <point x="916" y="-12"/>
      <point x="755" y="142"/>
      <point x="745" y="270" type="qcurve"/>
      <point x="575" y="-20"/>
    </contour>
    <contour>
      <point x="1462" y="571" type="line"/>
      <point x="1476" y="632"/>
      <point x="1476" y="679" type="qcurve" smooth="yes"/>
      <point x="1476" y="771"/>
      <point x="1373" y="879"/>
      <point x="1259" y="879" type="qcurve" smooth="yes"/>
      <point x="1167" y="879"/>
      <point x="1022" y="793"/>
      <point x="924" y="654"/>
      <point x="902" y="571" type="qcurve"/>
    </contour>
    <contour>
      <point x="336" y="108" type="qcurve" smooth="yes"/>
      <point x="434" y="108"/>
      <point x="608" y="214"/>
      <point x="726" y="369"/>
      <point x="744" y="449" type="qcurve"/>
      <point x="453" y="449" type="line"/>
      <point x="357" y="447"/>
      <point x="207" y="354"/>
      <point x="182" y="259" type="qcurve" smooth="yes"/>
      <point x="179" y="246"/>
      <point x="179" y="234" type="qcurve" smooth="yes"/>
      <point x="179" y="197"/>
      <point x="226" y="140"/>
      <point x="299" y="108"/>
    </contour>
  </outline>
</glyph>
<glyph name="eth" format="2">
  <advance width="1163"/>
  <unicode hex="00F0"/>
  <outline>
    <contour>
      <point x="463" y="-16" type="qcurve" smooth="yes"/>
      <point x="335" y="-16"/>
      <point x="165" y="89"/>
      <point x="80" y="270"/>
      <point x="80" y="382" type="qcurve" smooth="yes"/>
      <point x="80" y="483"/>
      <point x="147" y="691"/>
      <point x="210" y="779" type="qcurve" smooth="yes"/>
      <point x="286" y="887"/>
      <point x="514" y="1020"/>
      <point x="655" y="1020" type="qcurve" smooth="yes"/>
      <point x="755" y="1020"/>
      <point x="894" y="956"/>
      <point x="920" y="913" type="qcurve"/>
      <point x="921" y="938" type="line"/>
      <point x="921" y="1124"/>
      <point x="739" y="1269" type="qcurve"/>
      <point x="616" y="1132" type="line"/>
      <point x="534" y="1191" type="line"/>
      <point x="656" y="1327" type="line"/>
      <point x="593" y="1365"/>
      <point x="507" y="1403" type="qcurve"/>
      <point x="601" y="1513" type="line"/>
      <point x="691" y="1474"/>
      <point x="753" y="1436" type="qcurve"/>
      <point x="838" y="1531" type="line"/>
      <point x="924" y="1475" type="line"/>
      <point x="837" y="1378" type="line"/>
      <point x="970" y="1276"/>
      <point x="1091" y="1005"/>
      <point x="1091" y="834" type="qcurve" smooth="yes"/>
      <point x="1091" y="691"/>
      <point x="1049" y="509" type="qcurve" smooth="yes"/>
      <point x="1017" y="370"/>
      <point x="856" y="130"/>
      <point x="729" y="55" type="qcurve" smooth="yes"/>
      <point x="607" y="-16"/>
    </contour>
    <contour>
      <point x="472" y="127" type="qcurve" smooth="yes"/>
      <point x="580" y="127"/>
      <point x="750" y="241"/>
      <point x="864" y="424"/>
      <point x="889" y="531" type="qcurve" smooth="yes"/>
      <point x="904" y="594"/>
      <point x="904" y="653" type="qcurve" smooth="yes"/>
      <point x="904" y="725"/>
      <point x="856" y="839"/>
      <point x="755" y="905"/>
      <point x="675" y="905" type="qcurve" smooth="yes"/>
      <point x="566" y="905"/>
      <point x="395" y="790"/>
      <point x="281" y="608"/>
      <point x="256" y="502" type="qcurve"/>
      <point x="242" y="438"/>
      <point x="242" y="382" type="qcurve" smooth="yes"/>
      <point x="242" y="268"/>
      <point x="355" y="127"/>
    </contour>
  </outline>
</glyph>
<glyph name="thorn" format="2">
  <advance width="1145"/>
  <unicode hex="00FE"/>
  <outline>
    <contour>
      <point x="108" y="-438" type="line"/>
      <point x="-37" y="-438" type="line"/>
      <point x="391" y="1413" type="line"/>
      <point x="536" y="1413" type="line"/>
      <point x="404" y="855" type="line"/>
      <point x="542" y="1020"/>
      <point x="755" y="1020" type="qcurve" smooth="yes"/>
      <point x="904" y="1020"/>
      <point x="1058" y="826"/>
      <point x="1058" y="664" type="qcurve" smooth="yes"/>
      <point x="1058" y="558"/>
      <point x="994" y="330"/>
      <point x="933" y="230" type="qcurve" smooth="yes"/>
      <point x="864" y="118"/>
      <point x="664" y="-20"/>
      <point x="539" y="-20" type="qcurve" smooth="yes"/>
      <point x="423" y="-20"/>
      <point x="279" y="77"/>
      <point x="249" y="157" type="qcurve"/>
    </contour>
    <contour>
      <point x="504" y="104" type="qcurve" smooth="yes"/>
      <point x="607" y="104"/>
      <point x="768" y="215"/>
      <point x="876" y="399"/>
      <point x="902" y="512" type="qcurve" smooth="yes"/>
      <point x="920" y="594"/>
      <point x="920" y="655" type="qcurve" smooth="yes"/>
      <point x="920" y="725"/>
      <point x="877" y="833"/>
      <point x="783" y="895"/>
      <point x="708" y="895" type="qcurve" smooth="yes"/>
      <point x="605" y="895"/>
      <point x="443" y="783"/>
      <point x="333" y="599"/>
      <point x="308" y="487" type="qcurve"/>
      <point x="290" y="412"/>
      <point x="290" y="345" type="qcurve" smooth="yes"/>
      <point x="290" y="275"/>
      <point x="334" y="166"/>
      <point x="428" y="104"/>
    </contour>
  </outline>
</glyph>
<glyph name="Eogonek" format="2">
  <advance width="1245"/>
  <unicode hex="0118"/>
  <outline>
    <contour>
      <point x="792" y="-451" type="qcurve" smooth="yes"/>
      <point x="715" y="-451"/>
      <point x="619" y="-363"/>
      <point x="619" y="-286" type="qcurve" smooth="yes"/>
      <point x="619" y="-230"/>
      <point x="670" y="-123"/>
      <point x="725" y="-81" type="qcurve"/>
      <point x="803" y="-24"/>
      <point x="880" y="0" type="qcurve"/>
      <point x="100" y="0" type="line"/>
      <point x="426" y="1413" type="line"/>
      <point x="1341" y="1413" type="line"/>
      <point x="1309" y="1276" type="line"/>
      <point x="553" y="1276" type="line"/>
      <point x="438" y="774" type="line"/>
      <point x="1095" y="774" type="line"/>
      <point x="1063" y="641" type="line"/>
      <point x="406" y="641" type="line"/>
      <point x="292" y="145" type="line"/>
      <point x="1048" y="145" type="line"/>
      <point x="1016" y="0" type="line"/>
      <point x="970" y="0" type="line"/>
      <point x="1012" y="-1" type="line"/>
      <point x="979" y="-15"/>
      <point x="872" y="-66"/>
      <point x="748" y="-174"/>
      <point x="732" y="-244" type="qcurve" smooth="yes"/>
      <point x="728" y="-259"/>
      <point x="728" y="-275" type="qcurve" smooth="yes"/>
      <point x="728" y="-306"/>
      <point x="761" y="-337"/>
      <point x="786" y="-337" type="qcurve" smooth="yes"/>
      <point x="870" y="-337"/>
      <point x="931" y="-268" type="qcurve"/>
      <point x="1014" y="-343" type="line"/>
      <point x="964" y="-398"/>
      <point x="858" y="-451"/>
    </contour>
  </outline>
</glyph>
<glyph name="eogonek" format="2">
  <advance width="1038"/>
  <unicode hex="0119"/>
  <outline>
    <contour>
      <point x="459" y="-406" type="qcurve" smooth="yes"/>
      <point x="382" y="-406"/>
      <point x="286" y="-318"/>
      <point x="286" y="-241" type="qcurve" smooth="yes"/>
      <point x="286" y="-180"/>
      <point x="352" y="-61"/>
      <point x="426" y="-12" type="qcurve"/>
      <point x="249" y="-8"/>
      <point x="75" y="192"/>
      <point x="75" y="350" type="qcurve" smooth="yes"/>
      <point x="75" y="442"/>
      <point x="135" y="658"/>
      <point x="199" y="758" type="qcurve" smooth="yes"/>
      <point x="246" y="832"/>
      <point x="375" y="946"/>
      <point x="536" y="1012"/>
      <point x="630" y="1012" type="qcurve" smooth="yes"/>
      <point x="807" y="1012"/>
      <point x="968" y="828"/>
      <point x="968" y="673" type="qcurve" smooth="yes"/>
      <point x="968" y="585"/>
      <point x="942" y="473" type="qcurve"/>
      <point x="932" y="442" type="line"/>
      <point x="235" y="442" type="line"/>
      <point x="222" y="390"/>
      <point x="222" y="339" type="qcurve" smooth="yes"/>
      <point x="222" y="276"/>
      <point x="268" y="177"/>
      <point x="363" y="120"/>
      <point x="439" y="120" type="qcurve" smooth="yes"/>
      <point x="540" y="120"/>
      <point x="688" y="172"/>
      <point x="752" y="229" type="qcurve"/>
      <point x="844" y="137" type="line"/>
      <point x="724" y="37"/>
      <point x="594" y="6" type="qcurve"/>
      <point x="426" y="-83"/>
      <point x="399" y="-199" type="qcurve" smooth="yes"/>
      <point x="395" y="-214"/>
      <point x="395" y="-230" type="qcurve" smooth="yes"/>
      <point x="395" y="-261"/>
      <point x="428" y="-292"/>
      <point x="453" y="-292" type="qcurve" smooth="yes"/>
      <point x="537" y="-292"/>
      <point x="598" y="-223" type="qcurve"/>
      <point x="681" y="-298" type="line"/>
      <point x="631" y="-353"/>
      <point x="525" y="-406"/>
    </contour>
    <contour>
      <point x="824" y="564" type="line"/>
      <point x="838" y="628"/>
      <point x="838" y="676" type="qcurve" smooth="yes"/>
      <point x="838" y="771"/>
      <point x="735" y="879"/>
      <point x="622" y="879" type="qcurve" smooth="yes"/>
      <point x="531" y="879"/>
      <point x="386" y="793"/>
      <point x="287" y="651"/>
      <point x="263" y="564" type="qcurve"/>
    </contour>
  </outline>
</glyph>
<glyph name="Hbar" format="2">
  <advance width="1461"/>
  <unicode hex="0126"/>
  <outline>
    <contour>
      <point x="1132" y="0" type="line"/>
      <point x="973" y="0" type="line"/>
      <point x="1119" y="641" type="line"/>
      <point x="406" y="641" type="line"/>
      <point x="259" y="0" type="line"/>
      <point x="100" y="0" type="line"/>
      <point x="347" y="1071" type="line"/>
      <point x="231" y="1071" type="line"/>
      <point x="250" y="1160" type="line"/>
      <point x="368" y="1160" type="line"/>
      <point x="426" y="1413" type="line"/>
      <point x="585" y="1413" type="line"/>
      <point x="527" y="1160" type="line"/>
      <point x="1240" y="1160" type="line"/>
      <point x="1298" y="1413" type="line"/>
      <point x="1457" y="1413" type="line"/>
      <point x="1399" y="1160" type="line"/>
      <point x="1510" y="1160" type="line"/>
      <point x="1490" y="1071" type="line"/>
      <point x="1378" y="1071" type="line"/>
    </contour>
    <contour>
      <point x="1151" y="774" type="line"/>
      <point x="1219" y="1071" type="line"/>
      <point x="506" y="1071" type="line"/>
      <point x="438" y="774" type="line"/>
    </contour>
  </outline>
</glyph>
<glyph name="Iogonek" format="2">
  <advance width="589"/>
  <unicode hex="012E"/>
  <outline>
    <contour>
      <point x="35" y="-451" type="qcurve" smooth="yes"/>
      <point x="-42" y="-451"/>
      <point x="-138" y="-363"/>
      <point x="-138" y="-286" type="qcurve" smooth="yes"/>
      <point x="-138" y="-230"/>
      <point x="-87" y="-123"/>
      <point x="-32" y="-81" type="qcurve"/>
      <point x="46" y="-24"/>
      <point x="123" y="0" type="qcurve"/>
      <point x="100" y="0" type="line"/>
      <point x="426" y="1413" type="line"/>
      <point x="585" y="1413" type="line"/>
      <point x="259" y="0" type="line"/>
      <point x="213" y="0" type="line"/>
      <point x="255" y="-1" type="line"/>
      <point x="222" y="-15"/>
      <point x="115" y="-66"/>
      <point x="-9" y="-174"/>
      <point x="-25" y="-244" type="qcurve" smooth="yes"/>
      <point x="-29" y="-259"/>
      <point x="-29" y="-275" type="qcurve" smooth="yes"/>
      <point x="-29" y="-306"/>
      <point x="4" y="-337"/>
      <point x="29" y="-337" type="qcurve" smooth="yes"/>
      <point x="113" y="-337"/>
      <point x="174" y="-268" type="qcurve"/>
      <point x="257" y="-343" type="line"/>
      <point x="207" y="-398"/>
      <point x="101" y="-451"/>
    </contour>
  </outline>
</glyph>
<glyph name="iogonek" format="2">
  <advance width="505"/>
  <unicode hex="012F"/>
  <outline>
    <contour>
      <point x="504" y="1221" type="line"/>
      <point x="331" y="1221" type="line"/>
      <point x="376" y="1413" type="line"/>
      <point x="548" y="1413" type="line"/>
    </contour>
    <contour>
      <point x="-12" y="-451" type="qcurve" smooth="yes"/>
      <point x="-89" y="-451"/>
      <point x="-185" y="-363"/>
      <point x="-185" y="-286" type="qcurve" smooth="yes"/>
      <point x="-185" y="-230"/>
      <point x="-134" y="-123"/>
      <point x="-79" y="-81" type="qcurve"/>
      <point x="-1" y="-24"/>
      <point x="76" y="0" type="qcurve"/>
      <point x="63" y="0" type="line"/>
      <point x="293" y="999" type="line"/>
      <point x="441" y="999" type="line"/>
      <point x="212" y="0" type="line"/>
      <point x="166" y="0" type="line"/>
      <point x="208" y="-1" type="line"/>
      <point x="175" y="-15"/>
      <point x="68" y="-66"/>
      <point x="-56" y="-174"/>
      <point x="-72" y="-244" type="qcurve" smooth="yes"/>
      <point x="-76" y="-259"/>
      <point x="-76" y="-275" type="qcurve" smooth="yes"/>
      <point x="-76" y="-306"/>
      <point x="-43" y="-337"/>
      <point x="-18" y="-337" type="qcurve" smooth="yes"/>
      <point x="66" y="-337"/>
      <point x="127" y="-268" type="qcurve"/>
      <point x="210" y="-343" type="line"/>
      <point x="160" y="-398"/>
      <point x="54" y="-451"/>
    </contour>
  </outline>
</glyph>
<glyph name="Idotaccent" format="2">
  <advance width="589"/>
  <unicode hex="0130"/>
  <outline>
    <contour>
      <point x="640" y="1635" type="line"/>
      <point x="467" y="1635" type="line"/>
      <point x="512" y="1827" type="line"/>
      <point x="684" y="1827" type="line"/>
    </contour>
    <contour>
      <point x="259" y="0" type="line"/>
      <point x="100" y="0" type="line"/>
      <point x="426" y="1413" type="line"/>
      <point x="585" y="1413" type="line"/>
    </contour>
  </outline>
</glyph>
<glyph name="dotlessi" format="2">
  <advance width="505"/>
  <unicode hex="0131"/>
  <outline>
    <contour>
      <point x="212" y="0" type="line"/>
      <point x="63" y="0" type="line"/>
      <point x="293" y="999" type="line"/>
      <point x="441" y="999" type="line"/>
    </contour>
  </outline>
</glyph>
<glyph name="ldot" format="2">
  <advance width="702"/>
  <unicode hex="0140"/>
  <outline>
    <contour>
      <point x="223" y="-20" type="qcurve" smooth="yes"/>
      <point x="150" y="-20"/>
      <point x="85" y="41"/>
      <point x="85" y="99" type="qcurve" smooth="yes"/>
      <point x="85" y="140"/>
      <point x="101" y="209" type="qcurve" smooth="yes"/>
      <point x="380" y="1413" type="line"/>
      <point x="530" y="1413" type="line"/>
      <point x="242" y="169" type="line" smooth="yes"/>
      <point x="239" y="156"/>
      <point x="239" y="145" type="qcurve" smooth="yes"/>
      <point x="239" y="105"/>
      <point x="285" y="105" type="qcurve" smooth="yes"/>
      <point x="308" y="105"/>
      <point x="372" y="122" type="qcurve"/>
      <point x="355" y="-2" type="line"/>
      <point x="328" y="-10"/>
      <point x="255" y="-20"/>
    </contour>
    <contour>
      <point x="558" y="572" type="qcurve" smooth="yes"/>
      <point x="510" y="572"/>
      <point x="451" y="634"/>
      <point x="451" y="679" type="qcurve" smooth="yes"/>
      <point x="451" y="742"/>
      <point x="540" y="821"/>
      <point x="593" y="821" type="qcurve" smooth="yes"/>
      <point x="642" y="821"/>
      <point x="702" y="762"/>
      <point x="702" y="714" type="qcurve" smooth="yes"/>
      <point x="702" y="704"/>
      <point x="698" y="682" type="qcurve"/>
      <point x="686" y="635"/>
      <point x="607" y="572"/>
    </contour>
  </outline>
</glyph>
<glyph name="Lslash" format="2">
  <advance width="1063"/>
  <unicode hex="0141"/>
  <outline>
    <contour>
      <point x="888" y="0" type="line"/>
      <point x="125" y="0" type="line"/>
      <point x="234" y="474" type="line"/>
      <point x="14" y="332" type="line"/>
      <point x="58" y="494" type="line"/>
      <point x="272" y="636" type="line"/>
      <point x="451" y="1413" type="line"/>
      <point x="610" y="1413" type="line"/>
      <point x="459" y="760" type="line"/>
      <point x="851" y="1020" type="line"/>
      <point x="802" y="839" type="line"/>
      <point x="421" y="594" type="line"/>
      <point x="317" y="145" type="line"/>
      <point x="921" y="145" type="line"/>
    </contour>
  </outline>
</glyph>
<glyph name="lslash" format="2">
  <advance width="524"/>
  <unicode hex="0142"/>
  <outline>
    <contour>
      <point x="223" y="-20" type="qcurve" smooth="yes"/>
      <point x="150" y="-20"/>
      <point x="85" y="41"/>
      <point x="85" y="99" type="qcurve" smooth="yes"/>
      <point x="85" y="140"/>
      <point x="101" y="209" type="qcurve" smooth="yes"/>
      <point x="160" y="462" type="line"/>
      <point x="-5" y="304" type="line"/>
      <point x="46" y="491" type="line"/>
      <point x="201" y="639" type="line"/>
      <point x="380" y="1413" type="line"/>
      <point x="530" y="1413" type="line"/>
      <point x="394" y="824" type="line"/>
      <point x="592" y="1014" type="line"/>
      <point x="541" y="827" type="line"/>
      <point x="353" y="646" type="line"/>
      <point x="242" y="169" type="line" smooth="yes"/>
      <point x="239" y="156"/>
      <point x="239" y="145" type="qcurve" smooth="yes"/>
      <point x="239" y="105"/>
      <point x="285" y="105" type="qcurve" smooth="yes"/>
      <point x="308" y="105"/>
      <point x="372" y="122" type="qcurve"/>
      <point x="355" y="-2" type="line"/>
      <point x="328" y="-10"/>
      <point x="255" y="-20"/>
    </contour>
  </outline>
</glyph>
<glyph name="eng" format="2">
  <advance width="1124"/>
  <unicode hex="014B"/>
  <outline>
    <contour>
      <point x="514" y="-369" type="qcurve" smooth="yes"/>
      <point x="423" y="-369" type="line"/>
      <point x="454" y="-240" type="line"/>
      <point x="504" y="-240" type="line" smooth="yes"/>
      <point x="598" y="-240"/>
      <point x="683" y="-122"/>
      <point x="698" y="-51" type="qcurve"/>
      <point x="849" y="600" type="line"/>
      <point x="865" y="673"/>
      <point x="865" y="720" type="qcurve" smooth="yes"/>
      <point x="865" y="871"/>
      <point x="717" y="871" type="qcurve" smooth="yes"/>
      <point x="627" y="871"/>
      <point x="466" y="780"/>
      <point x="354" y="640"/>
      <point x="335" y="562" type="qcurve"/>
      <point x="206" y="0" type="line"/>
      <point x="55" y="0" type="line"/>
      <point x="285" y="999" type="line"/>
      <point x="435" y="999" type="line"/>
      <point x="398" y="848" type="line"/>
      <point x="468" y="930"/>
      <point x="653" y="1016"/>
      <point x="741" y="1016" type="qcurve" smooth="yes"/>
      <point x="883" y="1016"/>
      <point x="1017" y="864"/>
      <point x="1017" y="737" type="qcurve" smooth="yes"/>
      <point x="1017" y="673"/>
      <point x="1000" y="600" type="qcurve" smooth="yes"/>
      <point x="840" y="-91" type="line" smooth="yes"/>
      <point x="824" y="-161"/>
      <point x="765" y="-279"/>
      <point x="628" y="-369"/>
    </contour>
  </outline>
</glyph>
<glyph name="Tbar" format="2">
  <advance width="1247"/>
  <unicode hex="0166"/>
  <outline>
    <contour>
      <point x="589" y="0" type="line"/>
      <point x="428" y="0" type="line"/>
      <point x="578" y="648" type="line"/>
      <point x="345" y="648" type="line"/>
      <point x="372" y="764" type="line"/>
      <point x="604" y="764" type="line"/>
      <point x="724" y="1282" type="line"/>
      <point x="247" y="1282" type="line"/>
      <point x="277" y="1413" type="line"/>
      <point x="1391" y="1413" type="line"/>
      <point x="1361" y="1282" type="line"/>
      <point x="884" y="1282" type="line"/>
      <point x="765" y="764" type="line"/>
      <point x="1006" y="764" type="line"/>
      <point x="979" y="648" type="line"/>
      <point x="738" y="648" type="line"/>
    </contour>
  </outline>
</glyph>
<glyph name="tbar" format="2">
  <advance width="675"/>
  <unicode hex="0167"/>
  <outline>
    <contour>
      <point x="338" y="-20" type="qcurve" smooth="yes"/>
      <point x="232" y="-20"/>
      <point x="136" y="81"/>
      <point x="136" y="168" type="qcurve" smooth="yes"/>
      <point x="136" y="219"/>
      <point x="149" y="272" type="qcurve" smooth="yes"/>
      <point x="188" y="441" type="line"/>
      <point x="-11" y="441" type="line"/>
      <point x="16" y="557" type="line"/>
      <point x="215" y="557" type="line"/>
      <point x="289" y="877" type="line"/>
      <point x="132" y="877" type="line"/>
      <point x="159" y="999" type="line"/>
      <point x="317" y="999" type="line"/>
      <point x="367" y="1224" type="line"/>
      <point x="549" y="1364" type="line"/>
      <point x="466" y="999" type="line"/>
      <point x="721" y="999" type="line"/>
      <point x="694" y="877" type="line"/>
      <point x="439" y="877" type="line"/>
      <point x="365" y="557" type="line"/>
      <point x="650" y="557" type="line"/>
      <point x="623" y="441" type="line"/>
      <point x="338" y="441" type="line"/>
      <point x="295" y="257" type="line" smooth="yes"/>
      <point x="287" y="220"/>
      <point x="287" y="197" type="qcurve" smooth="yes"/>
      <point x="287" y="147"/>
      <point x="337" y="103"/>
      <point x="377" y="103" type="qcurve" smooth="yes"/>
      <point x="425" y="103"/>
      <point x="490" y="131" type="qcurve"/>
      <point x="470" y="-2" type="line"/>
      <point x="451" y="-9"/>
      <point x="378" y="-20"/>
    </contour>
  </outline>
</glyph>
<glyph name="clickretroflex" format="2">
  <advance width="651"/>
  <unicode hex="01C3"/>
  <outline>
    <contour>
      <point x="354" y="379" type="line"/>
      <point x="242" y="379" type="line"/>
      <point x="458" y="1435" type="line"/>
      <point x="627" y="1435" type="line"/>
    </contour>
    <contour>
      <point x="308" y="0" type="line"/>
      <point x="114" y="0" type="line"/>
      <point x="157" y="192" type="line"/>
      <point x="351" y="192" type="line"/>
    </contour>
  </outline>
</glyph>
<glyph name="aemacron" format="2">
  <advance width="1694"/>
  <unicode hex="01E3"/>
  <outline>
    <contour>
      <point x="1278" y="1196" type="line"/>
      <point x="745" y="1196" type="line"/>
      <point x="771" y="1313" type="line"/>
      <point x="1304" y="1313" type="line"/>
    </contour>
    <contour>
      <point x="313" y="-20" type="qcurve" smooth="yes"/>
      <point x="195" y="-20"/>
      <point x="42" y="106"/>
      <point x="42" y="217" type="qcurve" smooth="yes"/>
      <point x="42" y="252"/>
      <point x="51" y="291" type="qcurve" smooth="yes"/>
      <point x="84" y="437"/>
      <point x="306" y="573"/>
      <point x="474" y="573" type="qcurve"/>
      <point x="793" y="578" type="line"/>
      <point x="811" y="658"/>
      <point x="811" y="711" type="qcurve" smooth="yes"/>
      <point x="811" y="896"/>
      <point x="623" y="896" type="qcurve" smooth="yes"/>
      <point x="529" y="896"/>
      <point x="369" y="807"/>
      <point x="312" y="742" type="qcurve"/>
      <point x="211" y="828" type="line"/>
      <point x="306" y="927"/>
      <point x="511" y="1016"/>
      <point x="630" y="1016" type="qcurve" smooth="yes"/>
      <point x="761" y="1016"/>
      <point x="904" y="914"/>
      <point x="923" y="826" type="qcurve"/>
      <point x="1062" y="1012"/>
      <point x="1288" y="1012" type="qcurve" smooth="yes"/>
      <point x="1621" y="1012"/>
      <point x="1621" y="678" type="qcurve" smooth="yes"/>
      <point x="1621" y="572"/>
      <point x="1589" y="444" type="qcurve"/>
      <point x="891" y="444" type="line"/>
      <point x="880" y="395"/>
      <point x="880" y="343" type="qcurve" smooth="yes"/>
      <point x="880" y="233"/>
      <point x="997" y="118"/>
      <point x="1100" y="118" type="qcurve" smooth="yes"/>
      <point x="1196" y="118"/>
      <point x="1346" y="173"/>
      <point x="1414" y="232" type="qcurve"/>
      <point x="1502" y="138" type="line"/>
      <point x="1411" y="60"/>
      <point x="1215" y="-12"/>
      <point x="1095" y="-12" type="qcurve" smooth="yes"/>
      <point x="937" y="-12"/>
      <point x="776" y="140"/>
      <point x="765" y="268" type="qcurve"/>
      <point x="593" y="-20"/>
    </contour>
    <contour>
      <point x="921" y="568" type="qcurve"/>
      <point x="1482" y="578" type="line"/>
      <point x="1494" y="634"/>
      <point x="1494" y="679" type="qcurve" smooth="yes"/>
      <point x="1494" y="772"/>
      <point x="1390" y="879"/>
      <point x="1281" y="879" type="qcurve" smooth="yes"/>
      <point x="1187" y="879"/>
      <point x="1042" y="792"/>
      <point x="944" y="652"/>
    </contour>
    <contour>
      <point x="351" y="108" type="qcurve" smooth="yes"/>
      <point x="449" y="108"/>
      <point x="622" y="209"/>
      <point x="744" y="365"/>
      <point x="766" y="454" type="qcurve"/>
      <point x="471" y="449" type="line"/>
      <point x="380" y="449"/>
      <point x="224" y="351"/>
      <point x="202" y="261" type="qcurve" smooth="yes"/>
      <point x="199" y="248"/>
      <point x="199" y="235" type="qcurve" smooth="yes"/>
      <point x="199" y="196"/>
      <point x="246" y="139"/>
      <point x="316" y="108"/>
    </contour>
  </outline>
</glyph>
<glyph name="DZ" format="2">
  <advance width="2695"/>
  <unicode hex="01F1"/>
  <outline>
    <contour>
      <point x="463" y="0" type="qcurve" smooth="yes"/>
      <point x="100" y="0" type="line"/>
      <point x="426" y="1413" type="line"/>
      <point x="780" y="1413" type="line" smooth="yes"/>
      <point x="1070" y="1413"/>
      <point x="1359" y="1151"/>
      <point x="1359" y="914" type="qcurve" smooth="yes"/>
      <point x="1359" y="804"/>
      <point x="1330" y="682" type="qcurve" smooth="yes"/>
      <point x="1249" y="347"/>
      <point x="800" y="0"/>
    </contour>
    <contour>
      <point x="2477" y="0" type="line"/>
      <point x="1389" y="0" type="line"/>
      <point x="1415" y="124" type="line"/>
      <point x="2567" y="1276" type="line"/>
      <point x="1728" y="1276" type="line"/>
      <point x="1760" y="1413" type="line"/>
      <point x="2803" y="1413" type="line"/>
      <point x="2775" y="1283" type="line"/>
      <point x="1629" y="144" type="line"/>
      <point x="2511" y="144" type="line"/>
    </contour>
    <contour>
      <point x="462" y="145" type="line" smooth="yes"/>
      <point x="623" y="145"/>
      <point x="917" y="266"/>
      <point x="1030" y="400" type="qcurve"/>
      <point x="1135" y="529"/>
      <point x="1180" y="721" type="qcurve"/>
      <point x="1203" y="824"/>
      <point x="1203" y="905" type="qcurve" smooth="yes"/>
      <point x="1203" y="1271"/>
      <point x="755" y="1271" type="qcurve" smooth="yes"/>
      <point x="553" y="1271" type="line"/>
      <point x="293" y="145" type="line"/>
    </contour>
  </outline>
</glyph>
<glyph name="oopen" format="2">
  <advance width="973"/>
  <unicode hex="0254"/>
  <outline>
    <contour>
      <point x="344" y="-20" type="qcurve" smooth="yes"/>
      <point x="199" y="-20"/>
      <point x="31" y="126"/>
      <point x="5" y="248" type="qcurve"/>
      <point x="155" y="295" type="line"/>
      <point x="160" y="203"/>
      <point x="267" y="107"/>
      <point x="349" y="107" type="qcurve" smooth="yes"/>
      <point x="447" y="107"/>
      <point x="597" y="216"/>
      <point x="700" y="385"/>
      <point x="752" y="574"/>
      <point x="752" y="654" type="qcurve" smooth="yes"/>
      <point x="752" y="758"/>
      <point x="658" y="888"/>
      <point x="553" y="888" type="qcurve" smooth="yes"/>
      <point x="454" y="888"/>
      <point x="292" y="774"/>
      <point x="249" y="687" type="qcurve"/>
      <point x="132" y="757" type="line"/>
      <point x="210" y="889"/>
      <point x="430" y="1016"/>
      <point x="558" y="1016" type="qcurve" smooth="yes"/>
      <point x="673" y="1016"/>
      <point x="824" y="922"/>
      <point x="899" y="756"/>
      <point x="899" y="650" type="qcurve" smooth="yes"/>
      <point x="899" y="553"/>
      <point x="838" y="334"/>
      <point x="775" y="233" type="qcurve" smooth="yes"/>
      <point x="729" y="159"/>
      <point x="601" y="46"/>
      <point x="440" y="-20"/>
    </contour>
  </outline>
</glyph>
<glyph name="circumflex" format="2">
  <advance width="758"/>
  <unicode hex="02C6"/>
  <outline>
    <contour>
      <point x="891" y="1098" type="line"/>
      <point x="735" y="1098" type="line"/>
      <point x="613" y="1284" type="line"/>
      <point x="400" y="1098" type="line"/>
      <point x="234" y="1098" type="line"/>
      <point x="644" y="1453" type="line"/>
    </contour>
  </outline>
</glyph>
<glyph name="caron" format="2">
  <advance width="761"/>
  <unicode hex="02C7"/>
  <outline>
    <contour>
      <point x="513" y="1081" type="line"/>
      <point x="260" y="1413" type="line"/>
      <point x="418" y="1413" type="line"/>
      <point x="540" y="1232" type="line"/>
      <point x="753" y="1413" type="line"/>
      <point x="917" y="1413" type="line"/>
    </contour>
  </outline>
</glyph>
<glyph name="colontriangularmod" format="2">
  <advance width="479"/>
  <unicode hex="02D0"/>
  <outline>
    <contour>
      <point x="259" y="637" type="line"/>
      <point x="29" y="999" type="line"/>
      <point x="431" y="1037" type="line"/>
    </contour>
    <contour>
      <point x="48" y="-38" type="line"/>
      <point x="220" y="362" type="line"/>
      <point x="451" y="0" type="line"/>
    </contour>
  </outline>
</glyph>
<glyph name="dotaccent" format="2">
  <advance width="526"/>
  <unicode hex="02D9"/>
  <outline>
    <contour>
      <point x="513" y="1221" type="line"/>
      <point x="340" y="1221" type="line"/>
      <point x="385" y="1413" type="line"/>
      <point x="557" y="1413" type="line"/>
    </contour>
  </outline>
</glyph>
<glyph name="ogonek" format="2">
  <advance width="596"/>
  <unicode hex="02DB"/>
  <outline>
    <contour>
      <point x="164" y="-451" type="qcurve" smooth="yes"/>
      <point x="87" y="-451"/>
      <point x="-9" y="-363"/>
      <point x="-9" y="-286" type="qcurve" smooth="yes"/>
      <point x="-9" y="-189"/>
      <point x="60" y="-116" type="qcurve"/>
      <point x="148" y="-27"/>
      <point x="259" y="2" type="qcurve"/>
      <point x="384" y="-1" type="line"/>
      <point x="351" y="-15"/>
      <point x="244" y="-66"/>
      <point x="120" y="-174"/>
      <point x="104" y="-244" type="qcurve" smooth="yes"/>
      <point x="100" y="-259"/>
      <point x="100" y="-275" type="qcurve" smooth="yes"/>
      <point x="100" y="-306"/>
      <point x="133" y="-337"/>
      <point x="158" y="-337" type="qcurve" smooth="yes"/>
      <point x="242" y="-337"/>
      <point x="303" y="-268" type="qcurve"/>
      <point x="386" y="-343" type="line"/>
      <point x="336" y="-398"/>
      <point x="230" y="-451"/>
    </contour>
  </outline>
</glyph>
<glyph name="hungarumlaut" format="2">
  <advance width="866"/>
  <unicode hex="02DD"/>
  <outline>
    <contour>
      <point x="347" y="1119" type="line"/>
      <point x="209" y="1119" type="line"/>
      <point x="493" y="1413" type="line"/>
      <point x="685" y="1413" type="line"/>
    </contour>
    <contour>
      <point x="677" y="1119" type="line"/>
      <point x="539" y="1119" type="line"/>
      <point x="823" y="1413" type="line"/>
      <point x="1020" y="1413" type="line"/>
    </contour>
  </outline>
</glyph>
<glyph name="circumflexcmb" format="2">
  <unicode hex="0302"/>
  <anchor x="-264" y="999" name="_t.ringcmb_1"/>
  <outline>
    <contour>
      <point x="85" y="1098" type="line"/>
      <point x="-71" y="1098" type="line"/>
      <point x="-193" y="1284" type="line"/>
      <point x="-406" y="1098" type="line"/>
      <point x="-572" y="1098" type="line"/>
      <point x="-162" y="1453" type="line"/>
    </contour>
  </outline>
</glyph>
<glyph name="tildecmb" format="2">
  <unicode hex="0303"/>
  <anchor x="-273" y="1002" name="_t.ringcmb_1"/>
  <outline>
    <contour>
      <point x="-107" y="1149" type="qcurve" smooth="yes"/>
      <point x="-161" y="1149"/>
      <point x="-224" y="1201"/>
      <point x="-250" y="1245" type="qcurve" smooth="yes"/>
      <point x="-270" y="1277"/>
      <point x="-301" y="1306"/>
      <point x="-322" y="1306" type="qcurve" smooth="yes"/>
      <point x="-362" y="1306"/>
      <point x="-421" y="1226"/>
      <point x="-435" y="1169" type="qcurve"/>
      <point x="-536" y="1169" type="line"/>
      <point x="-511" y="1283"/>
      <point x="-404" y="1419"/>
      <point x="-323" y="1419" type="qcurve" smooth="yes"/>
      <point x="-264" y="1419"/>
      <point x="-198" y="1365"/>
      <point x="-173" y="1319" type="qcurve"/>
      <point x="-154" y="1288"/>
      <point x="-126" y="1260"/>
      <point x="-106" y="1260" type="qcurve" smooth="yes"/>
      <point x="-64" y="1260"/>
      <point x="-3" y="1346"/>
      <point x="14" y="1413" type="qcurve"/>
      <point x="120" y="1413" type="line"/>
      <point x="59" y="1149"/>
    </contour>
  </outline>
</glyph>
<glyph name="brevecmb" format="2">
  <unicode hex="0306"/>
  <anchor x="-303" y="999" name="_t.ringcmb_1"/>
  <outline>
    <contour>
      <point x="-257" y="1143" type="qcurve" smooth="yes"/>
      <point x="-373" y="1143"/>
      <point x="-520" y="1248"/>
      <point x="-520" y="1347" type="qcurve" smooth="yes"/>
      <point x="-520" y="1382"/>
      <point x="-512" y="1413" type="qcurve"/>
      <point x="-380" y="1413" type="line"/>
      <point x="-385" y="1390"/>
      <point x="-385" y="1373" type="qcurve" smooth="yes"/>
      <point x="-385" y="1315"/>
      <point x="-310" y="1257"/>
      <point x="-254" y="1257" type="qcurve" smooth="yes"/>
      <point x="-178" y="1257"/>
      <point x="-54" y="1346"/>
      <point x="-35" y="1413" type="qcurve"/>
      <point x="97" y="1413" type="line"/>
      <point x="64" y="1274"/>
      <point x="-129" y="1143"/>
    </contour>
  </outline>
</glyph>
<glyph name="hungarumlautcmb" format="2">
  <unicode hex="030B"/>
  <anchor x="-420" y="999" name="_t.ringcmb_1"/>
  <outline>
    <contour>
      <point x="-517" y="1119" type="line"/>
      <point x="-655" y="1119" type="line"/>
      <point x="-371" y="1413" type="line"/>
      <point x="-179" y="1413" type="line"/>
    </contour>
    <contour>
      <point x="-187" y="1119" type="line"/>
      <point x="-325" y="1119" type="line"/>
      <point x="-41" y="1413" type="line"/>
      <point x="156" y="1413" type="line"/>
    </contour>
  </outline>
</glyph>
<glyph name="uni0326" format="2">
  <unicode hex="0326"/>
  <anchor x="-291" y="0" name="_b.uni0326"/>
  <anchor x="-291" y="0" name="_b.uni0326_2"/>
  <anchor x="-455" y="-446" name="b.uni0326_2"/>
  <outline>
    <contour>
      <point x="-512" y="-446" type="line"/>
      <point x="-623" y="-446" type="line"/>
      <point x="-422" y="-111" type="line"/>
      <point x="-207" y="-111" type="line"/>
    </contour>
  </outline>
</glyph>
<glyph name="ogonekcmb" format="2">
  <unicode hex="0328"/>
  <anchor x="-298" y="0" name="_b.ogonekcmb_2"/>
  <outline>
    <contour>
      <point x="-488" y="-451" type="qcurve" smooth="yes"/>
      <point x="-565" y="-451"/>
      <point x="-661" y="-363"/>
      <point x="-661" y="-286" type="qcurve" smooth="yes"/>
      <point x="-661" y="-189"/>
      <point x="-592" y="-116" type="qcurve"/>
      <point x="-504" y="-27"/>
      <point x="-393" y="2" type="qcurve"/>
      <point x="-268" y="-1" type="line"/>
      <point x="-301" y="-15"/>
      <point x="-408" y="-66"/>
      <point x="-532" y="-174"/>
      <point x="-548" y="-244" type="qcurve" smooth="yes"/>
      <point x="-552" y="-259"/>
      <point x="-552" y="-275" type="qcurve" smooth="yes"/>
      <point x="-552" y="-306"/>
      <point x="-519" y="-337"/>
      <point x="-494" y="-337" type="qcurve" smooth="yes"/>
      <point x="-410" y="-337"/>
      <point x="-349" y="-268" type="qcurve"/>
      <point x="-266" y="-343" type="line"/>
      <point x="-316" y="-398"/>
      <point x="-422" y="-451"/>
    </contour>
  </outline>
</glyph>
<glyph name="afii10051" format="2">
  <advance width="1631"/>
  <unicode hex="0402"/>
  <outline>
    <contour>
      <point x="1031" y="-17" type="qcurve" smooth="yes"/>
      <point x="927" y="-17"/>
      <point x="775" y="52"/>
      <point x="733" y="114" type="qcurve"/>
      <point x="851" y="211" type="line"/>
      <point x="902" y="127"/>
      <point x="1037" y="127" type="qcurve" smooth="yes"/>
      <point x="1110" y="127"/>
      <point x="1240" y="218"/>
      <point x="1335" y="372"/>
      <point x="1381" y="569"/>
      <point x="1381" y="640" type="qcurve" smooth="yes"/>
      <point x="1381" y="752"/>
      <point x="1255" y="851"/>
      <point x="1123" y="851" type="qcurve" smooth="yes"/>
      <point x="1011" y="851"/>
      <point x="812" y="764"/>
      <point x="747" y="699" type="qcurve"/>
      <point x="582" y="0" type="line"/>
      <point x="424" y="0" type="line"/>
      <point x="719" y="1284" type="line"/>
      <point x="240" y="1284" type="line"/>
      <point x="271" y="1413" type="line"/>
      <point x="1385" y="1413" type="line"/>
      <point x="1355" y="1284" type="line"/>
      <point x="878" y="1284" type="line"/>
      <point x="780" y="880" type="line"/>
      <point x="952" y="1001"/>
      <point x="1134" y="1001" type="qcurve" smooth="yes"/>
      <point x="1538" y="1001"/>
      <point x="1538" y="646" type="qcurve" smooth="yes"/>
      <point x="1538" y="557"/>
      <point x="1512" y="444" type="qcurve" smooth="yes"/>
      <point x="1483" y="320"/>
      <point x="1344" y="109"/>
      <point x="1240" y="44" type="qcurve" smooth="yes"/>
      <point x="1140" y="-17"/>
    </contour>
  </outline>
</glyph>
<glyph name="afii10145" format="2">
  <advance width="1453"/>
  <unicode hex="040F"/>
  <outline>
    <contour>
      <point x="619" y="-307" type="line"/>
      <point x="462" y="-307" type="line"/>
      <point x="533" y="0" type="line"/>
      <point x="97" y="0" type="line"/>
      <point x="423" y="1413" type="line"/>
      <point x="580" y="1413" type="line"/>
      <point x="285" y="137" type="line"/>
      <point x="1000" y="137" type="line"/>
      <point x="1295" y="1413" type="line"/>
      <point x="1452" y="1413" type="line"/>
      <point x="1127" y="0" type="line"/>
      <point x="691" y="0" type="line"/>
    </contour>
  </outline>
</glyph>
<glyph name="afii10018" format="2">
  <advance width="1251"/>
  <unicode hex="0411"/>
  <outline>
    <contour>
      <point x="569" y="0" type="qcurve" smooth="yes"/>
      <point x="100" y="0" type="line"/>
      <point x="426" y="1413" type="line"/>
      <point x="1172" y="1413" type="line"/>
      <point x="1139" y="1270" type="line"/>
      <point x="550" y="1270" type="line"/>
      <point x="441" y="793" type="line"/>
      <point x="767" y="793" type="line" smooth="yes"/>
      <point x="871" y="793"/>
      <point x="1028" y="729"/>
      <point x="1116" y="599"/>
      <point x="1116" y="499" type="qcurve" smooth="yes"/>
      <point x="1116" y="417"/>
      <point x="1059" y="244"/>
      <point x="998" y="174" type="qcurve"/>
      <point x="919" y="86"/>
      <point x="696" y="0"/>
    </contour>
    <contour>
      <point x="596" y="147" type="line" smooth="yes"/>
      <point x="710" y="147"/>
      <point x="919" y="292"/>
      <point x="951" y="415" type="qcurve"/>
      <point x="957" y="444"/>
      <point x="957" y="470" type="qcurve" smooth="yes"/>
      <point x="957" y="529"/>
      <point x="896" y="608"/>
      <point x="791" y="648"/>
      <point x="726" y="648" type="qcurve" smooth="yes"/>
      <point x="406" y="648" type="line"/>
      <point x="292" y="147" type="line"/>
    </contour>
  </outline>
</glyph>
<glyph name="afii10020" format="2">
  <advance width="1078"/>
  <unicode hex="0413"/>
  <outline>
    <contour>
      <point x="258" y="0" type="line"/>
      <point x="100" y="0" type="line"/>
      <point x="426" y="1413" type="line"/>
      <point x="1223" y="1413" type="line"/>
      <point x="1192" y="1278" type="line"/>
      <point x="553" y="1278" type="line"/>
    </contour>
  </outline>
</glyph>
<glyph name="afii10021" format="2">
  <advance width="1463"/>
  <unicode hex="0414"/>
  <outline>
    <contour>
      <point x="1230" y="-253" type="line"/>
      <point x="1073" y="-253" type="line"/>
      <point x="1131" y="0" type="line"/>
      <point x="104" y="0" type="line"/>
      <point x="45" y="-253" type="line"/>
      <point x="-112" y="-253" type="line"/>
      <point x="-23" y="137" type="line"/>
      <point x="100" y="137" type="line"/>
      <point x="872" y="1413" type="line"/>
      <point x="1009" y="1413" type="line"/>
      <point x="1195" y="137" type="line"/>
      <point x="1319" y="137" type="line"/>
    </contour>
    <contour>
      <point x="1035" y="137" type="line"/>
      <point x="900" y="1203" type="line"/>
      <point x="265" y="137" type="line"/>
    </contour>
  </outline>
</glyph>
<glyph name="afii10033" format="2">
  <advance width="1453"/>
  <unicode hex="041F"/>
  <outline>
    <contour>
      <point x="1127" y="0" type="line"/>
      <point x="970" y="0" type="line"/>
      <point x="1264" y="1278" type="line"/>
      <point x="549" y="1278" type="line"/>
      <point x="254" y="0" type="line"/>
      <point x="97" y="0" type="line"/>
      <point x="423" y="1413" type="line"/>
      <point x="1452" y="1413" type="line"/>
    </contour>
  </outline>
</glyph>
<glyph name="afii10038" format="2">
  <advance width="1700"/>
  <unicode hex="0424"/>
  <outline>
    <contour>
      <point x="815" y="0" type="line"/>
      <point x="655" y="0" type="line"/>
      <point x="688" y="116" type="line"/>
      <point x="429" y="116"/>
      <point x="155" y="319"/>
      <point x="155" y="529" type="qcurve" smooth="yes"/>
      <point x="155" y="615"/>
      <point x="179" y="720" type="qcurve" smooth="yes"/>
      <point x="222" y="908"/>
      <point x="418" y="1172"/>
      <point x="732" y="1312"/>
      <point x="952" y="1312" type="qcurve"/>
      <point x="981" y="1413" type="line"/>
      <point x="1140" y="1413" type="line"/>
      <point x="1111" y="1312" type="line"/>
      <point x="1294" y="1312"/>
      <point x="1529" y="1210"/>
      <point x="1641" y="1019"/>
      <point x="1641" y="886" type="qcurve" smooth="yes"/>
      <point x="1641" y="797"/>
      <point x="1617" y="692" type="qcurve" smooth="yes"/>
      <point x="1550" y="399"/>
      <point x="1163" y="116"/>
      <point x="847" y="116" type="qcurve"/>
    </contour>
    <contour>
      <point x="709" y="261" type="qcurve"/>
      <point x="930" y="1167" type="line"/>
      <point x="758" y="1167"/>
      <point x="513" y="1053"/>
      <point x="361" y="841"/>
      <point x="328" y="692" type="qcurve" smooth="yes"/>
      <point x="309" y="608"/>
      <point x="309" y="547" type="qcurve" smooth="yes"/>
      <point x="309" y="398"/>
      <point x="510" y="261"/>
    </contour>
    <contour>
      <point x="868" y="261" type="line"/>
      <point x="1111" y="261"/>
      <point x="1413" y="485"/>
      <point x="1468" y="720" type="qcurve"/>
      <point x="1487" y="806"/>
      <point x="1487" y="867" type="qcurve" smooth="yes"/>
      <point x="1487" y="1167"/>
      <point x="1094" y="1167" type="qcurve" smooth="yes"/>
      <point x="1089" y="1167" type="line"/>
    </contour>
  </outline>
</glyph>
<glyph name="afii10040" format="2">
  <advance width="1480"/>
  <unicode hex="0426"/>
  <outline>
    <contour>
      <point x="1215" y="-253" type="line"/>
      <point x="1059" y="-253" type="line"/>
      <point x="1118" y="0" type="line"/>
      <point x="100" y="0" type="line"/>
      <point x="426" y="1413" type="line"/>
      <point x="583" y="1413" type="line"/>
      <point x="288" y="137" type="line"/>
      <point x="1003" y="137" type="line"/>
      <point x="1298" y="1413" type="line"/>
      <point x="1456" y="1413" type="line"/>
      <point x="1160" y="137" type="line"/>
      <point x="1304" y="137" type="line"/>
    </contour>
  </outline>
</glyph>
<glyph name="afii10044" format="2">
  <advance width="1367"/>
  <unicode hex="042A"/>
  <outline>
    <contour>
      <point x="719" y="0" type="qcurve" smooth="yes"/>
      <point x="318" y="0" type="line"/>
      <point x="614" y="1285" type="line"/>
      <point x="240" y="1285" type="line"/>
      <point x="271" y="1413" type="line"/>
      <point x="801" y="1413" type="line"/>
      <point x="654" y="776" type="line"/>
      <point x="888" y="776" type="line" smooth="yes"/>
      <point x="1001" y="776"/>
      <point x="1170" y="711"/>
      <point x="1265" y="579"/>
      <point x="1265" y="481" type="qcurve" smooth="yes"/>
      <point x="1265" y="397"/>
      <point x="1202" y="235"/>
      <point x="1151" y="174" type="qcurve"/>
      <point x="1074" y="87"/>
      <point x="852" y="0"/>
    </contour>
    <contour>
      <point x="741" y="141" type="line" smooth="yes"/>
      <point x="880" y="141"/>
      <point x="1074" y="279"/>
      <point x="1104" y="406" type="qcurve" smooth="yes"/>
      <point x="1112" y="443"/>
      <point x="1112" y="469" type="qcurve" smooth="yes"/>
      <point x="1112" y="553"/>
      <point x="984" y="635"/>
      <point x="866" y="635" type="qcurve" smooth="yes"/>
      <point x="622" y="635" type="line"/>
      <point x="507" y="141" type="line"/>
    </contour>
  </outline>
</glyph>
<glyph name="afii10045" format="2">
  <advance width="1627"/>
  <unicode hex="042B"/>
  <outline>
    <contour>
      <point x="498" y="0" type="qcurve" smooth="yes"/>
      <point x="97" y="0" type="line"/>
      <point x="423" y="1413" type="line"/>
      <point x="581" y="1413" type="line"/>
      <point x="435" y="776" type="line"/>
      <point x="666" y="776" type="line" smooth="yes"/>
      <point x="779" y="776"/>
      <point x="950" y="710"/>
      <point x="1045" y="578"/>
      <point x="1045" y="479" type="qcurve" smooth="yes"/>
      <point x="1045" y="402"/>
      <point x="987" y="240"/>
      <point x="931" y="174" type="qcurve"/>
      <point x="854" y="87"/>
      <point x="632" y="0"/>
    </contour>
    <contour>
      <point x="1300" y="0" type="line"/>
      <point x="1143" y="0" type="line"/>
      <point x="1469" y="1413" type="line"/>
      <point x="1626" y="1413" type="line"/>
    </contour>
    <contour>
      <point x="519" y="141" type="line" smooth="yes"/>
      <point x="660" y="141"/>
      <point x="853" y="279"/>
      <point x="883" y="406" type="qcurve" smooth="yes"/>
      <point x="891" y="443"/>
      <point x="891" y="469" type="qcurve" smooth="yes"/>
      <point x="891" y="553"/>
      <point x="763" y="635"/>
      <point x="645" y="635" type="qcurve" smooth="yes"/>
      <point x="402" y="635" type="line"/>
      <point x="288" y="141" type="line"/>
    </contour>
  </outline>
</glyph>
<glyph name="afii10046" format="2">
  <advance width="1148"/>
  <unicode hex="042C"/>
  <outline>
    <contour>
      <point x="498" y="0" type="qcurve" smooth="yes"/>
      <point x="97" y="0" type="line"/>
      <point x="423" y="1413" type="line"/>
      <point x="581" y="1413" type="line"/>
      <point x="435" y="776" type="line"/>
      <point x="666" y="776" type="line" smooth="yes"/>
      <point x="779" y="776"/>
      <point x="950" y="710"/>
      <point x="1045" y="578"/>
      <point x="1045" y="479" type="qcurve" smooth="yes"/>
      <point x="1045" y="402"/>
      <point x="987" y="240"/>
      <point x="931" y="174" type="qcurve"/>
      <point x="854" y="87"/>
      <point x="632" y="0"/>
    </contour>
    <contour>
      <point x="519" y="141" type="line" smooth="yes"/>
      <point x="660" y="141"/>
      <point x="853" y="279"/>
      <point x="883" y="406" type="qcurve" smooth="yes"/>
      <point x="891" y="443"/>
      <point x="891" y="469" type="qcurve" smooth="yes"/>
      <point x="891" y="553"/>
      <point x="763" y="635"/>
      <point x="645" y="635" type="qcurve" smooth="yes"/>
      <point x="402" y="635" type="line"/>
      <point x="288" y="141" type="line"/>
    </contour>
  </outline>
</glyph>
<glyph name="afii10066" format="2">
  <advance width="1185"/>
  <unicode hex="0431"/>
  <outline>
    <contour>
      <point x="526" y="-20" type="qcurve" smooth="yes"/>
      <point x="410" y="-20"/>
      <point x="250" y="74"/>
      <point x="166" y="239"/>
      <point x="166" y="345" type="qcurve" smooth="yes"/>
      <point x="166" y="414"/>
      <point x="182" y="482" type="qcurve" smooth="yes"/>
      <point x="258" y="817" type="line"/>
      <point x="299" y="991"/>
      <point x="465" y="1195"/>
      <point x="568" y="1253" type="qcurve"/>
      <point x="802" y="1360"/>
      <point x="1083" y="1436" type="qcurve"/>
      <point x="1059" y="1287" type="line"/>
      <point x="875" y="1227"/>
      <point x="680" y="1153"/>
      <point x="625" y="1119" type="qcurve"/>
      <point x="526" y="1068"/>
      <point x="417" y="915"/>
      <point x="390" y="795" type="qcurve" smooth="yes"/>
      <point x="389" y="790" type="line"/>
      <point x="457" y="862"/>
      <point x="652" y="959"/>
      <point x="764" y="959" type="qcurve" smooth="yes"/>
      <point x="877" y="959"/>
      <point x="1028" y="867"/>
      <point x="1104" y="708"/>
      <point x="1104" y="605" type="qcurve" smooth="yes"/>
      <point x="1104" y="507"/>
      <point x="1038" y="305"/>
      <point x="973" y="217" type="qcurve" smooth="yes"/>
      <point x="893" y="110"/>
      <point x="662" y="-20"/>
    </contour>
    <contour>
      <point x="530" y="104" type="qcurve" smooth="yes"/>
      <point x="638" y="104"/>
      <point x="800" y="208"/>
      <point x="904" y="380"/>
      <point x="928" y="485" type="qcurve" smooth="yes"/>
      <point x="943" y="548"/>
      <point x="943" y="608" type="qcurve" smooth="yes"/>
      <point x="943" y="711"/>
      <point x="837" y="833"/>
      <point x="722" y="833" type="qcurve" smooth="yes"/>
      <point x="617" y="833"/>
      <point x="457" y="728"/>
      <point x="351" y="558"/>
      <point x="328" y="456" type="qcurve" smooth="yes"/>
      <point x="312" y="386"/>
      <point x="312" y="330" type="qcurve" smooth="yes"/>
      <point x="312" y="263"/>
      <point x="356" y="161"/>
      <point x="452" y="104"/>
    </contour>
  </outline>
</glyph>
<glyph name="afii10069" format="2">
  <advance width="1135"/>
  <unicode hex="0434"/>
  <outline>
    <contour>
      <point x="335" y="-433" type="qcurve" smooth="yes"/>
      <point x="199" y="-433"/>
      <point x="20" y="-326"/>
      <point x="-21" y="-230" type="qcurve"/>
      <point x="107" y="-157" type="line"/>
      <point x="162" y="-304"/>
      <point x="342" y="-304" type="qcurve" smooth="yes"/>
      <point x="436" y="-304"/>
      <point x="581" y="-223"/>
      <point x="677" y="-83"/>
      <point x="698" y="7" type="qcurve"/>
      <point x="731" y="136" type="line"/>
      <point x="591" y="-16"/>
      <point x="399" y="-16" type="qcurve" smooth="yes"/>
      <point x="293" y="-16"/>
      <point x="152" y="75"/>
      <point x="81" y="236"/>
      <point x="81" y="342" type="qcurve" smooth="yes"/>
      <point x="81" y="445"/>
      <point x="145" y="671"/>
      <point x="207" y="772" type="qcurve" smooth="yes"/>
      <point x="276" y="883"/>
      <point x="483" y="1020"/>
      <point x="614" y="1020" type="qcurve" smooth="yes"/>
      <point x="720" y="1020"/>
      <point x="859" y="930"/>
      <point x="891" y="856" type="qcurve"/>
      <point x="927" y="999" type="line"/>
      <point x="1077" y="999" type="line"/>
      <point x="844" y="-7" type="line" smooth="yes"/>
      <point x="814" y="-136"/>
      <point x="681" y="-327"/>
      <point x="474" y="-433"/>
    </contour>
    <contour>
      <point x="440" y="116" type="qcurve" smooth="yes"/>
      <point x="542" y="116"/>
      <point x="698" y="226"/>
      <point x="802" y="407"/>
      <point x="827" y="516" type="qcurve" smooth="yes"/>
      <point x="845" y="595"/>
      <point x="845" y="656" type="qcurve" smooth="yes"/>
      <point x="845" y="723"/>
      <point x="804" y="827"/>
      <point x="714" y="887"/>
      <point x="641" y="887" type="qcurve" smooth="yes"/>
      <point x="536" y="887"/>
      <point x="377" y="772"/>
      <point x="273" y="591"/>
      <point x="250" y="487" type="qcurve" smooth="yes"/>
      <point x="233" y="414"/>
      <point x="233" y="350" type="qcurve" smooth="yes"/>
      <point x="233" y="282"/>
      <point x="275" y="176"/>
      <point x="366" y="116"/>
    </contour>
  </outline>
</glyph>
<glyph name="afii10073" format="2">
  <advance width="923"/>
  <unicode hex="0437"/>
  <outline>
    <contour>
      <point x="194" y="-457" type="qcurve" smooth="yes"/>
      <point x="64" y="-457"/>
      <point x="-98" y="-365"/>
      <point x="-163" y="-266" type="qcurve"/>
      <point x="-38" y="-187" type="line"/>
      <point x="16" y="-325"/>
      <point x="189" y="-325" type="qcurve" smooth="yes"/>
      <point x="292" y="-325"/>
      <point x="448" y="-231"/>
      <point x="550" y="-69"/>
      <point x="574" y="36" type="qcurve" smooth="yes"/>
      <point x="585" y="83"/>
      <point x="585" y="127" type="qcurve" smooth="yes"/>
      <point x="585" y="193"/>
      <point x="533" y="277"/>
      <point x="442" y="316"/>
      <point x="384" y="316" type="qcurve" smooth="yes"/>
      <point x="175" y="316" type="line"/>
      <point x="204" y="448" type="line"/>
      <point x="446" y="449" type="line"/>
      <point x="531" y="469"/>
      <point x="593" y="535" type="qcurve" smooth="yes"/>
      <point x="683" y="629"/>
      <point x="683" y="751" type="qcurve" smooth="yes"/>
      <point x="683" y="820"/>
      <point x="593" y="888"/>
      <point x="489" y="888" type="qcurve" smooth="yes"/>
      <point x="400" y="888"/>
      <point x="250" y="796"/>
      <point x="196" y="724" type="qcurve"/>
      <point x="90" y="801" type="line"/>
      <point x="163" y="901"/>
      <point x="366" y="1012"/>
      <point x="494" y="1012" type="qcurve" smooth="yes"/>
      <point x="594" y="1012"/>
      <point x="746" y="957"/>
      <point x="830" y="842"/>
      <point x="830" y="752" type="qcurve" smooth="yes"/>
      <point x="830" y="711"/>
      <point x="809" y="611"/>
      <point x="749" y="505"/>
      <point x="692" y="455" type="qcurve" smooth="yes"/>
      <point x="638" y="408"/>
      <point x="564" y="386" type="qcurve"/>
      <point x="654" y="374"/>
      <point x="739" y="229"/>
      <point x="739" y="128" type="qcurve" smooth="yes"/>
      <point x="739" y="33"/>
      <point x="670" y="-161"/>
      <point x="615" y="-237" type="qcurve" smooth="yes"/>
      <point x="536" y="-344"/>
      <point x="318" y="-457"/>
    </contour>
  </outline>
</glyph>
<glyph name="afii10079" format="2">
  <advance width="1162"/>
  <unicode hex="043D"/>
  <outline>
    <contour>
      <point x="869" y="0" type="line"/>
      <point x="720" y="0" type="line"/>
      <point x="833" y="491" type="line"/>
      <point x="328" y="491" type="line"/>
      <point x="215" y="0" type="line"/>
      <point x="63" y="0" type="line"/>
      <point x="293" y="999" type="line"/>
      <point x="444" y="999" type="line"/>
      <point x="354" y="609" type="line"/>
      <point x="859" y="609" type="line"/>
      <point x="949" y="999" type="line"/>
      <point x="1099" y="999" type="line"/>
    </contour>
  </outline>
</glyph>
<glyph name="afii10085" format="2">
  <advance width="985"/>
  <unicode hex="0443"/>
  <outline>
    <contour>
      <point x="197" y="-430" type="line"/>
      <point x="39" y="-430" type="line"/>
      <point x="309" y="7" type="line"/>
      <point x="156" y="999" type="line"/>
      <point x="319" y="999" type="line"/>
      <point x="417" y="182" type="line"/>
      <point x="894" y="999" type="line"/>
      <point x="1062" y="999" type="line"/>
    </contour>
  </outline>
</glyph>
<glyph name="afii10086" format="2">
  <advance width="1396"/>
  <unicode hex="0444"/>
  <outline>
    <contour>
      <point x="558" y="-430" type="line"/>
      <point x="408" y="-430" type="line"/>
      <point x="510" y="-17" type="line"/>
      <point x="489" y="-20"/>
      <point x="450" y="-20" type="qcurve" smooth="yes"/>
      <point x="330" y="-20"/>
      <point x="160" y="83"/>
      <point x="71" y="260"/>
      <point x="71" y="371" type="qcurve" smooth="yes"/>
      <point x="71" y="461"/>
      <point x="135" y="667"/>
      <point x="204" y="762" type="qcurve" smooth="yes"/>
      <point x="286" y="874"/>
      <point x="523" y="1011"/>
      <point x="662" y="1011" type="qcurve" smooth="yes"/>
      <point x="701" y="1011"/>
      <point x="734" y="1004" type="qcurve"/>
      <point x="834" y="1413" type="line"/>
      <point x="984" y="1413" type="line"/>
      <point x="884" y="1008" type="line"/>
      <point x="905" y="1012"/>
      <point x="942" y="1012" type="qcurve" smooth="yes"/>
      <point x="1063" y="1012"/>
      <point x="1234" y="909"/>
      <point x="1323" y="731"/>
      <point x="1323" y="619" type="qcurve" smooth="yes"/>
      <point x="1323" y="449"/>
      <point x="1142" y="137"/>
      <point x="984" y="47" type="qcurve"/>
      <point x="863" y="-20"/>
      <point x="728" y="-20" type="qcurve" smooth="yes"/>
      <point x="703" y="-20"/>
      <point x="661" y="-13" type="qcurve"/>
    </contour>
    <contour>
      <point x="458" y="112" type="qcurve" smooth="yes"/>
      <point x="499" y="112"/>
      <point x="529" y="118" type="qcurve"/>
      <point x="715" y="876" type="line"/>
      <point x="697" y="879"/>
      <point x="657" y="879" type="qcurve" smooth="yes"/>
      <point x="547" y="879"/>
      <point x="382" y="771"/>
      <point x="274" y="591"/>
      <point x="248" y="481" type="qcurve" smooth="yes"/>
      <point x="232" y="414"/>
      <point x="232" y="347" type="qcurve" smooth="yes"/>
      <point x="232" y="239"/>
      <point x="340" y="112"/>
    </contour>
    <contour>
      <point x="736" y="112" type="line" smooth="yes"/>
      <point x="846" y="112"/>
      <point x="1012" y="220"/>
      <point x="1120" y="400"/>
      <point x="1146" y="510" type="qcurve" smooth="yes"/>
      <point x="1163" y="581"/>
      <point x="1163" y="642" type="qcurve" smooth="yes"/>
      <point x="1163" y="752"/>
      <point x="1054" y="879"/>
      <point x="935" y="879" type="qcurve" smooth="yes"/>
      <point x="913" y="879"/>
      <point x="865" y="872" type="qcurve"/>
      <point x="679" y="114" type="line"/>
      <point x="689" y="112"/>
      <point x="702" y="112" type="qcurve" smooth="yes"/>
    </contour>
  </outline>
</glyph>
<glyph name="afii10091" format="2">
  <advance width="1720"/>
  <unicode hex="0449"/>
  <outline>
    <contour>
      <point x="1452" y="-307" type="line"/>
      <point x="1337" y="-307" type="line"/>
      <point x="1409" y="-23" type="line"/>
      <point x="1362" y="-23"/>
      <point x="1298" y="65"/>
      <point x="1298" y="126" type="qcurve" smooth="yes"/>
      <point x="1298" y="153"/>
      <point x="1303" y="173" type="qcurve"/>
      <point x="1249" y="83"/>
      <point x="1087" y="-18"/>
      <point x="998" y="-18" type="qcurve" smooth="yes"/>
      <point x="890" y="-18"/>
      <point x="747" y="86"/>
      <point x="731" y="184" type="qcurve"/>
      <point x="590" y="-16"/>
      <point x="382" y="-16" type="qcurve" smooth="yes"/>
      <point x="238" y="-16"/>
      <point x="102" y="137"/>
      <point x="102" y="264" type="qcurve" smooth="yes"/>
      <point x="102" y="324"/>
      <point x="118" y="398" type="qcurve"/>
      <point x="257" y="999" type="line"/>
      <point x="408" y="999" type="line"/>
      <point x="270" y="402" type="line" smooth="yes"/>
      <point x="254" y="335"/>
      <point x="254" y="277" type="qcurve" smooth="yes"/>
      <point x="254" y="109"/>
      <point x="403" y="109" type="qcurve" smooth="yes"/>
      <point x="487" y="109"/>
      <point x="629" y="205"/>
      <point x="727" y="354"/>
      <point x="746" y="438" type="qcurve" smooth="yes"/>
      <point x="875" y="999" type="line"/>
      <point x="1026" y="999" type="line"/>
      <point x="888" y="398" type="line" smooth="yes"/>
      <point x="871" y="325"/>
      <point x="871" y="271" type="qcurve" smooth="yes"/>
      <point x="871" y="109"/>
      <point x="1019" y="109" type="qcurve" smooth="yes"/>
      <point x="1104" y="109"/>
      <point x="1246" y="205"/>
      <point x="1343" y="354"/>
      <point x="1362" y="438" type="qcurve" smooth="yes"/>
      <point x="1492" y="999" type="line"/>
      <point x="1642" y="999" type="line"/>
      <point x="1460" y="206" type="line" smooth="yes"/>
      <point x="1454" y="181"/>
      <point x="1454" y="159" type="qcurve" smooth="yes"/>
      <point x="1454" y="62"/>
      <point x="1566" y="62" type="qcurve"/>
    </contour>
  </outline>
</glyph>
<glyph name="afii10093" format="2">
  <advance width="1420"/>
  <unicode hex="044B"/>
  <outline>
    <contour>
      <point x="489" y="-20" type="qcurve" smooth="yes"/>
      <point x="394" y="-20"/>
      <point x="238" y="45"/>
      <point x="146" y="176"/>
      <point x="146" y="276" type="qcurve" smooth="yes"/>
      <point x="146" y="328"/>
      <point x="159" y="383" type="qcurve" smooth="yes"/>
      <point x="300" y="999" type="line"/>
      <point x="449" y="999" type="line"/>
      <point x="370" y="675" type="line"/>
      <point x="421" y="733"/>
      <point x="569" y="809"/>
      <point x="662" y="809" type="qcurve" smooth="yes"/>
      <point x="760" y="809"/>
      <point x="921" y="742"/>
      <point x="1018" y="603"/>
      <point x="1018" y="495" type="qcurve" smooth="yes"/>
      <point x="1018" y="416"/>
      <point x="957" y="233"/>
      <point x="895" y="160" type="qcurve"/>
      <point x="811" y="65"/>
      <point x="599" y="-20"/>
    </contour>
    <contour>
      <point x="1216" y="0" type="line"/>
      <point x="1069" y="0" type="line"/>
      <point x="1298" y="999" type="line"/>
      <point x="1445" y="999" type="line"/>
    </contour>
    <contour>
      <point x="496" y="112" type="qcurve" smooth="yes"/>
      <point x="582" y="112"/>
      <point x="725" y="192"/>
      <point x="823" y="326"/>
      <point x="842" y="410" type="qcurve" smooth="yes"/>
      <point x="851" y="448"/>
      <point x="851" y="482" type="qcurve" smooth="yes"/>
      <point x="851" y="566"/>
      <point x="750" y="677"/>
      <point x="649" y="677" type="qcurve" smooth="yes"/>
      <point x="568" y="677"/>
      <point x="434" y="607"/>
      <point x="339" y="492"/>
      <point x="316" y="422" type="qcurve"/>
      <point x="299" y="356" type="line"/>
      <point x="295" y="333"/>
      <point x="295" y="306" type="qcurve" smooth="yes"/>
      <point x="295" y="220"/>
      <point x="395" y="112"/>
    </contour>
  </outline>
</glyph>
<glyph name="afii10094" format="2">
  <advance width="1113"/>
  <unicode hex="044C"/>
  <outline>
    <contour>
      <point x="472" y="-20" type="qcurve" smooth="yes"/>
      <point x="379" y="-20"/>
      <point x="223" y="44"/>
      <point x="129" y="175"/>
      <point x="129" y="277" type="qcurve" smooth="yes"/>
      <point x="129" y="328"/>
      <point x="142" y="383" type="qcurve" smooth="yes"/>
      <point x="283" y="999" type="line"/>
      <point x="432" y="999" type="line"/>
      <point x="353" y="675" type="line"/>
      <point x="406" y="734"/>
      <point x="552" y="809"/>
      <point x="645" y="809" type="qcurve" smooth="yes"/>
      <point x="741" y="809"/>
      <point x="903" y="743"/>
      <point x="1001" y="604"/>
      <point x="1001" y="496" type="qcurve" smooth="yes"/>
      <point x="1001" y="401"/>
      <point x="933" y="222"/>
      <point x="878" y="160" type="qcurve" smooth="yes"/>
      <point x="794" y="65"/>
      <point x="582" y="-20"/>
    </contour>
    <contour>
      <point x="480" y="112" type="qcurve" smooth="yes"/>
      <point x="605" y="112"/>
      <point x="794" y="281"/>
      <point x="825" y="410" type="qcurve" smooth="yes"/>
      <point x="834" y="448"/>
      <point x="834" y="482" type="qcurve" smooth="yes"/>
      <point x="834" y="566"/>
      <point x="733" y="677"/>
      <point x="632" y="677" type="qcurve" smooth="yes"/>
      <point x="551" y="677"/>
      <point x="417" y="607"/>
      <point x="322" y="492"/>
      <point x="299" y="422" type="qcurve"/>
      <point x="283" y="356" type="line"/>
      <point x="279" y="333"/>
      <point x="279" y="306" type="qcurve" smooth="yes"/>
      <point x="279" y="220"/>
      <point x="379" y="112"/>
    </contour>
  </outline>
</glyph>
<glyph name="afii10095" format="2">
  <advance width="972"/>
  <unicode hex="044D"/>
  <outline>
    <contour>
      <point x="340" y="-20" type="qcurve" smooth="yes"/>
      <point x="197" y="-20"/>
      <point x="32" y="126"/>
      <point x="18" y="252" type="qcurve"/>
      <point x="154" y="295" type="line"/>
      <point x="159" y="207"/>
      <point x="261" y="107"/>
      <point x="348" y="107" type="qcurve" smooth="yes"/>
      <point x="438" y="107"/>
      <point x="582" y="200"/>
      <point x="685" y="351"/>
      <point x="714" y="440" type="qcurve"/>
      <point x="310" y="433" type="line"/>
      <point x="336" y="544" type="line"/>
      <point x="741" y="551" type="line"/>
      <point x="749" y="602"/>
      <point x="749" y="646" type="qcurve" smooth="yes"/>
      <point x="749" y="754"/>
      <point x="655" y="888"/>
      <point x="552" y="888" type="qcurve" smooth="yes"/>
      <point x="454" y="888"/>
      <point x="292" y="775"/>
      <point x="248" y="687" type="qcurve"/>
      <point x="119" y="761" type="line"/>
      <point x="198" y="881"/>
      <point x="422" y="1016"/>
      <point x="559" y="1016" type="qcurve" smooth="yes"/>
      <point x="675" y="1016"/>
      <point x="825" y="921"/>
      <point x="898" y="755"/>
      <point x="898" y="649" type="qcurve" smooth="yes"/>
      <point x="898" y="553"/>
      <point x="837" y="332"/>
      <point x="773" y="232" type="qcurve" smooth="yes"/>
      <point x="726" y="158"/>
      <point x="597" y="45"/>
      <point x="436" y="-20"/>
    </contour>
  </outline>
</glyph>
<glyph name="afii10097" format="2">
  <advance width="995"/>
  <unicode hex="044F"/>
  <outline>
    <contour>
      <point x="702" y="0" type="line"/>
      <point x="552" y="0" type="line"/>
      <point x="657" y="457" type="line"/>
      <point x="521" y="457" type="line" smooth="yes"/>
      <point x="404" y="457"/>
      <point x="323" y="307" type="qcurve"/>
      <point x="136" y="0" type="line"/>
      <point x="-39" y="0" type="line"/>
      <point x="172" y="349" type="line"/>
      <point x="272" y="503"/>
      <point x="363" y="503" type="qcurve"/>
      <point x="274" y="519"/>
      <point x="176" y="609"/>
      <point x="176" y="692" type="qcurve" smooth="yes"/>
      <point x="176" y="754"/>
      <point x="232" y="880"/>
      <point x="300" y="932" type="qcurve" smooth="yes"/>
      <point x="390" y="999"/>
      <point x="557" y="999" type="qcurve" smooth="yes"/>
      <point x="932" y="999" type="line"/>
    </contour>
    <contour>
      <point x="687" y="585" type="line"/>
      <point x="754" y="879" type="line"/>
      <point x="535" y="879" type="line" smooth="yes"/>
      <point x="459" y="879"/>
      <point x="360" y="795"/>
      <point x="345" y="731" type="qcurve"/>
      <point x="340" y="704"/>
      <point x="340" y="687" type="qcurve" smooth="yes"/>
      <point x="340" y="585"/>
      <point x="504" y="585" type="qcurve" smooth="yes"/>
    </contour>
  </outline>
</glyph>
<glyph name="afii10104" format="2">
  <advance width="487"/>
  <unicode hex="0457"/>
  <outline>
    <contour>
      <point x="313" y="1185" type="line"/>
      <point x="157" y="1185" type="line"/>
      <point x="195" y="1351" type="line"/>
      <point x="351" y="1351" type="line"/>
    </contour>
    <contour>
      <point x="644" y="1185" type="line"/>
      <point x="488" y="1185" type="line"/>
      <point x="527" y="1351" type="line"/>
      <point x="682" y="1351" type="line"/>
    </contour>
    <contour>
      <point x="210" y="0" type="line"/>
      <point x="47" y="0" type="line"/>
      <point x="276" y="999" type="line"/>
      <point x="440" y="999" type="line"/>
    </contour>
  </outline>
</glyph>
<glyph name="afii10109" format="2">
  <advance width="969"/>
  <unicode hex="045C"/>
  <outline>
    <contour>
      <point x="696" y="1124" type="line"/>
      <point x="573" y="1124" type="line"/>
      <point x="853" y="1413" type="line"/>
      <point x="1031" y="1413" type="line"/>
    </contour>
    <contour>
      <point x="807" y="0" type="line"/>
      <point x="635" y="0" type="line"/>
      <point x="598" y="366" type="line" smooth="yes"/>
      <point x="590" y="441"/>
      <point x="531" y="502"/>
      <point x="471" y="502" type="qcurve" smooth="yes"/>
      <point x="328" y="502" type="line"/>
      <point x="214" y="0" type="line"/>
      <point x="63" y="0" type="line"/>
      <point x="293" y="999" type="line"/>
      <point x="443" y="999" type="line"/>
      <point x="358" y="628" type="line"/>
      <point x="484" y="628" type="line"/>
      <point x="791" y="999" type="line"/>
      <point x="978" y="999" type="line"/>
      <point x="623" y="596" type="line"/>
      <point x="672" y="596"/>
      <point x="731" y="494"/>
      <point x="741" y="428" type="qcurve" smooth="yes"/>
    </contour>
  </outline>
</glyph>
<glyph name="afii10110" format="2">
  <advance width="985"/>
  <unicode hex="045E"/>
  <outline>
    <contour>
      <point x="647" y="1143" type="qcurve" smooth="yes"/>
      <point x="536" y="1143"/>
      <point x="389" y="1250"/>
      <point x="389" y="1349" type="qcurve" smooth="yes"/>
      <point x="389" y="1378"/>
      <point x="397" y="1413" type="qcurve"/>
      <point x="516" y="1413" type="line"/>
      <point x="512" y="1394"/>
      <point x="512" y="1373" type="qcurve" smooth="yes"/>
      <point x="512" y="1312"/>
      <point x="590" y="1248"/>
      <point x="648" y="1248" type="qcurve" smooth="yes"/>
      <point x="729" y="1248"/>
      <point x="861" y="1346"/>
      <point x="879" y="1413" type="qcurve"/>
      <point x="998" y="1413" type="line"/>
      <point x="966" y="1279"/>
      <point x="770" y="1143"/>
    </contour>
    <contour>
      <point x="197" y="-430" type="line"/>
      <point x="39" y="-430" type="line"/>
      <point x="309" y="7" type="line"/>
      <point x="156" y="999" type="line"/>
      <point x="319" y="999" type="line"/>
      <point x="417" y="182" type="line"/>
      <point x="894" y="999" type="line"/>
      <point x="1062" y="999" type="line"/>
    </contour>
  </outline>
</glyph>
<glyph name="afii10193" format="2">
  <advance width="1162"/>
  <unicode hex="045F"/>
  <outline>
    <contour>
      <point x="468" y="-307" type="line"/>
      <point x="320" y="-307" type="line"/>
      <point x="392" y="0" type="line"/>
      <point x="63" y="0" type="line"/>
      <point x="293" y="999" type="line"/>
      <point x="442" y="999" type="line"/>
      <point x="239" y="120" type="line"/>
      <point x="748" y="120" type="line"/>
      <point x="951" y="999" type="line"/>
      <point x="1099" y="999" type="line"/>
      <point x="869" y="0" type="line"/>
      <point x="539" y="0" type="line"/>
    </contour>
  </outline>
</glyph>
<glyph name="afii10194" format="2">
  <advance width="996"/>
  <unicode hex="0463"/>
  <outline>
    <contour>
      <point x="393" y="0" type="qcurve" smooth="yes"/>
      <point x="54" y="0" type="line"/>
      <point x="317" y="1146" type="line"/>
      <point x="120" y="1146" type="line"/>
      <point x="147" y="1263" type="line"/>
      <point x="344" y="1263" type="line"/>
      <point x="379" y="1413" type="line"/>
      <point x="527" y="1413" type="line"/>
      <point x="492" y="1263" type="line"/>
      <point x="719" y="1263" type="line"/>
      <point x="692" y="1146" type="line"/>
      <point x="465" y="1146" type="line"/>
      <point x="355" y="665" type="line"/>
      <point x="536" y="665" type="line" smooth="yes"/>
      <point x="695" y="665"/>
      <point x="868" y="562"/>
      <point x="868" y="431" type="qcurve" smooth="yes"/>
      <point x="868" y="380"/>
      <point x="853" y="312" type="qcurve"/>
      <point x="814" y="159"/>
      <point x="563" y="0"/>
    </contour>
    <contour>
      <point x="410" y="122" type="line" smooth="yes"/>
      <point x="513" y="122"/>
      <point x="665" y="224"/>
      <point x="692" y="341" type="qcurve" smooth="yes"/>
      <point x="701" y="382"/>
      <point x="701" y="411" type="qcurve" smooth="yes"/>
      <point x="701" y="486"/>
      <point x="606" y="543"/>
      <point x="519" y="543" type="qcurve" smooth="yes"/>
      <point x="326" y="543" type="line"/>
      <point x="229" y="122" type="line"/>
    </contour>
  </outline>
</glyph>
<glyph name="eiotifiedcyrillic" format="2">
  <advance width="1352"/>
  <unicode hex="0465"/>
  <outline>
    <contour>
      <point x="793" y="-20" type="qcurve" smooth="yes"/>
      <point x="676" y="-20"/>
      <point x="523" y="75"/>
      <point x="448" y="241"/>
      <point x="448" y="346" type="qcurve" smooth="yes"/>
      <point x="448" y="412"/>
      <point x="464" y="490" type="qcurve"/>
      <point x="323" y="483" type="line"/>
      <point x="213" y="0" type="line"/>
      <point x="63" y="0" type="line"/>
      <point x="293" y="999" type="line"/>
      <point x="442" y="999" type="line"/>
      <point x="351" y="602" type="line"/>
      <point x="498" y="609" type="line"/>
      <point x="541" y="723"/>
      <point x="684" y="906"/>
      <point x="881" y="1016"/>
      <point x="1007" y="1016" type="qcurve" smooth="yes"/>
      <point x="1149" y="1016"/>
      <point x="1320" y="869"/>
      <point x="1344" y="748" type="qcurve"/>
      <point x="1195" y="701" type="line"/>
      <point x="1189" y="794"/>
      <point x="1082" y="888"/>
      <point x="1000" y="888" type="qcurve" smooth="yes"/>
      <point x="910" y="888"/>
      <point x="834" y="837" type="qcurve" smooth="yes"/>
      <point x="754" y="782"/>
      <point x="657" y="648"/>
      <point x="643" y="595" type="qcurve"/>
      <point x="1047" y="602" type="line"/>
      <point x="1021" y="490" type="line"/>
      <point x="618" y="483" type="line"/>
      <point x="600" y="404"/>
      <point x="600" y="337" type="qcurve" smooth="yes"/>
      <point x="600" y="233"/>
      <point x="693" y="107"/>
      <point x="796" y="107" type="qcurve" smooth="yes"/>
      <point x="893" y="107"/>
      <point x="1055" y="222"/>
      <point x="1100" y="308" type="qcurve"/>
      <point x="1217" y="238" type="line"/>
      <point x="1140" y="106"/>
      <point x="919" y="-20"/>
    </contour>
  </outline>
</glyph>
<glyph name="Yuslittlecyrillic" format="2">
  <advance width="1304"/>
  <unicode hex="0466"/>
  <outline>
    <contour>
      <point x="1126" y="0" type="line"/>
      <point x="959" y="0" type="line"/>
      <point x="886" y="605" type="line"/>
      <point x="756" y="605" type="line"/>
      <point x="618" y="0" type="line"/>
      <point x="462" y="0" type="line"/>
      <point x="600" y="605" type="line"/>
      <point x="476" y="605" type="line"/>
      <point x="122" y="0" type="line"/>
      <point x="-52" y="0" type="line"/>
      <point x="803" y="1413" type="line"/>
      <point x="925" y="1413" type="line"/>
    </contour>
    <contour>
      <point x="869" y="739" type="line"/>
      <point x="816" y="1181" type="line"/>
      <point x="556" y="739" type="line"/>
    </contour>
  </outline>
</glyph>
<glyph name="yuslittlecyrillic" format="2">
  <advance width="1008"/>
  <unicode hex="0467"/>
  <outline>
    <contour>
      <point x="828" y="0" type="line"/>
      <point x="665" y="0" type="line"/>
      <point x="634" y="363" type="line"/>
      <point x="540" y="363" type="line"/>
      <point x="458" y="0" type="line"/>
      <point x="322" y="0" type="line"/>
      <point x="404" y="363" type="line"/>
      <point x="319" y="363" type="line"/>
      <point x="99" y="0" type="line"/>
      <point x="-54" y="0" type="line"/>
      <point x="557" y="999" type="line"/>
      <point x="678" y="999" type="line"/>
    </contour>
    <contour>
      <point x="623" y="479" type="line"/>
      <point x="582" y="813" type="line"/>
      <point x="385" y="479" type="line"/>
    </contour>
  </outline>
</glyph>
<glyph name="Yuslittleiotifiedcyrillic" format="2">
  <advance width="1688"/>
  <unicode hex="0468"/>
  <outline>
    <contour>
      <point x="1510" y="0" type="line"/>
      <point x="1343" y="0" type="line"/>
      <point x="1270" y="605" type="line"/>
      <point x="1140" y="605" type="line"/>
      <point x="1001" y="0" type="line"/>
      <point x="846" y="0" type="line"/>
      <point x="984" y="605" type="line"/>
      <point x="860" y="605" type="line"/>
      <point x="506" y="0" type="line"/>
      <point x="332" y="0" type="line"/>
      <point x="718" y="639" type="line"/>
      <point x="401" y="639" type="line"/>
      <point x="254" y="0" type="line"/>
      <point x="97" y="0" type="line"/>
      <point x="423" y="1413" type="line"/>
      <point x="580" y="1413" type="line"/>
      <point x="433" y="774" type="line"/>
      <point x="801" y="774" type="line"/>
      <point x="1187" y="1413" type="line"/>
      <point x="1309" y="1413" type="line"/>
    </contour>
    <contour>
      <point x="1253" y="739" type="line"/>
      <point x="1200" y="1181" type="line"/>
      <point x="940" y="739" type="line"/>
    </contour>
  </outline>
</glyph>
<glyph name="Yusbigcyrillic" format="2">
  <advance width="1565"/>
  <unicode hex="046A"/>
  <outline>
    <contour>
      <point x="1373" y="0" type="line"/>
      <point x="1192" y="0" type="line"/>
      <point x="1108" y="510" type="line"/>
      <point x="1103" y="547"/>
      <point x="1080" y="608"/>
      <point x="1033" y="644"/>
      <point x="988" y="644" type="qcurve" smooth="yes"/>
      <point x="888" y="644" type="line"/>
      <point x="740" y="0" type="line"/>
      <point x="582" y="0" type="line"/>
      <point x="731" y="644" type="line"/>
      <point x="643" y="644" type="line" smooth="yes"/>
      <point x="576" y="644"/>
      <point x="483" y="552"/>
      <point x="453" y="496" type="qcurve"/>
      <point x="136" y="0" type="line"/>
      <point x="-50" y="0" type="line"/>
      <point x="320" y="590" type="line" smooth="yes"/>
      <point x="432" y="768"/>
      <point x="675" y="768" type="qcurve"/>
      <point x="428" y="1278" type="line"/>
      <point x="456" y="1413" type="line"/>
      <point x="1517" y="1413" type="line"/>
      <point x="1487" y="1278" type="line"/>
      <point x="990" y="768" type="line"/>
      <point x="1116" y="768"/>
      <point x="1252" y="666"/>
      <point x="1266" y="576" type="qcurve"/>
    </contour>
    <contour>
      <point x="843" y="808" type="line"/>
      <point x="1297" y="1278" type="line"/>
      <point x="607" y="1278" type="line"/>
    </contour>
  </outline>
</glyph>
<glyph name="yusbigiotifiedcyrillic" format="2">
  <advance width="1585"/>
  <unicode hex="046D"/>
  <outline>
    <contour>
      <point x="1405" y="0" type="line"/>
      <point x="1235" y="0" type="line"/>
      <point x="1198" y="366" type="line" smooth="yes"/>
      <point x="1187" y="479"/>
      <point x="1127" y="492" type="qcurve"/>
      <point x="1096" y="501"/>
      <point x="1034" y="501" type="qcurve"/>
      <point x="914" y="0" type="line"/>
      <point x="768" y="0" type="line"/>
      <point x="888" y="501" type="line"/>
      <point x="801" y="501"/>
      <point x="702" y="437"/>
      <point x="657" y="352" type="qcurve"/>
      <point x="452" y="0" type="line"/>
      <point x="275" y="0" type="line"/>
      <point x="532" y="426" type="line"/>
      <point x="552" y="467"/>
      <point x="586" y="500" type="qcurve"/>
      <point x="326" y="495" type="line"/>
      <point x="213" y="0" type="line"/>
      <point x="63" y="0" type="line"/>
      <point x="293" y="999" type="line"/>
      <point x="442" y="999" type="line"/>
      <point x="354" y="615" type="line"/>
      <point x="792" y="615" type="line"/>
      <point x="637" y="881" type="line"/>
      <point x="661" y="999" type="line"/>
      <point x="1482" y="999" type="line"/>
      <point x="1457" y="881" type="line"/>
      <point x="1168" y="612" type="line"/>
      <point x="1231" y="612"/>
      <point x="1301" y="554"/>
      <point x="1332" y="477"/>
      <point x="1339" y="428" type="qcurve" smooth="yes"/>
    </contour>
    <contour>
      <point x="977" y="599" type="line"/>
      <point x="1268" y="881" type="line"/>
      <point x="817" y="881" type="line"/>
    </contour>
  </outline>
</glyph>
<glyph name="afii10196" format="2">
  <advance width="977"/>
  <unicode hex="0475"/>
  <outline>
    <contour>
      <point x="396" y="0" type="line"/>
      <point x="261" y="0" type="line"/>
      <point x="156" y="999" type="line"/>
      <point x="317" y="999" type="line"/>
      <point x="369" y="196" type="line"/>
      <point x="607" y="602" type="line"/>
      <point x="729" y="808"/>
      <point x="951" y="998"/>
      <point x="1042" y="1000" type="qcurve"/>
      <point x="1018" y="844" type="line"/>
      <point x="969" y="833"/>
      <point x="854" y="735"/>
      <point x="767" y="594" type="qcurve"/>
    </contour>
  </outline>
</glyph>
<glyph name="titlocyrilliccmb" format="2">
  <unicode hex="0483"/>
  <outline>
    <contour>
      <point x="-569" y="1547" type="line"/>
      <point x="-691" y="1547" type="line"/>
      <point x="-631" y="1808" type="line"/>
      <point x="44" y="1808" type="line"/>
      <point x="76" y="1945" type="line"/>
      <point x="206" y="1945" type="line"/>
      <point x="149" y="1700" type="line"/>
      <point x="-534" y="1700" type="line"/>
    </contour>
  </outline>
</glyph>
<glyph name="afii10050" format="2">
  <advance width="1078"/>
  <unicode hex="0490"/>
  <outline>
    <contour>
      <point x="258" y="0" type="line"/>
      <point x="100" y="0" type="line"/>
      <point x="426" y="1413" type="line"/>
      <point x="1067" y="1413" type="line"/>
      <point x="1138" y="1720" type="line"/>
      <point x="1294" y="1720" type="line"/>
      <point x="1192" y="1278" type="line"/>
      <point x="553" y="1278" type="line"/>
    </contour>
  </outline>
</glyph>
<glyph name="ghestrokecyrillic" format="2">
  <advance width="766"/>
  <unicode hex="0493"/>
  <outline>
    <contour>
      <point x="203" y="0" type="line"/>
      <point x="54" y="0" type="line"/>
      <point x="283" y="999" type="line"/>
      <point x="854" y="999" type="line"/>
      <point x="828" y="881" type="line"/>
      <point x="406" y="881" type="line"/>
    </contour>
  </outline>
</glyph>
<glyph name="Zhedescendercyrillic" format="2">
  <advance width="1961"/>
  <unicode hex="0496"/>
  <outline>
    <contour>
      <point x="1789" y="-238" type="line"/>
      <point x="1639" y="-238" type="line"/>
      <point x="1695" y="0" type="line"/>
      <point x="1583" y="0" type="line"/>
      <point x="1514" y="570" type="line" smooth="yes"/>
      <point x="1510" y="606"/>
      <point x="1473" y="667"/>
      <point x="1407" y="705"/>
      <point x="1358" y="705" type="qcurve" smooth="yes"/>
      <point x="1107" y="705" type="line"/>
      <point x="945" y="0" type="line"/>
      <point x="788" y="0" type="line"/>
      <point x="949" y="705" type="line"/>
      <point x="711" y="705" type="line" smooth="yes"/>
      <point x="637" y="705"/>
      <point x="519" y="618"/>
      <point x="485" y="556" type="qcurve"/>
      <point x="152" y="0" type="line"/>
      <point x="-40" y="0" type="line"/>
      <point x="353" y="650" type="line"/>
      <point x="372" y="684"/>
      <point x="455" y="760"/>
      <point x="568" y="816"/>
      <point x="632" y="816" type="qcurve"/>
      <point x="366" y="1413" type="line"/>
      <point x="561" y="1413" type="line"/>
      <point x="811" y="839" type="line"/>
      <point x="980" y="839" type="line"/>
      <point x="1114" y="1413" type="line"/>
      <point x="1271" y="1413" type="line"/>
      <point x="1137" y="839" type="line"/>
      <point x="1303" y="839" type="line"/>
      <point x="1818" y="1413" type="line"/>
      <point x="2023" y="1413" type="line"/>
      <point x="1466" y="816" type="line"/>
      <point x="1527" y="816"/>
      <point x="1616" y="753"/>
      <point x="1667" y="671"/>
      <point x="1671" y="637" type="qcurve"/>
      <point x="1743" y="168" type="line"/>
      <point x="1883" y="168" type="line"/>
    </contour>
  </outline>
</glyph>
<glyph name="kadescendercyrillic" format="2">
  <advance width="971"/>
  <unicode hex="049B"/>
  <outline>
    <contour>
      <point x="828" y="-238" type="line"/>
      <point x="678" y="-238" type="line"/>
      <point x="734" y="0" type="line"/>
      <point x="635" y="0" type="line"/>
      <point x="598" y="366" type="line" smooth="yes"/>
      <point x="590" y="441"/>
      <point x="531" y="502"/>
      <point x="471" y="502" type="qcurve" smooth="yes"/>
      <point x="328" y="502" type="line"/>
      <point x="214" y="0" type="line"/>
      <point x="63" y="0" type="line"/>
      <point x="389" y="1413" type="line"/>
      <point x="539" y="1413" type="line"/>
      <point x="358" y="628" type="line"/>
      <point x="484" y="628" type="line"/>
      <point x="791" y="999" type="line"/>
      <point x="978" y="999" type="line"/>
      <point x="623" y="596" type="line"/>
      <point x="672" y="596"/>
      <point x="731" y="494"/>
      <point x="741" y="428" type="qcurve" smooth="yes"/>
      <point x="781" y="168" type="line"/>
      <point x="922" y="168" type="line"/>
    </contour>
  </outline>
</glyph>
<glyph name="endescendercyrillic" format="2">
  <advance width="1162"/>
  <unicode hex="04A3"/>
  <outline>
    <contour>
      <point x="958" y="-238" type="line"/>
      <point x="808" y="-238" type="line"/>
      <point x="864" y="0" type="line"/>
      <point x="720" y="0" type="line"/>
      <point x="833" y="491" type="line"/>
      <point x="328" y="491" type="line"/>
      <point x="215" y="0" type="line"/>
      <point x="63" y="0" type="line"/>
      <point x="293" y="999" type="line"/>
      <point x="444" y="999" type="line"/>
      <point x="354" y="609" type="line"/>
      <point x="859" y="609" type="line"/>
      <point x="949" y="999" type="line"/>
      <point x="1099" y="999" type="line"/>
      <point x="908" y="168" type="line"/>
      <point x="1052" y="168" type="line"/>
    </contour>
  </outline>
</glyph>
<glyph name="ustraightstrokecyrillic" format="2">
  <advance width="946"/>
  <unicode hex="04B1"/>
  <outline>
    <contour>
      <point x="430" y="0" type="line"/>
      <point x="278" y="0" type="line"/>
      <point x="329" y="218" type="line"/>
      <point x="49" y="218" type="line"/>
      <point x="78" y="349" type="line"/>
      <point x="360" y="349" type="line"/>
      <point x="382" y="443" type="line"/>
      <point x="159" y="999" type="line"/>
      <point x="336" y="999" type="line"/>
      <point x="487" y="600" type="line"/>
      <point x="827" y="999" type="line"/>
      <point x="1011" y="999" type="line"/>
      <point x="534" y="443" type="line"/>
      <point x="512" y="349" type="line"/>
      <point x="803" y="349" type="line"/>
      <point x="774" y="218" type="line"/>
      <point x="481" y="218" type="line"/>
    </contour>
  </outline>
</glyph>
<glyph name="Hadescendercyrillic" format="2">
  <advance width="1270"/>
  <unicode hex="04B2"/>
  <outline>
    <contour>
      <point x="1050" y="-238" type="line"/>
      <point x="900" y="-238" type="line"/>
      <point x="956" y="0" type="line"/>
      <point x="893" y="0" type="line"/>
      <point x="655" y="578" type="line"/>
      <point x="153" y="0" type="line"/>
      <point x="-40" y="0" type="line"/>
      <point x="591" y="707" type="line"/>
      <point x="292" y="1413" type="line"/>
      <point x="476" y="1413" type="line"/>
      <point x="704" y="826" type="line"/>
      <point x="1213" y="1413" type="line"/>
      <point x="1404" y="1413" type="line"/>
      <point x="775" y="707" type="line"/>
      <point x="1004" y="168" type="line"/>
      <point x="1144" y="168" type="line"/>
    </contour>
  </outline>
</glyph>
<glyph name="hadescendercyrillic" format="2">
  <advance width="928"/>
  <unicode hex="04B3"/>
  <outline>
    <contour>
      <point x="739" y="-238" type="line"/>
      <point x="589" y="-238" type="line"/>
      <point x="645" y="0" type="line"/>
      <point x="586" y="0" type="line"/>
      <point x="441" y="378" type="line"/>
      <point x="118" y="0" type="line"/>
      <point x="-69" y="0" type="line"/>
      <point x="384" y="504" type="line"/>
      <point x="165" y="999" type="line"/>
      <point x="343" y="999" type="line"/>
      <point x="489" y="627" type="line"/>
      <point x="811" y="999" type="line"/>
      <point x="995" y="999" type="line"/>
      <point x="545" y="504" type="line"/>
      <point x="689" y="168" type="line"/>
      <point x="833" y="168" type="line"/>
    </contour>
  </outline>
</glyph>
<glyph name="Chedescendercyrillic" format="2">
  <advance width="1328"/>
  <unicode hex="04B6"/>
  <outline>
    <contour>
      <point x="1079" y="-238" type="line"/>
      <point x="929" y="-238" type="line"/>
      <point x="985" y="0" type="line"/>
      <point x="840" y="0" type="line"/>
      <point x="966" y="533" type="line"/>
      <point x="820" y="411"/>
      <point x="612" y="411" type="qcurve" smooth="yes"/>
      <point x="412" y="411"/>
      <point x="220" y="619"/>
      <point x="220" y="803" type="qcurve" smooth="yes"/>
      <point x="220" y="901"/>
      <point x="248" y="1024" type="qcurve" smooth="yes"/>
      <point x="338" y="1413" type="line"/>
      <point x="497" y="1413" type="line"/>
      <point x="402" y="1004" type="line"/>
      <point x="376" y="885"/>
      <point x="376" y="807" type="qcurve" smooth="yes"/>
      <point x="376" y="562"/>
      <point x="617" y="562" type="qcurve" smooth="yes"/>
      <point x="735" y="562"/>
      <point x="933" y="649"/>
      <point x="1001" y="714" type="qcurve"/>
      <point x="1165" y="1413" type="line"/>
      <point x="1324" y="1413" type="line"/>
      <point x="1038" y="168" type="line"/>
      <point x="1173" y="168" type="line"/>
    </contour>
  </outline>
</glyph>
<glyph name="Shhacyrillic" format="2">
  <advance width="1328"/>
  <unicode hex="04BA"/>
  <outline>
    <contour>
      <point x="1086" y="0" type="line"/>
      <point x="927" y="0" type="line"/>
      <point x="1022" y="409" type="line"/>
      <point x="1048" y="528"/>
      <point x="1048" y="606" type="qcurve" smooth="yes"/>
      <point x="1048" y="851"/>
      <point x="807" y="851" type="qcurve" smooth="yes"/>
      <point x="689" y="851"/>
      <point x="491" y="764"/>
      <point x="423" y="699" type="qcurve"/>
      <point x="259" y="0" type="line"/>
      <point x="100" y="0" type="line"/>
      <point x="425" y="1413" type="line"/>
      <point x="584" y="1413" type="line"/>
      <point x="458" y="880" type="line"/>
      <point x="604" y="1002"/>
      <point x="812" y="1002" type="qcurve" smooth="yes"/>
      <point x="1012" y="1002"/>
      <point x="1204" y="794"/>
      <point x="1204" y="610" type="qcurve" smooth="yes"/>
      <point x="1204" y="512"/>
      <point x="1176" y="389" type="qcurve" smooth="yes"/>
    </contour>
  </outline>
</glyph>
<glyph name="palochkacyrillic" format="2">
  <advance width="582"/>
  <unicode hex="04C0"/>
  <outline>
    <contour>
      <point x="256" y="0" type="line"/>
      <point x="97" y="0" type="line"/>
      <point x="423" y="1413" type="line"/>
      <point x="582" y="1413" type="line"/>
    </contour>
  </outline>
</glyph>
<glyph name="uni04CF" format="2">
  <advance width="507"/>
  <unicode hex="04CF"/>
  <outline>
    <contour>
      <point x="214" y="0" type="line"/>
      <point x="63" y="0" type="line"/>
      <point x="389" y="1413" type="line"/>
      <point x="539" y="1413" type="line"/>
    </contour>
  </outline>
</glyph>
<glyph name="afii10846" format="2">
  <advance width="1035"/>
  <unicode hex="04D9"/>
  <outline>
    <contour>
      <point x="405" y="-12" type="qcurve" smooth="yes"/>
      <point x="228" y="-12"/>
      <point x="70" y="167"/>
      <point x="70" y="322" type="qcurve" smooth="yes"/>
      <point x="70" y="415"/>
      <point x="97" y="531" type="qcurve" smooth="yes"/>
      <point x="99" y="542"/>
      <point x="106" y="557" type="qcurve"/>
      <point x="802" y="557" type="line"/>
      <point x="814" y="613"/>
      <point x="814" y="659" type="qcurve" smooth="yes"/>
      <point x="814" y="759"/>
      <point x="705" y="881"/>
      <point x="595" y="881" type="qcurve" smooth="yes"/>
      <point x="497" y="881"/>
      <point x="347" y="827"/>
      <point x="281" y="769" type="qcurve"/>
      <point x="192" y="861" type="line"/>
      <point x="285" y="939"/>
      <point x="479" y="1012"/>
      <point x="598" y="1012" type="qcurve" smooth="yes"/>
      <point x="721" y="1012"/>
      <point x="883" y="918"/>
      <point x="963" y="754"/>
      <point x="963" y="647" type="qcurve" smooth="yes"/>
      <point x="963" y="554"/>
      <point x="900" y="340"/>
      <point x="839" y="241" type="qcurve" smooth="yes"/>
      <point x="792" y="167"/>
      <point x="663" y="54"/>
      <point x="502" y="-12"/>
    </contour>
    <contour>
      <point x="412" y="120" type="qcurve" smooth="yes"/>
      <point x="505" y="120"/>
      <point x="651" y="205"/>
      <point x="750" y="347"/>
      <point x="773" y="433" type="qcurve"/>
      <point x="212" y="419" type="line"/>
      <point x="199" y="361"/>
      <point x="199" y="319" type="qcurve" smooth="yes"/>
      <point x="199" y="230"/>
      <point x="300" y="120"/>
    </contour>
  </outline>
</glyph>
<glyph name="Imacroncyrillic" format="2">
  <advance width="1425"/>
  <unicode hex="04E2"/>
  <outline>
    <contour>
      <point x="1240" y="1597" type="line"/>
      <point x="699" y="1597" type="line"/>
      <point x="728" y="1722" type="line"/>
      <point x="1269" y="1722" type="line"/>
    </contour>
    <contour>
      <point x="1095" y="0" type="line"/>
      <point x="936" y="0" type="line"/>
      <point x="1221" y="1230" type="line"/>
      <point x="326" y="0" type="line"/>
      <point x="100" y="0" type="line"/>
      <point x="426" y="1413" type="line"/>
      <point x="583" y="1413" type="line"/>
      <point x="300" y="185" type="line"/>
      <point x="1198" y="1413" type="line"/>
      <point x="1420" y="1413" type="line"/>
    </contour>
  </outline>
</glyph>
<glyph name="obarredcyrillic" format="2">
  <advance width="1126"/>
  <unicode hex="04E9"/>
  <outline>
    <contour>
      <point x="454" y="-20" type="qcurve" smooth="yes"/>
      <point x="333" y="-20"/>
      <point x="164" y="83"/>
      <point x="75" y="261"/>
      <point x="75" y="372" type="qcurve" smooth="yes"/>
      <point x="75" y="539"/>
      <point x="254" y="853"/>
      <point x="414" y="945" type="qcurve"/>
      <point x="535" y="1012"/>
      <point x="668" y="1012" type="qcurve" smooth="yes"/>
      <point x="790" y="1012"/>
      <point x="960" y="909"/>
      <point x="1049" y="731"/>
      <point x="1049" y="620" type="qcurve" smooth="yes"/>
      <point x="1049" y="530"/>
      <point x="984" y="323"/>
      <point x="916" y="229" type="qcurve"/>
      <point x="833" y="117"/>
      <point x="594" y="-20"/>
    </contour>
    <contour>
      <point x="273" y="563" type="qcurve"/>
      <point x="882" y="577" type="line"/>
      <point x="887" y="617"/>
      <point x="887" y="645" type="qcurve" smooth="yes"/>
      <point x="887" y="751"/>
      <point x="781" y="879"/>
      <point x="660" y="879" type="qcurve" smooth="yes"/>
      <point x="520" y="879"/>
      <point x="322" y="702"/>
    </contour>
    <contour>
      <point x="462" y="112" type="qcurve" smooth="yes"/>
      <point x="565" y="112"/>
      <point x="723" y="207"/>
      <point x="829" y="366"/>
      <point x="856" y="464" type="qcurve"/>
      <point x="245" y="451" type="line"/>
      <point x="235" y="400"/>
      <point x="235" y="348" type="qcurve" smooth="yes"/>
      <point x="235" y="241"/>
      <point x="341" y="112"/>
    </contour>
  </outline>
</glyph>
<glyph name="umacroncyrillic" format="2">
  <advance width="985"/>
  <unicode hex="04EF"/>
  <outline>
    <contour>
      <point x="923" y="1183" type="line"/>
      <point x="382" y="1183" type="line"/>
      <point x="411" y="1308" type="line"/>
      <point x="952" y="1308" type="line"/>
    </contour>
    <contour>
      <point x="197" y="-430" type="line"/>
      <point x="39" y="-430" type="line"/>
      <point x="309" y="7" type="line"/>
      <point x="156" y="999" type="line"/>
      <point x="319" y="999" type="line"/>
      <point x="417" y="182" type="line"/>
      <point x="894" y="999" type="line"/>
      <point x="1062" y="999" type="line"/>
    </contour>
  </outline>
</glyph>
<glyph name="afii00208" format="2">
  <advance width="1514"/>
  <unicode hex="2015"/>
  <outline>
    <contour>
      <point x="1370" y="578" type="line"/>
      <point x="181" y="578" type="line"/>
      <point x="208" y="692" type="line"/>
      <point x="1397" y="692" type="line"/>
    </contour>
  </outline>
</glyph>
<glyph name="quotedblright" format="2">
  <advance width="872"/>
  <unicode hex="201D"/>
  <outline>
    <contour>
      <point x="337" y="927" type="line"/>
      <point x="240" y="927" type="line"/>
      <point x="473" y="1413" type="line"/>
      <point x="672" y="1413" type="line"/>
    </contour>
    <contour>
      <point x="648" y="927" type="line"/>
      <point x="549" y="927" type="line"/>
      <point x="784" y="1413" type="line"/>
      <point x="981" y="1413" type="line"/>
    </contour>
  </outline>
</glyph>
<glyph name="dagger" format="2">
  <advance width="816"/>
  <unicode hex="2020"/>
  <outline>
    <contour>
      <point x="322" y="-205" type="line"/>
      <point x="171" y="-205" type="line"/>
      <point x="412" y="845" type="line"/>
      <point x="191" y="845" type="line"/>
      <point x="226" y="994" type="line"/>
      <point x="447" y="994" type="line"/>
      <point x="544" y="1413" type="line"/>
      <point x="694" y="1413" type="line"/>
      <point x="598" y="994" type="line"/>
      <point x="819" y="994" type="line"/>
      <point x="784" y="845" type="line"/>
      <point x="563" y="845" type="line"/>
    </contour>
  </outline>
</glyph>
<glyph name="daggerdbl" format="2">
  <advance width="888"/>
  <unicode hex="2021"/>
  <outline>
    <contour>
      <point x="358" y="-205" type="line"/>
      <point x="207" y="-205" type="line"/>
      <point x="303" y="213" type="line"/>
      <point x="82" y="213" type="line"/>
      <point x="117" y="365" type="line"/>
      <point x="338" y="365" type="line"/>
      <point x="449" y="845" type="line"/>
      <point x="227" y="845" type="line"/>
      <point x="262" y="994" type="line"/>
      <point x="483" y="994" type="line"/>
      <point x="580" y="1413" type="line"/>
      <point x="730" y="1413" type="line"/>
      <point x="634" y="994" type="line"/>
      <point x="855" y="994" type="line"/>
      <point x="820" y="845" type="line"/>
      <point x="599" y="845" type="line"/>
      <point x="489" y="365" type="line"/>
      <point x="710" y="365" type="line"/>
      <point x="675" y="213" type="line"/>
      <point x="454" y="213" type="line"/>
    </contour>
  </outline>
</glyph>
<glyph name="bullet" format="2">
  <advance width="830"/>
  <unicode hex="2022"/>
  <outline>
    <contour>
      <point x="368" y="244" type="qcurve" smooth="yes"/>
      <point x="277" y="244"/>
      <point x="170" y="358"/>
      <point x="170" y="440" type="qcurve" smooth="yes"/>
      <point x="170" y="514"/>
      <point x="251" y="641"/>
      <point x="381" y="719"/>
      <point x="453" y="719" type="qcurve" smooth="yes"/>
      <point x="545" y="719"/>
      <point x="652" y="604"/>
      <point x="652" y="522" type="qcurve" smooth="yes"/>
      <point x="652" y="450"/>
      <point x="567" y="315"/>
      <point x="488" y="274" type="qcurve" smooth="yes"/>
      <point x="429" y="244"/>
    </contour>
  </outline>
</glyph>
<glyph name="ellipsis" format="2">
  <advance width="1496"/>
  <unicode hex="2026"/>
  <outline>
    <contour>
      <point x="319" y="0" type="line"/>
      <point x="120" y="0" type="line"/>
      <point x="165" y="194" type="line"/>
      <point x="363" y="194" type="line"/>
    </contour>
    <contour>
      <point x="732" y="0" type="line"/>
      <point x="534" y="0" type="line"/>
      <point x="579" y="194" type="line"/>
      <point x="777" y="194" type="line"/>
    </contour>
    <contour>
      <point x="1146" y="0" type="line"/>
      <point x="948" y="0" type="line"/>
      <point x="992" y="194" type="line"/>
      <point x="1191" y="194" type="line"/>
    </contour>
  </outline>
</glyph>
<glyph name="uni2031" format="2">
  <advance width="2755"/>
  <unicode hex="2031"/>
  <outline>
    <contour>
      <point x="466" y="804" type="qcurve" smooth="yes"/>
      <point x="362" y="804"/>
      <point x="269" y="932"/>
      <point x="269" y="1029" type="qcurve" smooth="yes"/>
      <point x="269" y="1096"/>
      <point x="304" y="1216"/>
      <point x="336" y="1274" type="qcurve" smooth="yes"/>
      <point x="373" y="1342"/>
      <point x="498" y="1436"/>
      <point x="582" y="1436" type="qcurve" smooth="yes"/>
      <point x="679" y="1436"/>
      <point x="775" y="1306"/>
      <point x="775" y="1206" type="qcurve" smooth="yes"/>
      <point x="775" y="1139"/>
      <point x="732" y="998"/>
      <point x="651" y="879"/>
      <point x="537" y="804"/>
    </contour>
    <contour>
      <point x="365" y="2" type="line"/>
      <point x="228" y="2" type="line"/>
      <point x="1304" y="1405" type="line"/>
      <point x="1439" y="1405" type="line"/>
    </contour>
    <contour>
      <point x="462" y="904" type="qcurve" smooth="yes"/>
      <point x="512" y="904"/>
      <point x="589" y="969"/>
      <point x="643" y="1067"/>
      <point x="671" y="1173"/>
      <point x="671" y="1215" type="qcurve" smooth="yes"/>
      <point x="671" y="1266"/>
      <point x="630" y="1335"/>
      <point x="582" y="1335" type="qcurve" smooth="yes"/>
      <point x="532" y="1335"/>
      <point x="453" y="1273"/>
      <point x="397" y="1177"/>
      <point x="368" y="1071"/>
      <point x="368" y="1027" type="qcurve" smooth="yes"/>
      <point x="368" y="975"/>
      <point x="411" y="904"/>
    </contour>
    <contour>
      <point x="1108" y="3" type="qcurve" smooth="yes"/>
      <point x="1004" y="3"/>
      <point x="910" y="132"/>
      <point x="910" y="229" type="qcurve" smooth="yes"/>
      <point x="910" y="288"/>
      <point x="949" y="427"/>
      <point x="1028" y="552"/>
      <point x="1145" y="632"/>
      <point x="1223" y="632" type="qcurve" smooth="yes"/>
      <point x="1320" y="632"/>
      <point x="1417" y="502"/>
      <point x="1417" y="402" type="qcurve" smooth="yes"/>
      <point x="1417" y="302"/>
      <point x="1336" y="119"/>
      <point x="1197" y="3"/>
    </contour>
    <contour>
      <point x="1698" y="3" type="qcurve" smooth="yes"/>
      <point x="1594" y="3"/>
      <point x="1500" y="132"/>
      <point x="1500" y="229" type="qcurve" smooth="yes"/>
      <point x="1500" y="288"/>
      <point x="1539" y="427"/>
      <point x="1618" y="552"/>
      <point x="1735" y="632"/>
      <point x="1813" y="632" type="qcurve" smooth="yes"/>
      <point x="1881" y="632"/>
      <point x="1966" y="571"/>
      <point x="2007" y="468"/>
      <point x="2007" y="405" type="qcurve" smooth="yes"/>
      <point x="2007" y="343"/>
      <point x="1967" y="203"/>
      <point x="1888" y="81"/>
      <point x="1773" y="3"/>
    </contour>
    <contour>
      <point x="2279" y="3" type="qcurve" smooth="yes"/>
      <point x="2174" y="3"/>
      <point x="2081" y="131"/>
      <point x="2081" y="228" type="qcurve" smooth="yes"/>
      <point x="2081" y="288"/>
      <point x="2120" y="427"/>
      <point x="2199" y="552"/>
      <point x="2316" y="632"/>
      <point x="2394" y="632" type="qcurve" smooth="yes"/>
      <point x="2492" y="632"/>
      <point x="2587" y="504"/>
      <point x="2587" y="404" type="qcurve" smooth="yes"/>
      <point x="2587" y="308"/>
      <point x="2509" y="124"/>
      <point x="2371" y="3"/>
    </contour>
    <contour>
      <point x="1106" y="101" type="qcurve" smooth="yes"/>
      <point x="1155" y="101"/>
      <point x="1236" y="171"/>
      <point x="1291" y="275"/>
      <point x="1303" y="331" type="qcurve" smooth="yes"/>
      <point x="1313" y="376"/>
      <point x="1313" y="411" type="qcurve" smooth="yes"/>
      <point x="1313" y="461"/>
      <point x="1272" y="531"/>
      <point x="1223" y="531" type="qcurve" smooth="yes"/>
      <point x="1174" y="531"/>
      <point x="1095" y="469"/>
      <point x="1040" y="373"/>
      <point x="1011" y="267"/>
      <point x="1011" y="224" type="qcurve" smooth="yes"/>
      <point x="1011" y="172"/>
      <point x="1055" y="101"/>
    </contour>
    <contour>
      <point x="1695" y="101" type="qcurve" smooth="yes"/>
      <point x="1745" y="101"/>
      <point x="1826" y="171"/>
      <point x="1881" y="276"/>
      <point x="1893" y="331" type="qcurve" smooth="yes"/>
      <point x="1903" y="376"/>
      <point x="1903" y="411" type="qcurve" smooth="yes"/>
      <point x="1903" y="461"/>
      <point x="1862" y="531"/>
      <point x="1813" y="531" type="qcurve" smooth="yes"/>
      <point x="1764" y="531"/>
      <point x="1686" y="470"/>
      <point x="1631" y="375"/>
      <point x="1601" y="268"/>
      <point x="1601" y="222" type="qcurve" smooth="yes"/>
      <point x="1601" y="170"/>
      <point x="1644" y="101"/>
    </contour>
    <contour>
      <point x="2276" y="101" type="qcurve" smooth="yes"/>
      <point x="2326" y="101"/>
      <point x="2407" y="171"/>
      <point x="2462" y="276"/>
      <point x="2474" y="331" type="qcurve" smooth="yes"/>
      <point x="2484" y="376"/>
      <point x="2484" y="411" type="qcurve" smooth="yes"/>
      <point x="2484" y="461"/>
      <point x="2443" y="531"/>
      <point x="2394" y="531" type="qcurve" smooth="yes"/>
      <point x="2345" y="531"/>
      <point x="2266" y="469"/>
      <point x="2211" y="374"/>
      <point x="2182" y="267"/>
      <point x="2182" y="222" type="qcurve" smooth="yes"/>
      <point x="2182" y="170"/>
      <point x="2225" y="101"/>
    </contour>
  </outline>
</glyph>
<glyph name="guilsinglleft" format="2">
  <advance width="608"/>
  <unicode hex="2039"/>
  <outline>
    <contour>
      <point x="368" y="185" type="line"/>
      <point x="72" y="512" type="line"/>
      <point x="515" y="837" type="line"/>
      <point x="481" y="675" type="line"/>
      <point x="248" y="512" type="line"/>
      <point x="402" y="347" type="line"/>
    </contour>
  </outline>
</glyph>
<glyph name="fraction" format="2">
  <advance width="750"/>
  <unicode hex="2044"/>
  <outline>
    <contour>
      <point x="78" y="0" type="line"/>
      <point x="-82" y="0" type="line"/>
      <point x="674" y="1413" type="line"/>
      <point x="832" y="1413" type="line"/>
    </contour>
  </outline>
</glyph>
<glyph name="zerosuperior" format="2">
  <advance width="818"/>
  <unicode hex="2070"/>
  <outline>
    <contour>
      <point x="339" y="466" type="qcurve" smooth="yes"/>
      <point x="241" y="466"/>
      <point x="120" y="554"/>
      <point x="65" y="702"/>
      <point x="65" y="793" type="qcurve" smooth="yes"/>
      <point x="65" y="880"/>
      <point x="118" y="1097"/>
      <point x="235" y="1303"/>
      <point x="424" y="1450"/>
      <point x="545" y="1450" type="qcurve" smooth="yes"/>
      <point x="638" y="1450"/>
      <point x="759" y="1362"/>
      <point x="817" y="1211"/>
      <point x="817" y="1117" type="qcurve" smooth="yes"/>
      <point x="817" y="961"/>
      <point x="676" y="632"/>
      <point x="543" y="533" type="qcurve"/>
      <point x="449" y="466"/>
    </contour>
    <contour>
      <point x="345" y="575" type="qcurve" smooth="yes"/>
      <point x="429" y="575"/>
      <point x="497" y="636" type="qcurve"/>
      <point x="596" y="730"/>
      <point x="696" y="1007"/>
      <point x="696" y="1118" type="qcurve" smooth="yes"/>
      <point x="696" y="1215"/>
      <point x="620" y="1337"/>
      <point x="534" y="1337" type="qcurve" smooth="yes"/>
      <point x="447" y="1337"/>
      <point x="378" y="1278" type="qcurve"/>
      <point x="306" y="1214"/>
      <point x="218" y="1038"/>
      <point x="197" y="947" type="qcurve" smooth="yes"/>
      <point x="178" y="869"/>
      <point x="178" y="796" type="qcurve" smooth="yes"/>
      <point x="178" y="698"/>
      <point x="257" y="575"/>
    </contour>
  </outline>
</glyph>
<glyph name="sixsuperior" format="2">
  <advance width="818"/>
  <unicode hex="2076"/>
  <outline>
    <contour>
      <point x="335" y="473" type="qcurve" smooth="yes"/>
      <point x="215" y="473"/>
      <point x="72" y="617"/>
      <point x="72" y="722" type="qcurve" smooth="yes"/>
      <point x="72" y="777"/>
      <point x="117" y="898"/>
      <point x="163" y="953" type="qcurve" smooth="yes"/>
      <point x="559" y="1428" type="line"/>
      <point x="684" y="1428" type="line"/>
      <point x="383" y="1084" type="line"/>
      <point x="427" y="1093"/>
      <point x="467" y="1093" type="qcurve" smooth="yes"/>
      <point x="590" y="1093"/>
      <point x="734" y="956"/>
      <point x="734" y="852" type="qcurve" smooth="yes"/>
      <point x="734" y="761"/>
      <point x="615" y="574"/>
      <point x="507" y="516" type="qcurve" smooth="yes"/>
      <point x="425" y="473"/>
    </contour>
    <contour>
      <point x="345" y="580" type="qcurve" smooth="yes"/>
      <point x="438" y="580"/>
      <point x="592" y="710"/>
      <point x="615" y="799" type="qcurve" smooth="yes"/>
      <point x="622" y="824"/>
      <point x="622" y="847" type="qcurve" smooth="yes"/>
      <point x="622" y="916"/>
      <point x="531" y="1001"/>
      <point x="461" y="1001" type="qcurve" smooth="yes"/>
      <point x="366" y="1001"/>
      <point x="214" y="871"/>
      <point x="191" y="782" type="qcurve" smooth="yes"/>
      <point x="185" y="761"/>
      <point x="185" y="735" type="qcurve" smooth="yes"/>
      <point x="185" y="666"/>
      <point x="275" y="580"/>
    </contour>
  </outline>
</glyph>
<glyph name="uni20B3" format="2">
  <advance width="1306"/>
  <unicode hex="20B3"/>
  <anchor x="464" y="0" name="b.uni0326"/>
  <anchor x="789" y="1413" name="t.ringcmb_1"/>
  <anchor x="1090" y="0" name="b.ogonekcmb_2"/>
  <anchor x="0" y="0" name="m.horncmb_3"/>
  <outline>
    <contour>
      <point x="1126" y="0" type="line"/>
      <point x="959" y="0" type="line"/>
      <point x="922" y="307" type="line"/>
      <point x="301" y="307" type="line"/>
      <point x="122" y="0" type="line"/>
      <point x="-54" y="0" type="line"/>
      <point x="132" y="307" type="line"/>
      <point x="34" y="307" type="line"/>
      <point x="61" y="420" type="line"/>
      <point x="201" y="420" type="line"/>
      <point x="332" y="636" type="line"/>
      <point x="111" y="636" type="line"/>
      <point x="136" y="749" type="line"/>
      <point x="400" y="749" type="line"/>
      <point x="803" y="1413" type="line"/>
      <point x="924" y="1413" type="line"/>
      <point x="1019" y="749" type="line"/>
      <point x="1283" y="749" type="line"/>
      <point x="1258" y="636" type="line"/>
      <point x="1035" y="636" type="line"/>
      <point x="1066" y="420" type="line"/>
      <point x="1208" y="420" type="line"/>
      <point x="1180" y="307" type="line"/>
      <point x="1082" y="307" type="line"/>
    </contour>
    <contour>
      <point x="879" y="749" type="line"/>
      <point x="825" y="1225" type="line"/>
      <point x="547" y="749" type="line"/>
    </contour>
    <contour>
      <point x="916" y="420" type="line"/>
      <point x="892" y="636" type="line"/>
      <point x="481" y="636" type="line"/>
      <point x="355" y="420" type="line"/>
    </contour>
  </outline>
</glyph>
<glyph name="trademark" format="2">
  <advance width="1302"/>
  <unicode hex="2122"/>
  <outline>
    <contour>
      <point x="467" y="877" type="line"/>
      <point x="386" y="877" type="line"/>
      <point x="494" y="1344" type="line"/>
      <point x="349" y="1344" type="line"/>
      <point x="365" y="1413" type="line"/>
      <point x="737" y="1413" type="line"/>
      <point x="721" y="1344" type="line"/>
      <point x="575" y="1344" type="line"/>
    </contour>
    <contour>
      <point x="1131" y="877" type="line"/>
      <point x="1050" y="877" type="line"/>
      <point x="1146" y="1280" type="line"/>
      <point x="962" y="958" type="line"/>
      <point x="892" y="958" type="line"/>
      <point x="853" y="1288" type="line"/>
      <point x="757" y="877" type="line"/>
      <point x="675" y="877" type="line"/>
      <point x="800" y="1413" type="line"/>
      <point x="899" y="1413" type="line"/>
      <point x="945" y="1060" type="line"/>
      <point x="1158" y="1413" type="line"/>
      <point x="1256" y="1413" type="line"/>
    </contour>
  </outline>
</glyph>
<glyph name="arrowright" format="2">
  <advance width="2199"/>
  <unicode hex="2192"/>
  <outline>
    <contour>
      <point x="1194" y="137" type="line"/>
      <point x="1128" y="250" type="line"/>
      <point x="1749" y="580" type="line"/>
      <point x="127" y="580" type="line"/>
      <point x="127" y="690" type="line"/>
      <point x="1761" y="690" type="line"/>
      <point x="1128" y="1019" type="line"/>
      <point x="1194" y="1135" type="line"/>
      <point x="2090" y="639" type="line"/>
    </contour>
  </outline>
</glyph>
<glyph name="product" format="2">
  <advance width="1345"/>
  <unicode hex="220F"/>
  <outline>
    <contour>
      <point x="959" y="0" type="line"/>
      <point x="825" y="0" type="line"/>
      <point x="1119" y="1279" type="line"/>
      <point x="586" y="1279" type="line"/>
      <point x="291" y="0" type="line"/>
      <point x="157" y="0" type="line"/>
      <point x="452" y="1279" type="line"/>
      <point x="370" y="1279" type="line"/>
      <point x="401" y="1413" type="line"/>
      <point x="1366" y="1413" type="line"/>
      <point x="1336" y="1279" type="line"/>
      <point x="1254" y="1279" type="line"/>
    </contour>
  </outline>
</glyph>
<glyph name="summation" format="2">
  <advance width="1281"/>
  <unicode hex="2211"/>
  <outline>
    <contour>
      <point x="1024" y="0" type="line"/>
      <point x="13" y="0" type="line"/>
      <point x="25" y="64" type="line"/>
      <point x="755" y="707" type="line"/>
      <point x="326" y="1349" type="line"/>
      <point x="338" y="1413" type="line"/>
      <point x="1349" y="1413" type="line"/>
      <point x="1319" y="1279" type="line"/>
      <point x="553" y="1279" type="line"/>
      <point x="951" y="708" type="line"/>
      <point x="293" y="134" type="line"/>
      <point x="1054" y="134" type="line"/>
    </contour>
  </outline>
</glyph>
<glyph name="integral" format="2">
  <advance width="1004"/>
  <unicode hex="222B"/>
  <outline>
    <contour>
      <point x="-115" y="-457" type="qcurve"/>
      <point x="-95" y="-322" type="line"/>
      <point x="90" y="-322"/>
      <point x="291" y="-162"/>
      <point x="328" y="5" type="qcurve"/>
      <point x="596" y="1165" type="line"/>
      <point x="631" y="1298"/>
      <point x="813" y="1450"/>
      <point x="917" y="1450" type="qcurve" smooth="yes"/>
      <point x="1023" y="1450"/>
      <point x="1108" y="1367" type="qcurve"/>
      <point x="1005" y="1271" type="line"/>
      <point x="967" y="1315"/>
      <point x="907" y="1315" type="qcurve" smooth="yes"/>
      <point x="854" y="1315"/>
      <point x="749" y="1232"/>
      <point x="729" y="1153" type="qcurve"/>
      <point x="460" y="-9" type="line" smooth="yes"/>
      <point x="424" y="-164"/>
      <point x="261" y="-362"/>
      <point x="27" y="-457"/>
    </contour>
  </outline>
</glyph>
<glyph name="notequal" format="2">
  <advance width="1188"/>
  <unicode hex="2260"/>
  <outline>
    <contour>
      <point x="299" y="0" type="line"/>
      <point x="143" y="0" type="line"/>
      <point x="372" y="428" type="line"/>
      <point x="208" y="428" type="line"/>
      <point x="208" y="569" type="line"/>
      <point x="446" y="569" type="line"/>
      <point x="556" y="775" type="line"/>
      <point x="208" y="775" type="line"/>
      <point x="208" y="915" type="line"/>
      <point x="632" y="915" type="line"/>
      <point x="898" y="1413" type="line"/>
      <point x="1053" y="1413" type="line"/>
      <point x="787" y="915" type="line"/>
      <point x="971" y="915" type="line"/>
      <point x="971" y="775" type="line"/>
      <point x="713" y="775" type="line"/>
      <point x="602" y="569" type="line"/>
      <point x="971" y="569" type="line"/>
      <point x="971" y="428" type="line"/>
      <point x="526" y="428" type="line"/>
    </contour>
  </outline>
</glyph>
<glyph name="lessequal" format="2">
  <advance width="1332"/>
  <unicode hex="2264"/>
  <outline>
    <contour>
      <point x="1087" y="119" type="line"/>
      <point x="189" y="622" type="line"/>
      <point x="1087" y="1122" type="line"/>
      <point x="1155" y="1004" type="line"/>
      <point x="439" y="622" type="line"/>
      <point x="1155" y="237" type="line"/>
    </contour>
    <contour>
      <point x="1175" y="-114" type="line"/>
      <point x="121" y="-114" type="line"/>
      <point x="121" y="0" type="line"/>
      <point x="1175" y="0" type="line"/>
    </contour>
  </outline>
</glyph>
<glyph name="fi" format="2">
  <advance width="993"/>
  <unicode hex="FB01"/>
  <outline>
    <contour>
      <point x="270" y="877" type="line"/>
      <point x="122" y="877" type="line"/>
      <point x="150" y="999" type="line"/>
      <point x="301" y="1006" type="line"/>
      <point x="345" y="1195"/>
      <point x="560" y="1434"/>
      <point x="738" y="1434" type="qcurve" smooth="yes"/>
      <point x="821" y="1434"/>
      <point x="971" y="1376"/>
      <point x="1012" y="1311" type="qcurve"/>
      <point x="924" y="1214" type="line"/>
      <point x="885" y="1267"/>
      <point x="800" y="1307"/>
      <point x="746" y="1307" type="qcurve" smooth="yes"/>
      <point x="617" y="1307"/>
      <point x="468" y="1132"/>
      <point x="437" y="992" type="qcurve"/>
      <point x="949" y="999" type="line"/>
      <point x="720" y="0" type="line"/>
      <point x="584" y="0" type="line"/>
      <point x="786" y="877" type="line"/>
      <point x="410" y="877" type="line"/>
      <point x="208" y="0" type="line"/>
      <point x="68" y="0" type="line"/>
    </contour>
  </outline>
</glyph>
<glyph name="fl" format="2">
  <advance width="1003"/>
  <unicode hex="FB02"/>
  <outline>
    <contour>
      <point x="737" y="-20" type="qcurve" smooth="yes"/>
      <point x="617" y="-20"/>
      <point x="617" y="107" type="qcurve" smooth="yes"/>
      <point x="617" y="151"/>
      <point x="631" y="209" type="qcurve" smooth="yes"/>
      <point x="874" y="1249" type="line"/>
      <point x="848" y="1307"/>
      <point x="722" y="1307" type="qcurve" smooth="yes"/>
      <point x="614" y="1307"/>
      <point x="487" y="1213"/>
      <point x="466" y="1118" type="qcurve"/>
      <point x="437" y="999" type="line"/>
      <point x="652" y="999" type="line"/>
      <point x="624" y="877" type="line"/>
      <point x="410" y="877" type="line"/>
      <point x="208" y="0" type="line"/>
      <point x="68" y="0" type="line"/>
      <point x="270" y="877" type="line"/>
      <point x="122" y="877" type="line"/>
      <point x="150" y="999" type="line"/>
      <point x="299" y="999" type="line"/>
      <point x="335" y="1149" type="line" smooth="yes"/>
      <point x="368" y="1290"/>
      <point x="578" y="1434"/>
      <point x="728" y="1434" type="qcurve" smooth="yes"/>
      <point x="806" y="1434"/>
      <point x="947" y="1374"/>
      <point x="1015" y="1294" type="qcurve"/>
      <point x="761" y="176" type="line" smooth="yes"/>
      <point x="757" y="160"/>
      <point x="757" y="146" type="qcurve" smooth="yes"/>
      <point x="757" y="127"/>
      <point x="774" y="113"/>
      <point x="791" y="113" type="qcurve" smooth="yes"/>
      <point x="820" y="113"/>
      <point x="863" y="133" type="qcurve"/>
      <point x="835" y="0" type="line"/>
      <point x="791" y="-20"/>
    </contour>
  </outline>
</glyph>
<glyph name="f_f" format="2">
  <advance width="1218"/>
  <outline>
    <contour>
      <point x="407" y="877" type="line"/>
      <point x="205" y="0" type="line"/>
      <point x="61" y="0" type="line"/>
      <point x="263" y="877" type="line"/>
      <point x="122" y="877" type="line"/>
      <point x="150" y="999" type="line"/>
      <point x="292" y="999" type="line"/>
      <point x="322" y="1123" type="line" smooth="yes"/>
      <point x="344" y="1216"/>
      <point x="461" y="1357"/>
      <point x="628" y="1434"/>
      <point x="722" y="1434" type="qcurve" smooth="yes"/>
      <point x="822" y="1434"/>
      <point x="886" y="1402" type="qcurve" smooth="yes"/>
      <point x="941" y="1374"/>
      <point x="983" y="1336" type="qcurve"/>
      <point x="1003" y="1358"/>
      <point x="1027" y="1374" type="qcurve" smooth="yes"/>
      <point x="1113" y="1434"/>
      <point x="1225" y="1434" type="qcurve" smooth="yes"/>
      <point x="1311" y="1434"/>
      <point x="1386" y="1393" type="qcurve"/>
      <point x="1328" y="1284" type="line"/>
      <point x="1275" y="1310"/>
      <point x="1221" y="1310" type="qcurve" smooth="yes"/>
      <point x="1162" y="1310"/>
      <point x="1070" y="1243"/>
      <point x="1053" y="1172" type="qcurve" smooth="yes"/>
      <point x="1013" y="999" type="line"/>
      <point x="1300" y="999" type="line"/>
      <point x="1273" y="877" type="line"/>
      <point x="985" y="877" type="line"/>
      <point x="783" y="0" type="line"/>
      <point x="635" y="0" type="line"/>
      <point x="837" y="877" type="line"/>
    </contour>
    <contour>
      <point x="865" y="999" type="line"/>
      <point x="909" y="1190" type="line"/>
      <point x="913" y="1205"/>
      <point x="917" y="1218" type="qcurve"/>
      <point x="895" y="1252"/>
      <point x="851" y="1279" type="qcurve" smooth="yes"/>
      <point x="805" y="1307"/>
      <point x="732" y="1307" type="qcurve" smooth="yes"/>
      <point x="632" y="1307"/>
      <point x="482" y="1198"/>
      <point x="460" y="1107" type="qcurve" smooth="yes"/>
      <point x="435" y="999" type="line"/>
    </contour>
  </outline>
</glyph>
